<svg xmlns="http://www.w3.org/2000/svg" xmlns:xlink="http://www.w3.org/1999/xlink" width="319" zoomAndPan="magnify" viewBox="0 0 239.25 91.5" height="122" preserveAspectRatio="xMidYMid meet" version="1.0"><defs><g/><clipPath id="4aaf535f06"><path d="M 0.945312 2.792969 L 161.328125 2.792969 L 161.328125 79.449219 L 0.945312 79.449219 Z M 0.945312 2.792969 " clip-rule="nonzero"/></clipPath><clipPath id="9705750fb8"><path d="M 161.328125 2.792969 L 237.984375 2.792969 L 237.984375 79.449219 L 161.328125 79.449219 Z M 161.328125 2.792969 " clip-rule="nonzero"/></clipPath><clipPath id="0ba693b04d"><path d="M 176.003906 13 L 222.996094 13 L 222.996094 73 L 176.003906 73 Z M 176.003906 13 " clip-rule="nonzero"/></clipPath></defs><g clip-path="url(#4aaf535f06)"><path fill="#000000" d="M 0.945312 2.792969 L 161.449219 2.792969 L 161.449219 79.449219 L 0.945312 79.449219 Z M 0.945312 2.792969 " fill-opacity="1" fill-rule="nonzero"/></g><g clip-path="url(#9705750fb8)"><path fill="#ff7a00" d="M 161.328125 2.792969 L 237.984375 2.792969 L 237.984375 79.449219 L 161.328125 79.449219 Z M 161.328125 2.792969 " fill-opacity="1" fill-rule="nonzero"/></g><g clip-path="url(#0ba693b04d)"><path fill="#ffffff" d="M 221.414062 26.949219 C 221.394531 26.910156 221.386719 26.871094 221.367188 26.84375 C 221.25 26.675781 218.351562 22.851562 214.058594 19.894531 C 209.898438 17.039062 202.386719 14.386719 195.792969 13.449219 C 190.960938 12.753906 186.820312 13.3125 184.699219 14.925781 C 183.796875 15.609375 183.277344 16.460938 183.152344 17.460938 C 182.808594 20.238281 183.847656 22.027344 184.316406 22.675781 C 182.339844 23.839844 181.351562 26.324219 180.101562 29.484375 C 179.738281 30.402344 179.335938 31.402344 178.886719 32.457031 C 176.96875 36.910156 177 37.730469 177.039062 39.523438 C 177.066406 40.519531 177.097656 41.761719 176.800781 44.160156 C 176.253906 48.609375 176.722656 49.675781 177.3125 51.015625 C 177.625 51.730469 177.976562 52.542969 178.25 54.078125 C 178.789062 57.171875 179.09375 57.738281 179.738281 58.972656 C 180.039062 59.546875 180.414062 60.253906 180.941406 61.464844 C 181.8125 63.472656 181.546875 64.597656 181.207031 66.023438 C 180.949219 67.140625 180.648438 68.394531 180.902344 70.210938 C 181.136719 71.945312 181.976562 72.5 182.457031 72.6875 C 182.652344 72.765625 182.867188 72.796875 183.074219 72.796875 C 183.542969 72.796875 184.011719 72.609375 184.425781 72.246094 C 185.371094 71.425781 186.144531 69.507812 185.511719 66.59375 C 184.464844 61.847656 185.550781 60.683594 186.605469 59.558594 C 186.761719 59.390625 186.917969 59.226562 187.066406 59.050781 C 188.035156 57.914062 187.996094 57.140625 187.945312 55.957031 C 187.925781 55.441406 187.898438 54.863281 187.9375 54.089844 C 188.015625 52.632812 188.542969 51.457031 189.304688 51.027344 C 189.796875 50.753906 190.371094 50.792969 191.019531 51.132812 C 191.761719 51.535156 191.664062 53.160156 191.574219 54.597656 C 191.488281 56.105469 191.398438 57.523438 192.144531 58.21875 C 192.476562 58.53125 192.925781 58.660156 193.492188 58.578125 C 194.199219 58.492188 194.707031 58.1875 195.027344 57.691406 C 195.820312 56.4375 195.085938 54.253906 194.453125 52.328125 C 194.238281 51.671875 194.03125 51.046875 193.914062 50.558594 C 193.855469 50.3125 193.835938 50.148438 193.824219 50.046875 C 194.050781 50.136719 194.421875 50.332031 194.707031 50.488281 C 195.246094 50.78125 195.859375 51.113281 196.507812 51.3125 C 196.761719 51.390625 197.535156 51.625 198.050781 51.144531 C 198.746094 50.507812 198.445312 49.160156 198.023438 47.289062 L 198.011719 47.230469 C 198.679688 46.535156 202.160156 43.140625 209.546875 39.894531 C 211.523438 39.023438 213.421875 38.496094 215.09375 38.023438 C 219.28125 36.859375 222.578125 35.929688 222.910156 30.707031 C 223.039062 29.082031 222.492188 27.753906 221.414062 26.949219 Z M 184.128906 17.578125 C 184.21875 16.855469 184.609375 16.21875 185.292969 15.699219 C 187.171875 14.261719 191.15625 13.773438 195.65625 14.417969 C 202.113281 15.347656 209.449219 17.929688 213.5 20.699219 C 216.21875 22.566406 218.390625 24.835938 219.574219 26.207031 C 218.265625 26.03125 216.867188 26.472656 215.90625 27.429688 C 215.132812 28.203125 214.734375 29.21875 214.695312 30.382812 C 212.628906 27.496094 208.628906 24.808594 203.316406 22.800781 C 197.257812 20.511719 189.21875 19.210938 184.707031 21.375 C 184.316406 20.582031 183.914062 19.308594 184.128906 17.578125 Z M 208.011719 28.113281 C 206.582031 27.578125 205.097656 27.019531 204.207031 26.167969 C 200.851562 22.96875 197.660156 22.792969 193.972656 22.585938 C 192.425781 22.5 190.832031 22.410156 189.042969 22.105469 C 187.476562 21.84375 186.242188 21.921875 185.234375 22.265625 C 185.226562 22.253906 185.214844 22.246094 185.195312 22.226562 C 188.925781 20.492188 195.988281 21.082031 202.972656 23.722656 C 208.863281 25.953125 213.1875 29.121094 214.683594 32.292969 C 213.988281 32.585938 213.285156 32.917969 212.660156 33.242188 C 212.765625 32.949219 212.824219 32.644531 212.824219 32.320312 C 212.84375 29.933594 210.390625 29.003906 208.011719 28.113281 Z M 197.417969 50.441406 C 197.378906 50.46875 197.210938 50.507812 196.820312 50.390625 C 196.261719 50.226562 195.695312 49.910156 195.195312 49.636719 C 194.324219 49.167969 193.6875 48.824219 193.199219 49.199219 C 192.757812 49.53125 192.847656 50.195312 192.984375 50.792969 C 193.113281 51.339844 193.328125 51.976562 193.550781 52.660156 C 194.101562 54.292969 194.773438 56.328125 194.226562 57.191406 C 194.070312 57.433594 193.796875 57.582031 193.394531 57.632812 C 193.015625 57.679688 192.875 57.5625 192.835938 57.523438 C 192.425781 57.140625 192.503906 55.832031 192.582031 54.675781 C 192.691406 52.867188 192.808594 50.988281 191.515625 50.292969 C 190.324219 49.648438 189.414062 49.882812 188.867188 50.1875 C 187.789062 50.792969 187.09375 52.230469 186.996094 54.050781 C 186.957031 54.863281 186.976562 55.5 186.996094 56.007812 C 187.046875 57.121094 187.066406 57.582031 186.351562 58.421875 C 186.214844 58.589844 186.066406 58.746094 185.921875 58.902344 C 184.746094 60.15625 183.425781 61.5625 184.582031 66.816406 C 185.128906 69.320312 184.511719 70.917969 183.808594 71.523438 C 183.484375 71.808594 183.132812 71.894531 182.828125 71.777344 C 182.359375 71.601562 182.015625 70.984375 181.898438 70.085938 C 181.675781 68.441406 181.9375 67.328125 182.183594 66.25 C 182.527344 64.773438 182.859375 63.375 181.859375 61.074219 C 181.324219 59.832031 180.929688 59.097656 180.628906 58.511719 C 180.011719 57.335938 179.746094 56.847656 179.238281 53.902344 C 178.945312 52.25 178.5625 51.378906 178.230469 50.617188 C 177.683594 49.363281 177.28125 48.453125 177.789062 44.265625 C 178.09375 41.800781 178.054688 40.460938 178.035156 39.484375 C 177.996094 37.789062 177.976562 37.085938 179.804688 32.828125 C 180.265625 31.761719 180.65625 30.765625 181.027344 29.835938 C 182.78125 25.414062 183.769531 22.917969 187.25 22.917969 C 187.742188 22.917969 188.289062 22.96875 188.886719 23.074219 C 190.722656 23.390625 192.425781 23.488281 193.921875 23.566406 C 197.5625 23.769531 200.4375 23.925781 203.53125 26.882812 C 204.566406 27.871094 206.144531 28.464844 207.667969 29.035156 C 209.820312 29.847656 211.855469 30.609375 211.847656 32.3125 C 211.835938 34.003906 209.390625 35.226562 207.035156 36.421875 C 205.222656 37.332031 203.519531 38.191406 202.652344 39.328125 C 201.320312 41.066406 201.105469 41.164062 199.902344 41.683594 C 199.707031 41.773438 199.492188 41.859375 199.234375 41.976562 C 198.304688 42.398438 197.445312 43.035156 197.054688 44.003906 C 196.605469 45.097656 196.820312 46.292969 197.0625 47.40625 C 197.199219 48.015625 197.339844 48.609375 197.4375 49.226562 C 197.484375 49.5 197.660156 50.207031 197.417969 50.441406 Z M 221.960938 30.667969 C 221.679688 35.199219 218.960938 35.960938 214.859375 37.105469 C 213.15625 37.585938 211.21875 38.121094 209.175781 39.023438 C 202.660156 41.890625 199.15625 44.816406 197.816406 46.085938 C 197.601562 44.226562 198.367188 43.453125 199.648438 42.867188 C 199.890625 42.761719 200.105469 42.664062 200.292969 42.585938 C 201.652344 41.996094 201.996094 41.800781 203.421875 39.921875 C 204.15625 38.964844 205.839844 38.113281 207.472656 37.292969 C 208.746094 36.65625 210.035156 36 211.035156 35.246094 C 211.042969 35.238281 211.0625 35.246094 211.074219 35.238281 C 211.09375 35.226562 213.246094 33.945312 215.203125 33.144531 C 215.28125 33.359375 215.359375 33.574219 215.457031 33.789062 C 215.574219 34.035156 215.859375 34.140625 216.101562 34.035156 C 216.347656 33.925781 216.453125 33.632812 216.347656 33.386719 C 214.988281 30.414062 215.925781 28.820312 216.613281 28.132812 C 217.558594 27.183594 219.117188 26.882812 220.320312 27.417969 C 221.472656 27.9375 222.0625 29.09375 221.960938 30.667969 Z M 221.960938 30.667969 " fill-opacity="1" fill-rule="nonzero"/></g><path fill="#ffffff" d="M 198.148438 38.71875 C 197.933594 37.945312 197.082031 37.515625 196.554688 37.3125 C 196.585938 37.273438 196.613281 37.234375 196.644531 37.203125 C 197.023438 36.753906 197.542969 36.148438 197.464844 35.460938 C 197.425781 35.089844 197.21875 34.765625 196.859375 34.511719 C 194.714844 32.949219 193.375 34.738281 192.730469 35.589844 C 192.652344 35.6875 192.582031 35.785156 192.457031 35.941406 C 191.886719 36.644531 191.046875 37.703125 191.175781 38.789062 C 191.234375 39.285156 191.496094 39.71875 191.949219 40.070312 C 192.875 40.785156 193.570312 40.765625 193.992188 40.617188 C 194.257812 40.53125 194.578125 40.332031 194.851562 39.914062 C 195.214844 40.3125 195.734375 40.753906 196.332031 40.824219 C 196.378906 40.832031 196.4375 40.832031 196.496094 40.832031 C 196.820312 40.832031 197.238281 40.726562 197.640625 40.292969 C 198.246094 39.648438 198.257812 39.082031 198.148438 38.71875 Z M 196.925781 39.609375 C 196.710938 39.835938 196.546875 39.855469 196.4375 39.835938 C 195.96875 39.785156 195.402344 39.101562 195.15625 38.679688 C 195.066406 38.535156 194.902344 38.4375 194.734375 38.4375 C 194.714844 38.4375 194.6875 38.4375 194.667969 38.4375 C 194.472656 38.464844 194.316406 38.601562 194.257812 38.796875 C 194.128906 39.277344 193.921875 39.589844 193.667969 39.667969 C 193.394531 39.757812 192.996094 39.621094 192.535156 39.265625 C 192.300781 39.082031 192.164062 38.886719 192.144531 38.652344 C 192.066406 37.976562 192.789062 37.074219 193.277344 36.460938 C 193.355469 36.363281 193.433594 36.265625 193.511719 36.148438 C 194.335938 35.050781 195.007812 34.347656 196.28125 35.265625 C 196.410156 35.363281 196.488281 35.453125 196.496094 35.539062 C 196.527344 35.804688 196.152344 36.246094 195.910156 36.539062 C 195.585938 36.917969 195.304688 37.253906 195.421875 37.652344 C 195.460938 37.78125 195.578125 38.003906 195.910156 38.09375 C 196.46875 38.25 197.113281 38.601562 197.210938 38.953125 C 197.257812 39.148438 197.160156 39.367188 196.925781 39.609375 Z M 196.925781 39.609375 " fill-opacity="1" fill-rule="nonzero"/><path fill="#ffffff" d="M 181.007812 47.535156 C 179.238281 49.363281 178.796875 51.214844 179.835938 52.496094 C 180.304688 53.082031 181.125 53.367188 182.046875 53.367188 C 183.101562 53.367188 184.296875 52.984375 185.234375 52.242188 C 186.332031 51.371094 187.164062 49.648438 187.230469 48.132812 C 187.269531 47.191406 187.015625 46.4375 186.488281 45.941406 C 185.3125 44.84375 182.957031 45.527344 181.007812 47.535156 Z M 184.628906 51.46875 C 183.21875 52.582031 181.207031 52.621094 180.597656 51.867188 C 179.894531 50.996094 180.304688 49.667969 181.714844 48.210938 C 182.820312 47.074219 184.128906 46.378906 185.039062 46.378906 C 185.363281 46.378906 185.628906 46.46875 185.8125 46.644531 C 186.203125 47.015625 186.261719 47.621094 186.242188 48.082031 C 186.195312 49.324219 185.5 50.773438 184.628906 51.46875 Z M 184.628906 51.46875 " fill-opacity="1" fill-rule="nonzero"/><path fill="#ffffff" d="M 192.75 28.691406 C 192.828125 27.792969 192.59375 27 192.085938 26.480469 C 190.863281 25.238281 188.074219 24.90625 185.871094 26.390625 C 183.339844 28.105469 182.429688 30.238281 183.503906 31.941406 C 184.023438 32.761719 184.960938 33.359375 186.085938 33.582031 C 186.417969 33.652344 186.753906 33.679688 187.09375 33.679688 C 188.210938 33.679688 189.335938 33.328125 190.285156 32.652344 C 191.671875 31.675781 192.621094 30.160156 192.75 28.691406 Z M 186.273438 32.625 C 185.410156 32.449219 184.699219 32.007812 184.324219 31.421875 C 183.417969 29.972656 184.804688 28.289062 186.410156 27.203125 C 188.179688 26 190.449219 26.214844 191.378906 27.164062 C 191.691406 27.476562 191.828125 27.996094 191.769531 28.605469 C 191.683594 29.53125 191.097656 30.882812 189.707031 31.863281 C 188.691406 32.585938 187.425781 32.859375 186.273438 32.625 Z M 186.273438 32.625 " fill-opacity="1" fill-rule="nonzero"/><path fill="#ffffff" d="M 186.597656 36.332031 C 186.242188 36.085938 185.8125 36 185.402344 36.078125 C 184.0625 36.324219 182.886719 36.878906 181.929688 37.730469 C 181.5 38.113281 181.125 38.542969 180.824219 39.003906 C 180.714844 39.160156 180.628906 39.316406 180.558594 39.453125 C 180.511719 39.550781 180.472656 39.640625 180.441406 39.699219 C 180.277344 40.089844 180.265625 40.53125 180.433594 40.921875 C 180.589844 41.3125 180.890625 41.625 181.292969 41.792969 C 181.5 41.878906 181.703125 41.917969 181.917969 41.917969 C 182.535156 41.917969 183.132812 41.558594 183.386719 40.960938 C 183.386719 40.949219 183.398438 40.949219 183.398438 40.941406 C 183.425781 40.890625 183.457031 40.832031 183.503906 40.765625 C 183.652344 40.539062 183.847656 40.324219 184.070312 40.117188 C 184.589844 39.660156 185.234375 39.355469 185.988281 39.21875 C 186.859375 39.0625 187.4375 38.21875 187.28125 37.359375 C 187.171875 36.9375 186.9375 36.578125 186.597656 36.332031 Z M 185.792969 38.261719 C 184.855469 38.4375 184.050781 38.808594 183.398438 39.394531 C 183.113281 39.648438 182.867188 39.933594 182.664062 40.226562 C 182.605469 40.3125 182.554688 40.402344 182.496094 40.519531 C 182.488281 40.539062 182.476562 40.550781 182.46875 40.570312 C 182.332031 40.882812 181.96875 41.027344 181.644531 40.890625 C 181.488281 40.824219 181.371094 40.707031 181.3125 40.550781 C 181.265625 40.390625 181.265625 40.226562 181.332031 40.078125 C 181.351562 40.039062 181.371094 39.980469 181.410156 39.914062 C 181.46875 39.796875 181.546875 39.679688 181.625 39.542969 C 181.878906 39.148438 182.203125 38.789062 182.566406 38.464844 C 183.386719 37.730469 184.40625 37.253906 185.570312 37.035156 C 185.609375 37.027344 185.648438 37.027344 185.675781 37.027344 C 185.804688 37.027344 185.921875 37.066406 186.027344 37.132812 C 186.164062 37.234375 186.253906 37.371094 186.28125 37.535156 C 186.351562 37.867188 186.125 38.191406 185.792969 38.261719 Z M 185.792969 38.261719 " fill-opacity="1" fill-rule="nonzero"/><path fill="#ffffff" d="M 199.675781 32.949219 C 199.675781 32.949219 199.6875 32.949219 199.6875 32.949219 C 199.773438 32.9375 199.902344 32.9375 200.058594 32.957031 C 200.3125 32.976562 200.578125 33.015625 200.859375 33.085938 C 201.683594 33.289062 202.453125 33.671875 203.148438 34.230469 C 203.304688 34.355469 203.453125 34.484375 203.597656 34.621094 C 203.914062 34.914062 204.3125 35.070312 204.703125 35.070312 C 205.125 35.070312 205.546875 34.902344 205.859375 34.582031 C 206.464844 33.945312 206.445312 32.929688 205.808594 32.320312 C 205.59375 32.117188 205.371094 31.921875 205.144531 31.734375 C 204.078125 30.882812 202.886719 30.285156 201.605469 29.972656 C 200.871094 29.796875 200.136719 29.71875 199.511719 29.75 L 199.382812 29.757812 C 198.960938 29.796875 198.570312 30.003906 198.304688 30.335938 C 198.03125 30.667969 197.90625 31.078125 197.945312 31.507812 C 198.03125 32.371094 198.804688 33.027344 199.675781 32.949219 Z M 199.070312 30.953125 C 199.175781 30.824219 199.324219 30.746094 199.492188 30.726562 L 199.589844 30.714844 C 199.960938 30.695312 200.585938 30.714844 201.398438 30.914062 C 202.542969 31.1875 203.609375 31.714844 204.558594 32.488281 C 204.761719 32.652344 204.960938 32.828125 205.15625 33.015625 C 205.398438 33.25 205.410156 33.652344 205.175781 33.894531 C 204.941406 34.140625 204.539062 34.152344 204.292969 33.914062 C 204.128906 33.757812 203.953125 33.601562 203.777344 33.464844 C 202.964844 32.820312 202.0625 32.371094 201.105469 32.136719 C 200.773438 32.058594 200.449219 32 200.144531 31.980469 C 200.019531 31.96875 199.910156 31.96875 199.8125 31.96875 C 199.753906 31.96875 199.695312 31.96875 199.65625 31.96875 C 199.648438 31.96875 199.628906 31.96875 199.617188 31.96875 C 199.617188 31.96875 199.617188 31.96875 199.609375 31.96875 C 199.285156 32 198.960938 31.753906 198.933594 31.402344 C 198.914062 31.246094 198.960938 31.078125 199.070312 30.953125 Z M 199.070312 30.953125 " fill-opacity="1" fill-rule="nonzero"/><path fill="#ffffff" d="M 195.3125 42.347656 C 194.960938 42.105469 194.539062 42.015625 194.121094 42.085938 C 193.699219 42.164062 193.328125 42.386719 193.082031 42.742188 C 192.789062 43.160156 192.417969 43.53125 191.957031 43.855469 C 191.535156 44.160156 191.058594 44.414062 190.539062 44.597656 C 190.371094 44.65625 190.226562 44.707031 190.089844 44.746094 L 189.972656 44.777344 C 189.550781 44.855469 189.1875 45.097656 188.953125 45.449219 C 188.71875 45.804688 188.628906 46.234375 188.710938 46.652344 C 188.789062 47.074219 189.03125 47.4375 189.382812 47.671875 C 189.648438 47.847656 189.960938 47.945312 190.273438 47.945312 C 190.382812 47.945312 190.480469 47.9375 190.585938 47.917969 C 190.65625 47.90625 190.773438 47.875 190.921875 47.835938 C 191.144531 47.777344 191.378906 47.699219 191.644531 47.601562 C 192.425781 47.320312 193.152344 46.929688 193.816406 46.457031 C 194.558594 45.921875 195.195312 45.292969 195.695312 44.578125 C 196.214844 43.855469 196.035156 42.859375 195.3125 42.347656 Z M 194.902344 44.023438 C 194.460938 44.648438 193.914062 45.195312 193.25 45.664062 C 192.660156 46.085938 192.007812 46.429688 191.3125 46.683594 C 191.078125 46.769531 190.871094 46.839844 190.675781 46.890625 C 190.558594 46.917969 190.460938 46.9375 190.410156 46.957031 C 190.253906 46.988281 190.089844 46.957031 189.941406 46.859375 C 189.804688 46.761719 189.707031 46.625 189.675781 46.457031 C 189.648438 46.292969 189.675781 46.125 189.777344 45.988281 C 189.863281 45.851562 190.011719 45.753906 190.175781 45.722656 C 190.234375 45.714844 190.304688 45.695312 190.363281 45.683594 C 190.519531 45.644531 190.695312 45.585938 190.890625 45.507812 C 191.488281 45.285156 192.046875 45 192.535156 44.636719 C 193.074219 44.246094 193.53125 43.796875 193.882812 43.289062 C 193.980469 43.152344 194.121094 43.0625 194.285156 43.035156 C 194.453125 43.003906 194.617188 43.042969 194.753906 43.140625 C 195.039062 43.347656 195.105469 43.738281 194.902344 44.023438 Z M 194.902344 44.023438 " fill-opacity="1" fill-rule="nonzero"/><g fill="#55996f" fill-opacity="1"><g transform="translate(7.941487, 38.379674)"><g><path d="M 7.734375 -26.8125 C 9.859375 -26.8125 11.4375 -26.25 12.46875 -25.125 C 13.5 -24.007812 14.015625 -22.363281 14.015625 -20.1875 L 14.015625 -16.703125 C 14.015625 -14.535156 13.5 -12.890625 12.46875 -11.765625 C 11.4375 -10.640625 9.859375 -10.078125 7.734375 -10.078125 L 5.75 -10.078125 L 5.75 0 L 1.53125 0 L 1.53125 -26.8125 Z M 5.75 -22.984375 L 5.75 -13.90625 L 7.734375 -13.90625 C 8.398438 -13.90625 8.910156 -14.082031 9.265625 -14.4375 C 9.628906 -14.800781 9.8125 -15.46875 9.8125 -16.4375 L 9.8125 -20.453125 C 9.8125 -21.429688 9.628906 -22.097656 9.265625 -22.453125 C 8.910156 -22.804688 8.398438 -22.984375 7.734375 -22.984375 Z M 5.75 -22.984375 "/></g></g></g><g fill="#55996f" fill-opacity="1"><g transform="translate(22.57495, 38.379674)"><g><path d="M 1.53125 -26.8125 L 5.75 -26.8125 L 5.75 0 L 1.53125 0 Z M 1.53125 -26.8125 "/></g></g></g><g fill="#55996f" fill-opacity="1"><g transform="translate(29.853374, 38.379674)"><g><path d="M 13.21875 -26.8125 L 13.21875 -23.0625 L 5.203125 -3.828125 L 13.21875 -3.828125 L 13.21875 0 L 0.875 0 L 0.875 -3.75 L 8.890625 -22.984375 L 1.265625 -22.984375 L 1.265625 -26.8125 Z M 13.21875 -26.8125 "/></g></g></g><g fill="#55996f" fill-opacity="1"><g transform="translate(44.027143, 38.379674)"><g><path d="M 13.21875 -26.8125 L 13.21875 -23.0625 L 5.203125 -3.828125 L 13.21875 -3.828125 L 13.21875 0 L 0.875 0 L 0.875 -3.75 L 8.890625 -22.984375 L 1.265625 -22.984375 L 1.265625 -26.8125 Z M 13.21875 -26.8125 "/></g></g></g><g fill="#55996f" fill-opacity="1"><g transform="translate(58.200913, 38.379674)"><g><path d="M 15.171875 0 L 10.921875 0 L 10.1875 -4.859375 L 5.015625 -4.859375 L 4.296875 0 L 0.421875 0 L 4.71875 -26.8125 L 10.875 -26.8125 Z M 5.5625 -8.5 L 9.609375 -8.5 L 7.578125 -22.0625 Z M 5.5625 -8.5 "/></g></g></g><g fill="#55996f" fill-opacity="1"><g transform="translate(73.792061, 38.379674)"><g><path d="M 13.21875 -26.8125 L 13.21875 -23.0625 L 5.203125 -3.828125 L 13.21875 -3.828125 L 13.21875 0 L 0.875 0 L 0.875 -3.75 L 8.890625 -22.984375 L 1.265625 -22.984375 L 1.265625 -26.8125 Z M 13.21875 -26.8125 "/></g></g></g><g fill="#55996f" fill-opacity="1"><g transform="translate(87.965831, 38.379674)"><g><path d="M 13.21875 -26.8125 L 13.21875 -23.0625 L 5.203125 -3.828125 L 13.21875 -3.828125 L 13.21875 0 L 0.875 0 L 0.875 -3.75 L 8.890625 -22.984375 L 1.265625 -22.984375 L 1.265625 -26.8125 Z M 13.21875 -26.8125 "/></g></g></g><g fill="#fffbf5" fill-opacity="1"><g transform="translate(7.941487, 38.379674)"><g><path d="M 7.734375 -26.8125 C 9.859375 -26.8125 11.4375 -26.25 12.46875 -25.125 C 13.5 -24.007812 14.015625 -22.363281 14.015625 -20.1875 L 14.015625 -16.703125 C 14.015625 -14.535156 13.5 -12.890625 12.46875 -11.765625 C 11.4375 -10.640625 9.859375 -10.078125 7.734375 -10.078125 L 5.75 -10.078125 L 5.75 0 L 1.53125 0 L 1.53125 -26.8125 Z M 5.75 -22.984375 L 5.75 -13.90625 L 7.734375 -13.90625 C 8.398438 -13.90625 8.910156 -14.082031 9.265625 -14.4375 C 9.628906 -14.800781 9.8125 -15.46875 9.8125 -16.4375 L 9.8125 -20.453125 C 9.8125 -21.429688 9.628906 -22.097656 9.265625 -22.453125 C 8.910156 -22.804688 8.398438 -22.984375 7.734375 -22.984375 Z M 5.75 -22.984375 "/></g></g></g><g fill="#fffbf5" fill-opacity="1"><g transform="translate(22.57495, 38.379674)"><g><path d="M 1.53125 -26.8125 L 5.75 -26.8125 L 5.75 0 L 1.53125 0 Z M 1.53125 -26.8125 "/></g></g></g><g fill="#fffbf5" fill-opacity="1"><g transform="translate(29.853374, 38.379674)"><g><path d="M 13.21875 -26.8125 L 13.21875 -23.0625 L 5.203125 -3.828125 L 13.21875 -3.828125 L 13.21875 0 L 0.875 0 L 0.875 -3.75 L 8.890625 -22.984375 L 1.265625 -22.984375 L 1.265625 -26.8125 Z M 13.21875 -26.8125 "/></g></g></g><g fill="#fffbf5" fill-opacity="1"><g transform="translate(44.027143, 38.379674)"><g><path d="M 13.21875 -26.8125 L 13.21875 -23.0625 L 5.203125 -3.828125 L 13.21875 -3.828125 L 13.21875 0 L 0.875 0 L 0.875 -3.75 L 8.890625 -22.984375 L 1.265625 -22.984375 L 1.265625 -26.8125 Z M 13.21875 -26.8125 "/></g></g></g><g fill="#fffbf5" fill-opacity="1"><g transform="translate(58.200913, 38.379674)"><g><path d="M 15.171875 0 L 10.921875 0 L 10.1875 -4.859375 L 5.015625 -4.859375 L 4.296875 0 L 0.421875 0 L 4.71875 -26.8125 L 10.875 -26.8125 Z M 5.5625 -8.5 L 9.609375 -8.5 L 7.578125 -22.0625 Z M 5.5625 -8.5 "/></g></g></g><g fill="#fffbf5" fill-opacity="1"><g transform="translate(73.792061, 38.379674)"><g><path d="M 13.21875 -26.8125 L 13.21875 -23.0625 L 5.203125 -3.828125 L 13.21875 -3.828125 L 13.21875 0 L 0.875 0 L 0.875 -3.75 L 8.890625 -22.984375 L 1.265625 -22.984375 L 1.265625 -26.8125 Z M 13.21875 -26.8125 "/></g></g></g><g fill="#fffbf5" fill-opacity="1"><g transform="translate(87.965831, 38.379674)"><g><path d="M 13.21875 -26.8125 L 13.21875 -23.0625 L 5.203125 -3.828125 L 13.21875 -3.828125 L 13.21875 0 L 0.875 0 L 0.875 -3.75 L 8.890625 -22.984375 L 1.265625 -22.984375 L 1.265625 -26.8125 Z M 13.21875 -26.8125 "/></g></g></g><g fill="#55996f" fill-opacity="1"><g transform="translate(7.941487, 68.096945)"><g><path d="M 7.734375 -26.8125 C 9.859375 -26.8125 11.4375 -26.25 12.46875 -25.125 C 13.5 -24.007812 14.015625 -22.363281 14.015625 -20.1875 L 14.015625 -16.703125 C 14.015625 -14.535156 13.5 -12.890625 12.46875 -11.765625 C 11.4375 -10.640625 9.859375 -10.078125 7.734375 -10.078125 L 5.75 -10.078125 L 5.75 0 L 1.53125 0 L 1.53125 -26.8125 Z M 5.75 -22.984375 L 5.75 -13.90625 L 7.734375 -13.90625 C 8.398438 -13.90625 8.910156 -14.082031 9.265625 -14.4375 C 9.628906 -14.800781 9.8125 -15.46875 9.8125 -16.4375 L 9.8125 -20.453125 C 9.8125 -21.429688 9.628906 -22.097656 9.265625 -22.453125 C 8.910156 -22.804688 8.398438 -22.984375 7.734375 -22.984375 Z M 5.75 -22.984375 "/></g></g></g><g fill="#55996f" fill-opacity="1"><g transform="translate(22.57495, 68.096945)"><g><path d="M 1.53125 -26.8125 L 5.75 -26.8125 L 5.75 0 L 1.53125 0 Z M 1.53125 -26.8125 "/></g></g></g><g fill="#55996f" fill-opacity="1"><g transform="translate(29.853374, 68.096945)"><g><path d="M 13.21875 -26.8125 L 13.21875 -23.0625 L 5.203125 -3.828125 L 13.21875 -3.828125 L 13.21875 0 L 0.875 0 L 0.875 -3.75 L 8.890625 -22.984375 L 1.265625 -22.984375 L 1.265625 -26.8125 Z M 13.21875 -26.8125 "/></g></g></g><g fill="#55996f" fill-opacity="1"><g transform="translate(44.027143, 68.096945)"><g><path d="M 13.21875 -26.8125 L 13.21875 -23.0625 L 5.203125 -3.828125 L 13.21875 -3.828125 L 13.21875 0 L 0.875 0 L 0.875 -3.75 L 8.890625 -22.984375 L 1.265625 -22.984375 L 1.265625 -26.8125 Z M 13.21875 -26.8125 "/></g></g></g><g fill="#55996f" fill-opacity="1"><g transform="translate(58.200913, 68.096945)"><g><path d="M 15.171875 0 L 10.921875 0 L 10.1875 -4.859375 L 5.015625 -4.859375 L 4.296875 0 L 0.421875 0 L 4.71875 -26.8125 L 10.875 -26.8125 Z M 5.5625 -8.5 L 9.609375 -8.5 L 7.578125 -22.0625 Z M 5.5625 -8.5 "/></g></g></g><g fill="#fffbf5" fill-opacity="1"><g transform="translate(7.941487, 68.096945)"><g><path d="M 7.734375 -26.8125 C 9.859375 -26.8125 11.4375 -26.25 12.46875 -25.125 C 13.5 -24.007812 14.015625 -22.363281 14.015625 -20.1875 L 14.015625 -16.703125 C 14.015625 -14.535156 13.5 -12.890625 12.46875 -11.765625 C 11.4375 -10.640625 9.859375 -10.078125 7.734375 -10.078125 L 5.75 -10.078125 L 5.75 0 L 1.53125 0 L 1.53125 -26.8125 Z M 5.75 -22.984375 L 5.75 -13.90625 L 7.734375 -13.90625 C 8.398438 -13.90625 8.910156 -14.082031 9.265625 -14.4375 C 9.628906 -14.800781 9.8125 -15.46875 9.8125 -16.4375 L 9.8125 -20.453125 C 9.8125 -21.429688 9.628906 -22.097656 9.265625 -22.453125 C 8.910156 -22.804688 8.398438 -22.984375 7.734375 -22.984375 Z M 5.75 -22.984375 "/></g></g></g><g fill="#fffbf5" fill-opacity="1"><g transform="translate(22.57495, 68.096945)"><g><path d="M 1.53125 -26.8125 L 5.75 -26.8125 L 5.75 0 L 1.53125 0 Z M 1.53125 -26.8125 "/></g></g></g><g fill="#fffbf5" fill-opacity="1"><g transform="translate(29.853374, 68.096945)"><g><path d="M 13.21875 -26.8125 L 13.21875 -23.0625 L 5.203125 -3.828125 L 13.21875 -3.828125 L 13.21875 0 L 0.875 0 L 0.875 -3.75 L 8.890625 -22.984375 L 1.265625 -22.984375 L 1.265625 -26.8125 Z M 13.21875 -26.8125 "/></g></g></g><g fill="#fffbf5" fill-opacity="1"><g transform="translate(44.027143, 68.096945)"><g><path d="M 13.21875 -26.8125 L 13.21875 -23.0625 L 5.203125 -3.828125 L 13.21875 -3.828125 L 13.21875 0 L 0.875 0 L 0.875 -3.75 L 8.890625 -22.984375 L 1.265625 -22.984375 L 1.265625 -26.8125 Z M 13.21875 -26.8125 "/></g></g></g><g fill="#fffbf5" fill-opacity="1"><g transform="translate(58.200913, 68.096945)"><g><path d="M 15.171875 0 L 10.921875 0 L 10.1875 -4.859375 L 5.015625 -4.859375 L 4.296875 0 L 0.421875 0 L 4.71875 -26.8125 L 10.875 -26.8125 Z M 5.5625 -8.5 L 9.609375 -8.5 L 7.578125 -22.0625 Z M 5.5625 -8.5 "/></g></g></g></svg>