<svg xmlns="http://www.w3.org/2000/svg" xmlns:xlink="http://www.w3.org/1999/xlink" width="60" zoomAndPan="magnify" viewBox="0 0 45 30.000001" height="40" preserveAspectRatio="xMidYMid meet" version="1.0"><defs><clipPath id="cc5fa46c7b"><path d="M 1 7 L 44.273438 7 L 44.273438 25 L 1 25 Z M 1 7 " clip-rule="nonzero"/></clipPath><clipPath id="640fddf055"><path d="M 2.847656 1.410156 L 42.863281 1.410156 L 42.863281 27.539062 L 2.847656 27.539062 Z M 2.847656 1.410156 " clip-rule="nonzero"/></clipPath></defs><g clip-path="url(#cc5fa46c7b)"><path fill="#fef8d0" d="M 44.136719 11.28125 C 44.082031 16.097656 36.886719 20.960938 28.234375 23.257812 C 25.761719 23.914062 22.9375 24.253906 20.410156 24.457031 C 9.046875 25.351562 2.898438 22.839844 1.84375 19.445312 C 0.792969 16.046875 8.445312 13.183594 8.445312 13.183594 C 24.953125 6.574219 44.203125 5.085938 44.136719 11.28125 " fill-opacity="1" fill-rule="nonzero"/></g><path fill="#fbed9b" d="M 8.613281 14.042969 C 8.023438 14.078125 7.367188 14.492188 6.859375 14.765625 C 6.226562 15.101562 5.625 15.480469 5.050781 15.914062 C 4.984375 15.96875 5.042969 16.082031 5.121094 16.035156 C 5.6875 15.6875 6.261719 15.355469 6.855469 15.0625 C 7.132812 14.929688 7.410156 14.800781 7.691406 14.679688 C 8.007812 14.542969 8.390625 14.449219 8.664062 14.242188 C 8.742188 14.183594 8.730469 14.035156 8.613281 14.042969 Z M 38.011719 9.617188 C 38.644531 9.746094 39.285156 9.972656 39.925781 10.042969 C 39.976562 10.046875 39.996094 9.96875 39.949219 9.945312 C 39.378906 9.640625 38.664062 9.5625 38.027344 9.496094 C 37.957031 9.492188 37.945312 9.601562 38.011719 9.617188 Z M 42.152344 9.511719 C 41.082031 8.894531 39.730469 8.542969 38.5 8.5 C 38.441406 8.496094 38.425781 8.589844 38.484375 8.601562 C 39.539062 8.828125 40.597656 9.066406 41.574219 9.535156 C 42.019531 9.746094 42.460938 10.003906 42.726562 10.429688 C 43.007812 10.878906 42.980469 11.34375 42.992188 11.847656 C 42.992188 11.941406 43.128906 11.988281 43.175781 11.898438 C 43.636719 10.992188 42.925781 9.957031 42.152344 9.511719 Z M 42.695312 13.144531 C 41.855469 14.246094 41.035156 15.332031 40.027344 16.289062 C 39.0625 17.210938 38 18.023438 36.875 18.734375 C 34.441406 20.265625 31.636719 21.40625 28.84375 22.082031 C 28.808594 22.09375 28.824219 22.140625 28.855469 22.132812 C 30.34375 21.808594 31.8125 21.457031 33.230469 20.90625 C 34.597656 20.375 35.914062 19.714844 37.148438 18.929688 C 38.296875 18.199219 39.375 17.359375 40.351562 16.417969 C 41.3125 15.488281 42.257812 14.441406 42.902344 13.265625 C 42.976562 13.125 42.785156 13.027344 42.695312 13.144531 Z M 20.648438 23.4375 C 19.8125 23.464844 18.972656 23.636719 18.136719 23.695312 C 17.269531 23.761719 16.394531 23.773438 15.523438 23.738281 C 13.765625 23.664062 12.015625 23.445312 10.308594 23.023438 C 10.265625 23.011719 10.246094 23.078125 10.289062 23.089844 C 11.960938 23.621094 13.691406 23.976562 15.445312 24.058594 C 16.316406 24.097656 17.1875 24.089844 18.058594 24.03125 C 18.917969 23.972656 19.855469 23.910156 20.671875 23.625 C 20.769531 23.59375 20.761719 23.433594 20.648438 23.4375 Z M 6.386719 21.714844 C 5.417969 21.277344 4.445312 20.828125 3.78125 19.949219 C 2.988281 18.890625 3.351562 17.796875 3.9375 16.742188 C 3.96875 16.6875 3.886719 16.617188 3.84375 16.671875 C 3.109375 17.621094 2.726562 18.820312 3.390625 19.914062 C 3.691406 20.40625 4.121094 20.804688 4.585938 21.136719 C 5.085938 21.492188 5.710938 21.902344 6.351562 21.855469 C 6.414062 21.847656 6.460938 21.75 6.386719 21.714844 Z M 34.734375 16.902344 C 34.578125 17.070312 34.40625 17.21875 34.207031 17.332031 C 34.027344 17.4375 33.820312 17.5 33.640625 17.601562 C 33.578125 17.640625 33.601562 17.742188 33.675781 17.742188 C 34.132812 17.722656 34.570312 17.347656 34.84375 17.015625 C 34.90625 16.9375 34.804688 16.824219 34.734375 16.902344 Z M 37.828125 15.636719 C 38.175781 15.6875 38.585938 15.183594 38.796875 14.957031 C 39.011719 14.726562 39.308594 14.425781 39.097656 14.101562 C 39.054688 14.039062 38.960938 14.089844 38.996094 14.160156 C 39.140625 14.449219 38.558594 14.863281 38.375 15.027344 C 38.199219 15.1875 37.871094 15.359375 37.800781 15.589844 C 37.796875 15.609375 37.808594 15.632812 37.828125 15.636719 Z M 38.457031 13.296875 C 38.457031 13.335938 38.496094 13.367188 38.53125 13.355469 C 38.753906 13.28125 39.246094 12.496094 38.832031 12.40625 C 38.773438 12.394531 38.714844 12.457031 38.75 12.515625 C 38.820312 12.632812 38.667969 12.828125 38.613281 12.925781 C 38.542969 13.039062 38.457031 13.160156 38.457031 13.296875 Z M 16.625 12.503906 C 16.886719 12.582031 17.144531 12.644531 17.410156 12.695312 C 17.617188 12.734375 17.835938 12.808594 18.039062 12.742188 C 18.070312 12.734375 18.089844 12.683594 18.058594 12.660156 C 17.878906 12.515625 17.636719 12.515625 17.414062 12.476562 C 17.15625 12.433594 16.902344 12.40625 16.644531 12.386719 C 16.574219 12.382812 16.5625 12.488281 16.625 12.503906 Z M 12.972656 11.511719 C 13.4375 11.796875 13.882812 12.027344 14.40625 12.175781 C 14.894531 12.316406 15.46875 12.496094 15.972656 12.472656 C 16.042969 12.46875 16.085938 12.363281 16.011719 12.332031 C 15.585938 12.132812 15.074219 12.085938 14.621094 11.960938 C 14.089844 11.8125 13.523438 11.664062 13.019531 11.433594 C 12.964844 11.40625 12.917969 11.480469 12.972656 11.511719 Z M 14.296875 20.308594 C 14.210938 20.277344 14.175781 20.410156 14.257812 20.441406 C 14.367188 20.484375 14.46875 20.542969 14.5625 20.609375 C 14.644531 20.667969 14.722656 20.738281 14.820312 20.769531 C 14.847656 20.777344 14.878906 20.746094 14.871094 20.71875 C 14.796875 20.5 14.496094 20.378906 14.296875 20.308594 Z M 11.042969 20.1875 C 10.707031 19.890625 10.214844 19.820312 10.058594 19.339844 C 9.945312 18.980469 9.980469 18.636719 9.667969 18.371094 C 9.605469 18.316406 9.515625 18.402344 9.574219 18.464844 C 9.914062 18.789062 9.71875 19.394531 10.023438 19.777344 C 10.25 20.0625 10.636719 20.28125 11.003906 20.277344 C 11.050781 20.277344 11.078125 20.21875 11.042969 20.1875 Z M 8.175781 16.792969 C 8.214844 16.746094 8.175781 16.679688 8.113281 16.691406 C 7.808594 16.746094 7.90625 17.136719 8.050781 17.300781 C 8.292969 17.585938 8.734375 17.964844 9.109375 18.035156 C 9.175781 18.046875 9.21875 17.972656 9.171875 17.921875 C 8.96875 17.679688 7.855469 17.179688 8.175781 16.792969 Z M 17.089844 21.558594 C 16.824219 21.476562 16.59375 21.347656 16.394531 21.152344 C 16.316406 21.074219 16.203125 21.191406 16.273438 21.273438 C 16.609375 21.667969 17.265625 22.035156 17.785156 21.777344 C 17.832031 21.753906 17.824219 21.671875 17.769531 21.660156 C 17.546875 21.617188 17.316406 21.621094 17.089844 21.558594 Z M 27.140625 19.988281 C 26.738281 20.039062 26.386719 20.152344 26.042969 20.371094 C 25.722656 20.574219 25.328125 20.8125 25.105469 21.125 C 25.058594 21.191406 25.136719 21.273438 25.210938 21.253906 C 25.546875 21.175781 25.820312 20.894531 26.097656 20.699219 C 26.421875 20.46875 26.765625 20.222656 27.15625 20.125 C 27.234375 20.105469 27.21875 19.976562 27.140625 19.988281 Z M 30.976562 18.417969 C 31.066406 18.320312 30.933594 18.191406 30.835938 18.277344 C 30.480469 18.59375 30.097656 19.035156 29.65625 19.226562 C 29.25 19.402344 28.785156 19.375 28.394531 19.601562 C 28.296875 19.65625 28.351562 19.78125 28.445312 19.792969 C 28.890625 19.847656 29.472656 19.71875 29.867188 19.5 C 30.316406 19.25 30.640625 18.792969 30.976562 18.417969 Z M 11.285156 19.113281 C 10.4375 18.542969 9.410156 17.179688 9.292969 16.703125 C 9.179688 16.222656 9.636719 15.242188 9.660156 14.605469 C 9.683594 13.96875 10.105469 11.921875 10.277344 11.046875 C 10.386719 10.492188 10.34375 10.152344 10.304688 9.847656 C 10.304688 9.851562 10.863281 11.082031 12.507812 11.871094 C 14.152344 12.65625 16.929688 12.585938 17.992188 12.859375 C 19.054688 13.136719 21.113281 13.648438 24.679688 13.03125 C 28.246094 12.417969 31.707031 12.089844 32.941406 11.585938 C 34.175781 11.082031 35.617188 11.152344 35.992188 10.125 C 36.210938 9.53125 36.601562 9.03125 36.890625 8.714844 C 36.894531 8.746094 36.902344 8.78125 36.90625 8.8125 C 37.023438 9.316406 37.089844 10.957031 37.480469 12.234375 C 37.867188 13.511719 37.9375 13.441406 37.867188 14.171875 C 37.800781 14.902344 37.546875 15.25 36.152344 16.132812 C 34.742188 17.027344 35.4375 16.527344 33.570312 16.953125 C 31.027344 17.53125 23.78125 21.203125 20.214844 21.15625 C 16.648438 21.109375 12.128906 19.683594 11.285156 19.113281 " fill-opacity="1" fill-rule="nonzero"/><g clip-path="url(#640fddf055)"><path fill="#f79f25" d="M 34.691406 6.914062 C 34.710938 6.921875 34.734375 6.925781 34.753906 6.925781 C 34.8125 6.925781 34.867188 6.886719 34.882812 6.828125 C 34.898438 6.773438 34.875 6.71875 34.824219 6.683594 C 33.808594 6.042969 32.945312 5.628906 32.097656 5.375 C 31.660156 5.242188 31.1875 5.144531 30.691406 5.082031 C 30.628906 5.074219 30.5625 5.0625 30.492188 5.054688 C 30.289062 5.023438 30.0625 4.992188 29.847656 4.992188 C 29.621094 4.992188 29.441406 5.027344 29.300781 5.105469 C 29.253906 5.132812 29.226562 5.183594 29.226562 5.242188 C 29.230469 5.296875 29.257812 5.339844 29.300781 5.363281 C 29.523438 5.46875 29.796875 5.476562 30.058594 5.476562 L 30.230469 5.476562 C 30.335938 5.476562 30.453125 5.480469 30.558594 5.488281 C 31.015625 5.539062 31.496094 5.632812 31.988281 5.769531 C 32.753906 5.984375 33.476562 6.332031 34.175781 6.667969 C 34.347656 6.75 34.519531 6.832031 34.691406 6.914062 Z M 27.996094 5.480469 C 28 5.480469 28.003906 5.480469 28.011719 5.480469 C 28.0625 5.480469 28.101562 5.445312 28.117188 5.390625 C 28.128906 5.339844 28.117188 5.273438 28.0625 5.242188 C 27.457031 4.921875 26.695312 4.84375 26.097656 4.8125 C 25.917969 4.800781 25.730469 4.796875 25.546875 4.796875 C 25.039062 4.796875 24.511719 4.832031 23.972656 4.90625 C 22.945312 5.042969 21.914062 5.257812 20.917969 5.464844 C 20.457031 5.558594 19.984375 5.65625 19.519531 5.746094 C 19.460938 5.757812 19.441406 5.8125 19.445312 5.855469 C 19.449219 5.902344 19.480469 5.949219 19.539062 5.949219 L 19.546875 5.949219 C 20.339844 5.882812 21.132812 5.742188 21.902344 5.601562 C 22.53125 5.488281 23.179688 5.371094 23.828125 5.296875 C 24.503906 5.21875 25.023438 5.1875 25.519531 5.1875 C 25.648438 5.1875 25.777344 5.1875 25.902344 5.195312 C 26.363281 5.210938 26.816406 5.289062 27.257812 5.363281 C 27.496094 5.40625 27.746094 5.449219 27.996094 5.480469 Z M 36.273438 7.5 C 36.253906 7.464844 36.214844 7.441406 36.171875 7.441406 C 36.152344 7.441406 36.132812 7.445312 36.117188 7.453125 C 35.925781 7.539062 35.746094 7.644531 35.570312 7.75 C 35.460938 7.816406 35.347656 7.882812 35.230469 7.945312 C 34.941406 8.101562 34.640625 8.246094 34.347656 8.386719 L 34.21875 8.449219 C 33.878906 8.617188 33.535156 8.785156 33.195312 8.953125 L 33.160156 8.972656 C 33.074219 9.015625 32.984375 9.054688 32.890625 9.09375 C 32.613281 9.214844 32.324219 9.339844 32.144531 9.550781 C 32.082031 9.625 32.070312 9.734375 32.109375 9.820312 C 32.144531 9.894531 32.210938 9.9375 32.289062 9.9375 C 32.296875 9.9375 32.300781 9.9375 32.304688 9.933594 C 32.597656 9.914062 32.867188 9.761719 33.128906 9.609375 C 33.214844 9.5625 33.292969 9.515625 33.371094 9.476562 C 33.761719 9.273438 34.152344 9.070312 34.542969 8.867188 C 34.636719 8.816406 34.734375 8.765625 34.835938 8.714844 C 35.375 8.445312 35.988281 8.140625 36.273438 7.609375 C 36.296875 7.574219 36.296875 7.53125 36.273438 7.5 Z M 31.039062 9.890625 C 31.027344 9.890625 31.011719 9.890625 30.996094 9.894531 C 30.441406 9.984375 29.875 10.140625 29.332031 10.292969 C 29.054688 10.371094 28.765625 10.453125 28.488281 10.523438 L 28.179688 10.597656 C 27.457031 10.777344 26.714844 10.960938 25.992188 11.191406 C 25.9375 11.210938 25.917969 11.265625 25.921875 11.3125 C 25.929688 11.359375 25.964844 11.390625 26.007812 11.390625 C 26.011719 11.390625 26.015625 11.390625 26.023438 11.390625 C 26.890625 11.285156 27.734375 11.105469 28.527344 10.929688 C 28.757812 10.878906 28.996094 10.832031 29.226562 10.785156 C 29.859375 10.65625 30.511719 10.527344 31.113281 10.316406 C 31.246094 10.269531 31.277344 10.15625 31.261719 10.074219 C 31.246094 9.984375 31.171875 9.890625 31.039062 9.890625 Z M 23.324219 11.304688 C 23.226562 11.304688 23.125 11.316406 23.03125 11.328125 C 22.992188 11.332031 22.953125 11.335938 22.917969 11.339844 C 22.742188 11.355469 22.5625 11.386719 22.390625 11.414062 C 22.144531 11.453125 21.894531 11.492188 21.640625 11.503906 C 21.570312 11.503906 21.535156 11.558594 21.535156 11.605469 C 21.53125 11.660156 21.570312 11.71875 21.640625 11.726562 C 21.765625 11.738281 21.890625 11.742188 22.03125 11.742188 C 22.285156 11.742188 22.542969 11.722656 22.792969 11.703125 C 22.820312 11.699219 22.847656 11.699219 22.878906 11.699219 C 22.941406 11.699219 23.011719 11.703125 23.085938 11.707031 C 23.160156 11.710938 23.242188 11.71875 23.316406 11.71875 C 23.511719 11.71875 23.640625 11.6875 23.730469 11.617188 C 23.769531 11.585938 23.792969 11.53125 23.761719 11.488281 C 23.671875 11.363281 23.53125 11.304688 23.324219 11.304688 Z M 20.984375 11.460938 C 20.523438 11.316406 20.007812 11.292969 19.507812 11.269531 C 19.230469 11.257812 18.941406 11.242188 18.671875 11.210938 C 17.851562 11.105469 17.027344 10.9375 16.21875 10.71875 C 14.882812 10.347656 13.601562 9.785156 12.367188 9.242188 C 12.167969 9.152344 11.96875 9.066406 11.769531 8.976562 C 11.761719 8.976562 11.753906 8.972656 11.75 8.972656 C 11.726562 8.972656 11.703125 8.988281 11.695312 9.011719 C 11.691406 9.03125 11.695312 9.050781 11.710938 9.0625 C 12.789062 9.929688 14.21875 10.597656 16.082031 11.105469 C 16.847656 11.316406 17.644531 11.480469 18.449219 11.589844 C 18.542969 11.601562 18.636719 11.617188 18.738281 11.628906 C 19.164062 11.691406 19.648438 11.761719 20.105469 11.761719 C 20.445312 11.761719 20.730469 11.726562 20.976562 11.644531 C 21.023438 11.632812 21.054688 11.589844 21.054688 11.546875 C 21.054688 11.507812 21.027344 11.476562 20.984375 11.460938 Z M 4.640625 13.925781 C 4.679688 13.972656 4.660156 14.03125 4.605469 14.054688 C 4.472656 14.109375 4.300781 14.039062 4.171875 13.992188 C 4.023438 13.9375 3.878906 13.867188 3.738281 13.792969 C 3.636719 13.738281 3.710938 13.558594 3.816406 13.605469 C 3.964844 13.667969 4.113281 13.71875 4.265625 13.761719 C 4.390625 13.800781 4.550781 13.824219 4.640625 13.925781 Z M 4.515625 11.460938 C 4.433594 11.378906 4.554688 11.261719 4.640625 11.335938 C 4.929688 11.585938 5.226562 11.828125 5.53125 12.0625 C 5.777344 12.253906 6.078125 12.421875 6.257812 12.679688 C 6.289062 12.726562 6.238281 12.78125 6.1875 12.769531 C 5.875 12.695312 5.609375 12.449219 5.367188 12.25 C 5.066406 12.003906 4.785156 11.738281 4.515625 11.460938 Z M 5.304688 13.480469 C 4.539062 13.011719 3.753906 12.578125 2.957031 12.152344 C 2.878906 12.113281 2.933594 11.976562 3.019531 12.007812 C 3.835938 12.324219 4.621094 12.714844 5.371094 13.164062 C 5.410156 13.144531 5.460938 13.136719 5.496094 13.175781 C 5.503906 13.183594 5.511719 13.195312 5.519531 13.203125 C 5.5625 13.253906 5.574219 13.316406 5.542969 13.375 C 5.535156 13.390625 5.523438 13.410156 5.515625 13.425781 C 5.476562 13.5 5.375 13.523438 5.304688 13.480469 Z M 8.730469 25.335938 C 8.554688 25.441406 8.386719 25.558594 8.222656 25.675781 C 8.070312 25.78125 7.921875 25.921875 7.746094 25.972656 C 7.664062 26 7.609375 25.910156 7.644531 25.839844 C 7.722656 25.675781 7.898438 25.554688 8.050781 25.453125 C 8.230469 25.332031 8.417969 25.230469 8.613281 25.140625 C 8.746094 25.078125 8.855469 25.257812 8.730469 25.335938 Z M 11.628906 25.289062 C 11.464844 25.707031 11.34375 26.257812 11.070312 26.617188 C 11.027344 26.671875 10.917969 26.664062 10.925781 26.578125 C 10.960938 26.117188 11.253906 25.628906 11.445312 25.214844 C 11.496094 25.109375 11.667969 25.1875 11.628906 25.289062 Z M 10.597656 24.984375 C 10.386719 25.480469 9.992188 25.929688 9.652344 26.347656 C 9.316406 26.757812 8.953125 27.257812 8.488281 27.523438 C 8.398438 27.574219 8.289062 27.472656 8.34375 27.382812 C 8.617188 26.945312 9.050781 26.589844 9.382812 26.199219 C 9.75 25.765625 10.042969 25.265625 10.429688 24.855469 C 10.523438 24.757812 10.644531 24.878906 10.597656 24.984375 Z M 42.171875 19.6875 C 41.746094 19.816406 41.160156 19.496094 40.800781 19.289062 C 40.648438 19.199219 40.785156 18.96875 40.941406 19.050781 C 41.160156 19.164062 41.382812 19.25 41.617188 19.324219 C 41.808594 19.382812 42.03125 19.410156 42.195312 19.523438 C 42.257812 19.566406 42.25 19.660156 42.171875 19.6875 Z M 39.8125 19.671875 C 40.171875 19.734375 40.769531 19.832031 40.976562 20.171875 C 41.003906 20.21875 40.96875 20.28125 40.914062 20.277344 C 40.722656 20.277344 40.542969 20.167969 40.367188 20.097656 C 40.164062 20.015625 39.960938 19.949219 39.75 19.898438 C 39.597656 19.863281 39.664062 19.648438 39.8125 19.671875 Z M 41.03125 21.703125 C 41.117188 21.769531 41.070312 21.90625 40.953125 21.882812 C 40.042969 21.675781 39.214844 20.894531 38.613281 20.21875 C 38.53125 20.125 38.660156 19.992188 38.753906 20.082031 C 39.105469 20.414062 39.484375 20.722656 39.890625 20.992188 C 40.261719 21.242188 40.675781 21.433594 41.03125 21.703125 Z M 42.8125 5.113281 C 42.640625 5.351562 42.464844 5.582031 42.273438 5.804688 C 42.097656 6.015625 41.894531 6.28125 41.640625 6.402344 C 41.570312 6.433594 41.496094 6.367188 41.535156 6.296875 C 41.65625 6.058594 41.898438 5.867188 42.082031 5.675781 C 42.289062 5.457031 42.484375 5.238281 42.675781 5.007812 C 42.738281 4.929688 42.871094 5.035156 42.8125 5.113281 Z M 31.414062 3.050781 C 31.375 2.894531 31.414062 2.742188 31.441406 2.585938 C 31.476562 2.382812 31.507812 2.179688 31.523438 1.976562 C 31.53125 1.847656 31.710938 1.847656 31.722656 1.976562 C 31.753906 2.316406 31.792969 2.816406 31.53125 3.082031 C 31.496094 3.117188 31.425781 3.101562 31.414062 3.050781 Z M 35.132812 4.234375 C 35.105469 4.027344 35.363281 3.835938 35.484375 3.695312 C 35.65625 3.496094 35.816406 3.289062 35.988281 3.09375 C 36.089844 2.980469 36.253906 3.128906 36.191406 3.25 C 36.066406 3.488281 35.917969 3.699219 35.75 3.90625 C 35.628906 4.058594 35.453125 4.347656 35.230469 4.332031 C 35.171875 4.324219 35.140625 4.289062 35.132812 4.234375 Z M 34.289062 3.417969 C 34.394531 3.242188 34.515625 3.078125 34.644531 2.921875 C 34.75 2.792969 34.96875 2.964844 34.875 3.097656 C 34.765625 3.253906 34.667969 3.417969 34.574219 3.582031 C 34.496094 3.71875 34.445312 3.933594 34.292969 4 C 34.21875 4.027344 34.148438 4.007812 34.121094 3.929688 C 34.058594 3.757812 34.207031 3.5625 34.289062 3.417969 Z M 33.054688 3.945312 C 33.070312 3.523438 33.316406 3.089844 33.492188 2.707031 C 33.6875 2.277344 33.878906 1.828125 34.167969 1.457031 C 34.253906 1.34375 34.4375 1.464844 34.398438 1.589844 C 34.265625 2.007812 34.042969 2.398438 33.871094 2.804688 C 33.703125 3.195312 33.597656 3.683594 33.339844 4.023438 C 33.253906 4.128906 33.050781 4.109375 33.054688 3.945312 Z M 10.746094 5.65625 C 10.636719 5.46875 10.914062 5.3125 11.035156 5.488281 C 11.152344 5.652344 11.265625 5.824219 11.359375 6 C 11.417969 6.117188 11.542969 6.339844 11.382812 6.433594 C 11.21875 6.527344 11.097656 6.296875 11.039062 6.1875 C 10.941406 6.007812 10.847656 5.832031 10.746094 5.65625 Z M 8.710938 4.808594 C 8.640625 4.691406 8.8125 4.601562 8.890625 4.703125 C 9.488281 5.484375 10.070312 6.277344 10.632812 7.082031 C 10.824219 7.238281 10.503906 7.585938 10.328125 7.320312 C 9.769531 6.496094 9.234375 5.65625 8.710938 4.808594 Z M 8.070312 7.351562 C 7.984375 7.238281 8.152344 7.089844 8.265625 7.160156 C 8.609375 7.378906 8.917969 7.691406 9.21875 7.96875 C 9.390625 8.128906 9.132812 8.382812 8.960938 8.226562 C 8.65625 7.953125 8.320312 7.675781 8.070312 7.351562 Z M 34.84375 17.015625 C 34.570312 17.347656 34.132812 17.722656 33.675781 17.742188 C 33.601562 17.742188 33.578125 17.640625 33.640625 17.601562 C 33.820312 17.5 34.027344 17.4375 34.207031 17.332031 C 34.40625 17.21875 34.578125 17.070312 34.734375 16.902344 C 34.804688 16.824219 34.90625 16.9375 34.84375 17.015625 Z M 33.671875 16.792969 C 33.253906 16.949219 31.667969 17.171875 31.921875 17.625 C 32.097656 17.90625 32.390625 18.097656 32.722656 18.128906 C 33.796875 18.230469 35.09375 17.800781 35.210938 16.949219 C 35.328125 16.085938 34.082031 16.644531 33.671875 16.792969 Z M 7.972656 19.476562 C 7.832031 19.4375 7.738281 19.304688 7.628906 19.21875 C 7.429688 19.054688 7.214844 18.996094 6.960938 18.988281 C 6.628906 18.980469 6.300781 19.058594 5.980469 18.941406 C 5.824219 18.886719 5.585938 18.757812 5.578125 18.566406 C 5.574219 18.46875 5.636719 18.390625 5.71875 18.324219 C 5.578125 18.25 5.445312 18.09375 5.402344 17.980469 C 5.304688 17.71875 5.410156 17.457031 5.628906 17.304688 C 5.671875 17.214844 5.734375 17.144531 5.8125 17.097656 C 5.8125 16.824219 5.960938 16.609375 6.1875 16.457031 C 6.34375 16.351562 6.59375 16.238281 6.828125 16.191406 C 6.855469 16.179688 6.886719 16.171875 6.921875 16.167969 C 6.9375 16.164062 6.949219 16.167969 6.964844 16.171875 C 7.035156 16.164062 7.101562 16.167969 7.164062 16.179688 C 7.195312 16.1875 7.210938 16.234375 7.183594 16.257812 C 7.117188 16.320312 7.03125 16.355469 6.941406 16.382812 C 6.8125 16.585938 6.644531 16.753906 6.578125 16.988281 C 6.585938 17.207031 6.609375 17.414062 6.699219 17.628906 C 6.777344 17.804688 6.921875 17.957031 6.992188 18.132812 C 7.25 18.253906 7.523438 18.335938 7.757812 18.507812 C 7.816406 18.550781 7.871094 18.59375 7.925781 18.644531 C 8.054688 18.734375 8.175781 18.835938 8.257812 18.949219 C 8.300781 19.011719 8.324219 19.085938 8.328125 19.15625 C 8.460938 19.382812 8.566406 19.628906 8.65625 19.878906 C 8.6875 19.960938 8.554688 20.011719 8.515625 19.9375 C 8.421875 19.777344 8.328125 19.613281 8.21875 19.457031 C 8.210938 19.460938 8.203125 19.464844 8.191406 19.460938 C 8.136719 19.492188 8.0625 19.503906 7.972656 19.476562 Z M 33.769531 18.773438 C 33.875 18.945312 33.761719 19.144531 33.605469 19.230469 C 33.414062 19.332031 33.164062 19.328125 32.957031 19.289062 C 32.820312 19.261719 32.628906 19.167969 32.667969 18.992188 C 32.671875 18.964844 32.6875 18.941406 32.707031 18.921875 C 32.703125 18.890625 32.707031 18.863281 32.714844 18.832031 C 32.777344 18.609375 33.015625 18.625 33.199219 18.625 C 33.382812 18.625 33.652344 18.589844 33.769531 18.773438 Z M 38.796875 14.957031 C 38.585938 15.183594 38.175781 15.6875 37.828125 15.636719 C 37.808594 15.632812 37.796875 15.609375 37.800781 15.589844 C 37.871094 15.359375 38.199219 15.1875 38.375 15.027344 C 38.558594 14.863281 39.140625 14.449219 38.996094 14.160156 C 38.960938 14.089844 39.054688 14.039062 39.097656 14.101562 C 39.308594 14.425781 39.011719 14.726562 38.796875 14.957031 Z M 38.613281 12.925781 C 38.667969 12.828125 38.820312 12.632812 38.75 12.515625 C 38.714844 12.457031 38.773438 12.394531 38.832031 12.40625 C 39.246094 12.496094 38.753906 13.28125 38.53125 13.355469 C 38.496094 13.367188 38.457031 13.335938 38.457031 13.296875 C 38.457031 13.160156 38.542969 13.039062 38.613281 12.925781 Z M 39.757812 13.855469 C 39.671875 13.746094 39.539062 13.699219 39.410156 13.664062 C 39.332031 13.640625 39.226562 13.652344 39.15625 13.613281 C 38.875 13.460938 39.035156 13.257812 39.167969 13.109375 C 39.335938 12.914062 39.675781 12.578125 39.519531 12.292969 C 39.34375 11.972656 38.734375 12.046875 38.449219 12.066406 C 38.125 12.085938 37.753906 12.03125 37.445312 12.121094 C 37.445312 12.125 37.445312 12.125 37.445312 12.125 C 37.441406 12.683594 37.652344 13.175781 37.667969 13.734375 C 37.671875 13.753906 37.675781 14.710938 37.523438 15.007812 C 37.484375 15.085938 37.4375 15.160156 37.382812 15.230469 C 37.148438 15.53125 36.796875 15.765625 36.429688 15.957031 C 36.199219 16.074219 35.964844 16.171875 35.746094 16.257812 C 35.65625 16.292969 35.625 16.378906 35.636719 16.453125 C 35.640625 16.476562 35.648438 16.5 35.664062 16.519531 C 35.660156 16.546875 35.671875 16.570312 35.699219 16.585938 C 36.527344 17.019531 37.621094 16.152344 38.257812 15.6875 C 38.6875 15.375 39.121094 15.042969 39.511719 14.683594 C 39.738281 14.476562 39.996094 14.152344 39.757812 13.855469 Z M 27.15625 20.125 C 26.765625 20.222656 26.421875 20.46875 26.097656 20.699219 C 25.820312 20.894531 25.546875 21.175781 25.210938 21.253906 C 25.136719 21.273438 25.058594 21.191406 25.105469 21.125 C 25.328125 20.8125 25.722656 20.574219 26.042969 20.371094 C 26.386719 20.152344 26.738281 20.039062 27.140625 19.988281 C 27.21875 19.976562 27.234375 20.105469 27.15625 20.125 Z M 28.394531 19.601562 C 28.785156 19.375 29.25 19.402344 29.65625 19.226562 C 30.097656 19.035156 30.480469 18.59375 30.835938 18.277344 C 30.933594 18.191406 31.066406 18.320312 30.976562 18.417969 C 30.640625 18.792969 30.316406 19.25 29.867188 19.5 C 29.472656 19.71875 28.890625 19.847656 28.445312 19.792969 C 28.351562 19.78125 28.296875 19.65625 28.394531 19.601562 Z M 17.785156 21.777344 C 17.265625 22.035156 16.609375 21.667969 16.273438 21.273438 C 16.203125 21.191406 16.316406 21.074219 16.394531 21.152344 C 16.59375 21.347656 16.824219 21.476562 17.089844 21.558594 C 17.316406 21.621094 17.546875 21.617188 17.769531 21.660156 C 17.824219 21.671875 17.832031 21.753906 17.785156 21.777344 Z M 14.820312 20.769531 C 14.722656 20.738281 14.644531 20.667969 14.5625 20.609375 C 14.46875 20.542969 14.367188 20.484375 14.257812 20.441406 C 14.175781 20.410156 14.210938 20.277344 14.296875 20.308594 C 14.496094 20.378906 14.796875 20.5 14.871094 20.71875 C 14.878906 20.746094 14.847656 20.777344 14.820312 20.769531 Z M 11.003906 20.277344 C 10.636719 20.28125 10.25 20.0625 10.023438 19.777344 C 9.71875 19.394531 9.914062 18.789062 9.574219 18.464844 C 9.515625 18.402344 9.605469 18.316406 9.667969 18.371094 C 9.980469 18.636719 9.945312 18.980469 10.058594 19.339844 C 10.214844 19.820312 10.707031 19.890625 11.042969 20.1875 C 11.078125 20.21875 11.050781 20.277344 11.003906 20.277344 Z M 9.109375 18.035156 C 8.734375 17.964844 8.292969 17.585938 8.050781 17.300781 C 7.90625 17.136719 7.808594 16.746094 8.113281 16.691406 C 8.175781 16.679688 8.214844 16.746094 8.175781 16.792969 C 7.855469 17.179688 8.96875 17.679688 9.171875 17.921875 C 9.21875 17.972656 9.175781 18.046875 9.109375 18.035156 Z M 25.46875 14.640625 C 25.253906 14.882812 24.894531 14.8125 24.640625 15.019531 C 24.421875 15.195312 24.285156 15.449219 24.101562 15.65625 C 23.722656 16.082031 23.238281 16.230469 22.699219 16.019531 C 22.613281 15.984375 22.644531 15.855469 22.742188 15.875 C 23.535156 16.050781 23.835938 15.453125 24.289062 14.976562 C 24.582031 14.664062 24.992188 14.507812 25.417969 14.519531 C 25.480469 14.519531 25.507812 14.59375 25.46875 14.640625 Z M 18.039062 12.742188 C 17.835938 12.808594 17.617188 12.734375 17.410156 12.695312 C 17.144531 12.644531 16.886719 12.582031 16.625 12.503906 C 16.5625 12.488281 16.574219 12.382812 16.644531 12.386719 C 16.902344 12.40625 17.15625 12.433594 17.414062 12.476562 C 17.636719 12.515625 17.878906 12.515625 18.058594 12.660156 C 18.089844 12.683594 18.070312 12.734375 18.039062 12.742188 Z M 15.972656 12.472656 C 15.46875 12.496094 14.894531 12.316406 14.40625 12.175781 C 13.882812 12.027344 13.4375 11.796875 12.972656 11.511719 C 12.917969 11.480469 12.964844 11.40625 13.019531 11.433594 C 13.523438 11.664062 14.089844 11.8125 14.621094 11.960938 C 15.074219 12.085938 15.585938 12.132812 16.011719 12.332031 C 16.085938 12.363281 16.042969 12.46875 15.972656 12.472656 Z M 15.578125 15.472656 C 15.519531 15.558594 15.386719 15.484375 15.4375 15.394531 C 15.589844 15.140625 15.691406 14.835938 15.878906 14.609375 C 15.90625 14.578125 15.960938 14.605469 15.960938 14.644531 C 15.945312 14.945312 15.746094 15.234375 15.578125 15.472656 Z M 15.28125 15.960938 C 15.09375 16.328125 14.492188 16.164062 14.191406 16.039062 C 13.742188 15.855469 13.472656 15.507812 13.367188 15.039062 C 13.351562 14.964844 13.457031 14.9375 13.480469 15.007812 C 13.710938 15.679688 14.535156 16.019531 15.195312 15.851562 C 15.261719 15.835938 15.3125 15.90625 15.28125 15.960938 Z M 10.292969 13.382812 C 10.226562 13.589844 9.894531 13.503906 9.960938 13.292969 C 10.128906 12.746094 10.289062 12.191406 10.4375 11.636719 C 10.460938 11.558594 10.585938 11.574219 10.582031 11.65625 C 10.566406 12.253906 10.472656 12.808594 10.292969 13.382812 Z M 29.085938 13.410156 C 29.785156 13.640625 30.324219 14.296875 31.097656 14.308594 C 31.726562 14.3125 32.078125 13.632812 32.671875 13.671875 C 32.726562 13.675781 32.75 13.730469 32.714844 13.765625 C 32.507812 13.980469 32.183594 14.148438 31.921875 14.3125 C 31.671875 14.46875 31.40625 14.578125 31.09375 14.574219 C 30.253906 14.558594 29.703125 13.875 29.027344 13.539062 C 28.949219 13.5 29.003906 13.382812 29.085938 13.410156 Z M 36.0625 11.871094 C 36.125 11.660156 36.214844 11.460938 36.289062 11.257812 C 36.351562 11.089844 36.386719 10.890625 36.507812 10.753906 C 36.546875 10.710938 36.632812 10.730469 36.644531 10.789062 C 36.675781 10.984375 36.585938 11.179688 36.515625 11.359375 C 36.4375 11.5625 36.347656 11.761719 36.21875 11.9375 C 36.164062 12.011719 36.035156 11.96875 36.0625 11.871094 Z M 27.023438 13.664062 L 27.027344 13.664062 C 28.492188 13.386719 29.507812 15.039062 31.160156 14.925781 C 31.4375 14.90625 31.671875 14.800781 31.878906 14.640625 C 32.214844 14.382812 32.710938 14.527344 32.863281 14.917969 C 32.917969 15.054688 32.960938 15.195312 32.988281 15.347656 C 33.042969 15.628906 32.964844 16.132812 33.234375 16.335938 C 33.25 16.347656 33.269531 16.359375 33.285156 16.367188 C 33.289062 16.375 33.289062 16.382812 33.292969 16.390625 C 33.320312 16.460938 33.402344 16.46875 33.441406 16.410156 C 33.578125 16.414062 33.703125 16.332031 33.765625 16.1875 C 33.917969 15.835938 33.753906 15.273438 33.707031 14.910156 C 33.582031 13.875 33.191406 13.136719 33.554688 12.148438 C 33.558594 12.148438 33.558594 12.148438 33.558594 12.148438 C 33.828125 11.851562 34.261719 11.769531 34.621094 11.945312 C 35.1875 12.222656 35.71875 12.617188 36.199219 12.5625 C 36.875 12.488281 37.042969 9.847656 37.042969 9.847656 L 36.929688 7.652344 C 36.929688 7.652344 35.109375 11.335938 25.257812 12.230469 C 15.410156 13.125 10.277344 9.339844 10.277344 9.339844 L 9.734375 13.949219 C 9.734375 13.949219 9.773438 14.691406 10.710938 13.664062 C 11.652344 12.636719 12.289062 13.417969 12.554688 14.210938 C 12.816406 15 12.890625 16.648438 14.621094 16.800781 C 16.351562 16.949219 16.351562 13.6875 17.214844 13.839844 C 18.078125 13.988281 17.628906 15.375 18.605469 15.9375 C 19.582031 16.5 19.246094 14.214844 20.183594 14.136719 C 21.125 14.0625 20.597656 16.699219 23.003906 16.804688 C 24.03125 16.851562 24.648438 16.332031 25.132812 15.703125 C 25.148438 15.703125 25.164062 15.695312 25.175781 15.679688 C 25.195312 15.648438 25.242188 15.566406 25.296875 15.480469 C 25.332031 15.425781 25.371094 15.375 25.40625 15.324219 C 25.457031 15.253906 25.507812 15.207031 25.550781 15.203125 C 25.808594 15.175781 25.792969 15.671875 25.8125 15.816406 C 25.875 16.222656 25.941406 16.628906 25.996094 17.035156 C 26.105469 17.816406 26.199219 18.601562 26.277344 19.386719 C 24.105469 20.082031 21.949219 20.644531 20.425781 20.625 C 16.859375 20.578125 13.066406 19.597656 12.222656 19.027344 C 11.375 18.457031 9.410156 17.179688 9.292969 16.703125 C 9.222656 16.390625 9.386719 15.871094 9.519531 15.371094 C 9.480469 15.382812 9.445312 15.40625 9.421875 15.445312 C 8.96875 15.699219 8.519531 15.953125 8.074219 16.207031 C 7.78125 16.375 7.449219 16.558594 7.285156 16.867188 C 6.910156 17.558594 7.71875 17.867188 8.203125 18.109375 C 8.644531 18.332031 9.078125 18.617188 9.203125 19.125 C 9.289062 19.480469 9.289062 19.820312 9.542969 20.113281 C 10.042969 20.691406 10.882812 20.691406 11.578125 20.601562 C 12.078125 20.539062 12.574219 20.429688 13.082031 20.527344 C 13.53125 20.609375 13.949219 20.804688 14.34375 21.023438 C 15.042969 21.414062 15.691406 21.898438 16.441406 22.191406 C 18.261719 22.898438 20.023438 21.800781 21.855469 21.789062 C 22.84375 21.78125 23.796875 22.074219 24.769531 21.78125 C 25.617188 21.53125 26.351562 21.015625 27.148438 20.648438 C 28.109375 20.207031 29.179688 20.167969 30.160156 19.789062 C 30.800781 19.539062 31.515625 19.101562 31.769531 18.425781 C 31.925781 18.011719 31.71875 17.75 31.40625 17.617188 C 30.027344 18.09375 28.328125 18.71875 26.621094 19.277344 C 26.683594 18.355469 26.597656 17.433594 26.574219 16.507812 C 26.5625 15.988281 26.566406 15.46875 26.636719 14.953125 C 26.675781 14.632812 26.769531 14.320312 26.753906 14.003906 C 26.75 13.839844 26.859375 13.695312 27.023438 13.664062 " fill-opacity="1" fill-rule="nonzero"/></g><path fill="#b64738" d="M 22.792969 11.683594 C 23.070312 11.664062 23.496094 11.773438 23.71875 11.601562 C 23.75 11.578125 23.773438 11.535156 23.746094 11.496094 C 23.566406 11.246094 23.199219 11.328125 22.921875 11.359375 C 22.492188 11.402344 22.070312 11.503906 21.640625 11.519531 C 21.519531 11.523438 21.523438 11.695312 21.640625 11.707031 C 22.03125 11.742188 22.402344 11.714844 22.792969 11.683594 Z M 20.980469 11.480469 C 20.261719 11.253906 19.417969 11.324219 18.671875 11.226562 C 17.839844 11.121094 17.019531 10.957031 16.214844 10.734375 C 14.664062 10.308594 13.21875 9.628906 11.761719 8.996094 C 11.726562 8.980469 11.695312 9.027344 11.722656 9.046875 C 12.964844 10.046875 14.511719 10.65625 16.085938 11.089844 C 16.859375 11.300781 17.652344 11.460938 18.449219 11.570312 C 19.226562 11.675781 20.210938 11.867188 20.972656 11.628906 C 21.046875 11.605469 21.066406 11.507812 20.980469 11.480469 Z M 19.542969 5.929688 C 20.988281 5.8125 22.390625 5.441406 23.824219 5.277344 C 24.515625 5.199219 25.207031 5.148438 25.902344 5.175781 C 26.613281 5.203125 27.292969 5.371094 27.996094 5.460938 C 28.105469 5.476562 28.140625 5.308594 28.050781 5.261719 C 27.46875 4.949219 26.746094 4.863281 26.097656 4.828125 C 25.390625 4.789062 24.675781 4.828125 23.972656 4.925781 C 22.476562 5.125 21.003906 5.480469 19.523438 5.765625 C 19.429688 5.78125 19.449219 5.9375 19.542969 5.929688 Z M 28.492188 10.539062 C 27.652344 10.75 26.820312 10.945312 25.996094 11.210938 C 25.914062 11.238281 25.921875 11.382812 26.019531 11.371094 C 26.863281 11.269531 27.691406 11.097656 28.523438 10.914062 C 29.371094 10.726562 30.285156 10.585938 31.105469 10.296875 C 31.351562 10.210938 31.253906 9.871094 31 9.910156 C 30.160156 10.046875 29.316406 10.335938 28.492188 10.539062 Z M 29.308594 5.34375 C 29.667969 5.519531 30.164062 5.429688 30.558594 5.472656 C 31.042969 5.523438 31.523438 5.621094 31.992188 5.753906 C 32.945312 6.019531 33.808594 6.480469 34.699219 6.898438 C 34.832031 6.957031 34.941406 6.78125 34.816406 6.699219 C 33.964844 6.164062 33.058594 5.679688 32.09375 5.390625 C 31.636719 5.253906 31.164062 5.160156 30.691406 5.101562 C 30.277344 5.050781 29.6875 4.914062 29.308594 5.121094 C 29.230469 5.167969 29.222656 5.304688 29.308594 5.34375 Z M 35.242188 7.960938 C 34.90625 8.140625 34.566406 8.300781 34.226562 8.46875 C 33.875 8.640625 33.519531 8.8125 33.167969 8.988281 C 32.839844 9.152344 32.394531 9.28125 32.15625 9.5625 C 32.050781 9.6875 32.109375 9.929688 32.304688 9.917969 C 32.679688 9.890625 33.03125 9.628906 33.363281 9.457031 C 33.753906 9.257812 34.144531 9.054688 34.53125 8.851562 C 35.128906 8.535156 35.921875 8.222656 36.257812 7.601562 C 36.308594 7.511719 36.210938 7.429688 36.125 7.46875 C 35.816406 7.605469 35.539062 7.800781 35.242188 7.960938 Z M 10.277344 9.339844 C 10.3125 8.84375 10.722656 8.550781 11.066406 8.140625 C 11.410156 7.730469 12.09375 7.21875 12.09375 7.21875 C 12.09375 7.21875 14.484375 6.191406 15.167969 5.941406 C 15.855469 5.691406 17.5 5.417969 18.988281 5.1875 C 20.472656 4.960938 22.4375 4.640625 23.96875 4.414062 C 25.5 4.1875 31.234375 4.628906 32.097656 4.8125 C 32.960938 4.996094 36.152344 6.351562 36.65625 7.105469 C 36.722656 7.207031 36.773438 7.300781 36.8125 7.390625 C 36.859375 7.496094 36.890625 7.597656 36.90625 7.695312 C 36.671875 8.101562 34.492188 11.390625 25.257812 12.230469 C 15.410156 13.125 10.277344 9.339844 10.277344 9.339844 Z M 20.410156 24.457031 C 26.101562 24.003906 32.03125 22.253906 36.535156 19.839844 C 33.164062 22.3125 27.289062 24.242188 21.71875 24.644531 C 19.28125 24.820312 17.167969 24.800781 15.375 24.632812 C 16.921875 24.652344 18.597656 24.597656 20.410156 24.457031 " fill-opacity="1" fill-rule="nonzero"/></svg>