<svg xmlns="http://www.w3.org/2000/svg" xmlns:xlink="http://www.w3.org/1999/xlink" width="60" zoomAndPan="magnify" viewBox="0 0 45 30.000001" height="40" preserveAspectRatio="xMidYMid meet" version="1.0"><defs><clipPath id="8594a9bc65"><path d="M 17 2 L 28 2 L 28 29.03125 L 17 29.03125 Z M 17 2 " clip-rule="nonzero"/></clipPath><clipPath id="95a4a5c80f"><path d="M 17 2 L 22 2 L 22 29.03125 L 17 29.03125 Z M 17 2 " clip-rule="nonzero"/></clipPath><clipPath id="38d0f4117e"><path d="M 5.644531 12 L 15 12 L 15 28 L 5.644531 28 Z M 5.644531 12 " clip-rule="nonzero"/></clipPath><clipPath id="665325300c"><path d="M 5.644531 26 L 15 26 L 15 28 L 5.644531 28 Z M 5.644531 26 " clip-rule="nonzero"/></clipPath><clipPath id="907c6fc283"><path d="M 29 3 L 39.03125 3 L 39.03125 28 L 29 28 Z M 29 3 " clip-rule="nonzero"/></clipPath><clipPath id="efc6743f1d"><path d="M 34 3 L 39.03125 3 L 39.03125 28 L 34 28 Z M 34 3 " clip-rule="nonzero"/></clipPath><clipPath id="edf22e4f03"><path d="M 29 15 L 39.03125 15 L 39.03125 25 L 29 25 Z M 29 15 " clip-rule="nonzero"/></clipPath><clipPath id="e55ace59f7"><path d="M 37 15 L 39.03125 15 L 39.03125 25 L 37 25 Z M 37 15 " clip-rule="nonzero"/></clipPath><clipPath id="c78aa030fb"><path d="M 5.644531 15 L 15 15 L 15 27 L 5.644531 27 Z M 5.644531 15 " clip-rule="nonzero"/></clipPath><clipPath id="4489e3dfd4"><path d="M 5.644531 15 L 7 15 L 7 27 L 5.644531 27 Z M 5.644531 15 " clip-rule="nonzero"/></clipPath></defs><g clip-path="url(#8594a9bc65)"><path fill="#2b1413" d="M 24.0625 4.636719 L 24.0625 2.902344 L 20.613281 2.902344 L 20.613281 4.636719 C 20.613281 5.386719 20.320312 6.105469 19.792969 6.632812 L 17.902344 8.542969 C 17.429688 9.019531 17.164062 9.671875 17.164062 10.347656 L 17.164062 17.941406 C 17.164062 18.742188 17.347656 19.535156 17.703125 20.253906 C 18.078125 21.015625 18.023438 21.921875 17.554688 22.628906 C 17.300781 23.019531 17.164062 23.476562 17.164062 23.945312 L 17.164062 25.609375 C 17.164062 26.6875 17.585938 27.71875 18.339844 28.476562 C 18.691406 28.832031 19.167969 29.03125 19.664062 29.03125 C 19.902344 29.03125 20.132812 28.9375 20.300781 28.765625 L 20.6875 28.378906 C 20.933594 28.128906 21.351562 28.195312 21.507812 28.511719 C 21.664062 28.832031 21.988281 29.03125 22.339844 29.03125 C 22.691406 29.03125 23.015625 28.832031 23.171875 28.511719 C 23.328125 28.195312 23.746094 28.128906 23.992188 28.378906 L 24.375 28.765625 C 24.542969 28.9375 24.773438 29.03125 25.011719 29.03125 C 25.511719 29.03125 25.988281 28.832031 26.339844 28.476562 C 27.09375 27.71875 27.515625 26.6875 27.515625 25.609375 L 27.515625 23.945312 C 27.515625 23.476562 27.378906 23.019531 27.121094 22.628906 C 26.652344 21.921875 26.597656 21.015625 26.972656 20.253906 C 27.332031 19.535156 27.515625 18.742188 27.515625 17.941406 L 27.515625 10.347656 C 27.515625 9.671875 27.25 9.019531 26.773438 8.542969 L 24.882812 6.632812 C 24.359375 6.105469 24.0625 5.386719 24.0625 4.636719 " fill-opacity="1" fill-rule="nonzero"/></g><g clip-path="url(#95a4a5c80f)"><path fill="#83321c" d="M 19.488281 28.476562 C 18.734375 27.71875 18.3125 26.6875 18.3125 25.609375 L 18.3125 23.945312 C 18.3125 23.476562 18.449219 23.019531 18.707031 22.628906 C 19.175781 21.921875 19.230469 21.015625 18.851562 20.253906 C 18.496094 19.535156 18.3125 18.742188 18.3125 17.941406 L 18.3125 10.347656 C 18.3125 9.671875 18.578125 9.019531 19.054688 8.542969 L 20.945312 6.632812 C 21.46875 6.105469 21.761719 5.386719 21.761719 4.636719 L 21.761719 2.902344 L 20.613281 2.902344 L 20.613281 4.636719 C 20.613281 5.386719 20.320312 6.105469 19.792969 6.632812 L 17.902344 8.542969 C 17.429688 9.019531 17.164062 9.671875 17.164062 10.347656 L 17.164062 17.941406 C 17.164062 18.742188 17.347656 19.535156 17.703125 20.253906 C 18.078125 21.015625 18.023438 21.921875 17.554688 22.628906 C 17.300781 23.019531 17.164062 23.476562 17.164062 23.945312 L 17.164062 25.609375 C 17.164062 26.6875 17.585938 27.71875 18.339844 28.476562 C 18.691406 28.832031 19.167969 29.03125 19.664062 29.03125 C 19.828125 29.03125 19.988281 28.984375 20.128906 28.902344 C 19.890625 28.804688 19.671875 28.664062 19.488281 28.476562 " fill-opacity="1" fill-rule="nonzero"/></g><path fill="#dd2731" d="M 24.640625 3.484375 L 20.039062 3.484375 L 20.039062 0 L 24.640625 0 L 24.640625 3.484375 " fill-opacity="1" fill-rule="nonzero"/><path fill="#ba2428" d="M 24.640625 3.484375 L 23.488281 3.484375 L 23.488281 0 L 24.640625 0 L 24.640625 3.484375 " fill-opacity="1" fill-rule="nonzero"/><path fill="#dd2731" d="M 27.515625 17.417969 L 17.164062 17.417969 L 17.164062 10.453125 L 27.515625 10.453125 L 27.515625 17.417969 " fill-opacity="1" fill-rule="nonzero"/><path fill="#ba2428" d="M 27.515625 17.417969 L 22.339844 17.417969 L 22.339844 10.453125 L 27.515625 10.453125 L 27.515625 17.417969 " fill-opacity="1" fill-rule="nonzero"/><g clip-path="url(#38d0f4117e)"><path fill="#d5e8f1" d="M 13.710938 27.871094 L 6.808594 27.871094 L 5.660156 26.710938 L 5.660156 15.097656 L 6.808594 12.773438 L 13.710938 12.773438 L 14.863281 15.097656 L 14.863281 26.710938 L 13.710938 27.871094 " fill-opacity="1" fill-rule="nonzero"/></g><g clip-path="url(#665325300c)"><path fill="#abc0d2" d="M 13.710938 27.871094 L 6.808594 27.871094 L 5.660156 26.710938 L 14.863281 26.710938 L 13.710938 27.871094 " fill-opacity="1" fill-rule="nonzero"/></g><path fill="#abc0d2" d="M 13.710938 12.773438 L 11.410156 12.773438 L 12.5625 15.097656 L 12.5625 26.710938 L 11.410156 27.871094 L 13.710938 27.871094 L 14.863281 26.710938 L 14.863281 15.097656 L 13.710938 12.773438 " fill-opacity="1" fill-rule="nonzero"/><path fill="#8aa1b1" d="M 13.710938 27.871094 L 11.410156 27.871094 L 12.5625 26.710938 L 14.863281 26.710938 L 13.710938 27.871094 " fill-opacity="1" fill-rule="nonzero"/><g clip-path="url(#907c6fc283)"><path fill="#75ab2c" d="M 36.683594 10.503906 L 36.085938 3.207031 L 32.695312 3.207031 L 32.152344 10.503906 C 32.128906 10.847656 32.003906 11.175781 31.789062 11.445312 L 30.183594 13.472656 C 29.945312 13.773438 29.816406 14.144531 29.816406 14.527344 L 29.816406 26.1875 C 29.816406 27.117188 30.5625 27.871094 31.484375 27.871094 L 37.351562 27.871094 C 38.273438 27.871094 39.019531 27.117188 39.019531 26.1875 L 39.019531 14.527344 C 39.019531 14.144531 38.890625 13.773438 38.652344 13.472656 L 37.046875 11.445312 C 36.832031 11.175781 36.707031 10.847656 36.683594 10.503906 " fill-opacity="1" fill-rule="nonzero"/></g><g clip-path="url(#efc6743f1d)"><path fill="#355624" d="M 38.652344 13.472656 L 37.046875 11.445312 C 36.832031 11.175781 36.707031 10.847656 36.683594 10.503906 L 36.085938 3.207031 L 34.9375 3.207031 L 35.53125 10.503906 C 35.554688 10.847656 35.683594 11.175781 35.894531 11.445312 L 37.503906 13.472656 C 37.738281 13.773438 37.867188 14.144531 37.867188 14.527344 L 37.867188 26.1875 C 37.867188 27.117188 37.121094 27.871094 36.199219 27.871094 L 37.351562 27.871094 C 38.273438 27.871094 39.019531 27.117188 39.019531 26.1875 L 39.019531 14.527344 C 39.019531 14.144531 38.890625 13.773438 38.652344 13.472656 " fill-opacity="1" fill-rule="nonzero"/></g><path fill="#cbe36a" d="M 31.253906 26.1875 L 31.253906 14.527344 C 31.253906 14.144531 31.382812 13.773438 31.621094 13.472656 L 33.226562 11.445312 C 33.441406 11.175781 33.566406 10.847656 33.589844 10.503906 L 34.132812 3.207031 L 32.695312 3.207031 L 32.152344 10.503906 C 32.128906 10.847656 32.003906 11.175781 31.789062 11.445312 L 30.183594 13.472656 C 29.945312 13.773438 29.816406 14.144531 29.816406 14.527344 L 29.816406 26.1875 C 29.816406 27.117188 30.5625 27.871094 31.484375 27.871094 L 32.921875 27.871094 C 32 27.871094 31.253906 27.117188 31.253906 26.1875 " fill-opacity="1" fill-rule="nonzero"/><g clip-path="url(#edf22e4f03)"><path fill="#c9cba9" d="M 39.019531 24.96875 L 29.816406 24.96875 L 29.816406 15.675781 L 39.019531 15.675781 L 39.019531 24.96875 " fill-opacity="1" fill-rule="nonzero"/></g><g clip-path="url(#e55ace59f7)"><path fill="#a3a48b" d="M 39.019531 24.96875 L 37.867188 24.96875 L 37.867188 15.675781 L 39.019531 15.675781 L 39.019531 24.96875 " fill-opacity="1" fill-rule="nonzero"/></g><path fill="#f8f9e6" d="M 31.542969 24.96875 L 29.816406 24.96875 L 29.816406 15.675781 L 31.542969 15.675781 L 31.542969 24.96875 " fill-opacity="1" fill-rule="nonzero"/><g clip-path="url(#c78aa030fb)"><path fill="#3453ad" d="M 14.863281 26.128906 L 5.660156 26.128906 L 5.660156 15.097656 L 14.863281 15.097656 L 14.863281 26.128906 " fill-opacity="1" fill-rule="nonzero"/></g><g clip-path="url(#4489e3dfd4)"><path fill="#9bb9e5" d="M 6.808594 26.128906 L 5.660156 26.128906 L 5.660156 15.097656 L 6.808594 15.097656 L 6.808594 26.128906 " fill-opacity="1" fill-rule="nonzero"/></g><path fill="#264488" d="M 14.863281 26.128906 L 12.5625 26.128906 L 12.5625 15.097656 L 14.863281 15.097656 L 14.863281 26.128906 " fill-opacity="1" fill-rule="nonzero"/><path fill="#dd2731" d="M 13.710938 20.902344 C 13.710938 22.507812 12.167969 23.804688 10.261719 23.804688 C 8.355469 23.804688 6.808594 22.507812 6.808594 20.902344 C 6.808594 19.300781 8.355469 18 10.261719 18 C 12.167969 18 13.710938 19.300781 13.710938 20.902344 " fill-opacity="1" fill-rule="nonzero"/><path fill="#ba2428" d="M 11.425781 18.171875 C 12.121094 18.703125 12.5625 19.46875 12.5625 20.324219 C 12.5625 21.925781 11.015625 23.226562 9.109375 23.226562 C 8.699219 23.226562 8.308594 23.164062 7.945312 23.054688 C 8.558594 23.523438 9.367188 23.804688 10.261719 23.804688 C 12.167969 23.804688 13.710938 22.507812 13.710938 20.902344 C 13.710938 19.644531 12.757812 18.570312 11.425781 18.171875 " fill-opacity="1" fill-rule="nonzero"/><path fill="#f8f9e6" d="M 24.640625 10.453125 L 23.472656 12.414062 C 23.140625 12.972656 22.484375 13.246094 21.859375 13.089844 L 21.753906 13.0625 C 21.085938 12.894531 20.394531 13.214844 20.085938 13.835938 L 18.3125 17.417969 L 21.1875 17.417969 L 21.40625 16.53125 C 21.605469 15.738281 22.398438 15.257812 23.1875 15.457031 C 23.722656 15.589844 24.292969 15.410156 24.652344 14.984375 L 27.515625 11.613281 L 27.515625 10.453125 L 24.640625 10.453125 " fill-opacity="1" fill-rule="nonzero"/><path fill="#253b1b" d="M 36.144531 19.742188 C 36.203125 19.742188 36.265625 19.730469 36.324219 19.710938 L 38.050781 19.132812 L 37.6875 18.03125 L 36.433594 18.449219 L 35.507812 16.578125 L 34.476562 17.097656 L 35.628906 19.421875 C 35.726562 19.621094 35.929688 19.742188 36.144531 19.742188 " fill-opacity="1" fill-rule="nonzero"/><path fill="#253b1b" d="M 36.460938 19.839844 L 36.140625 20.324219 C 36.140625 20.316406 36.144531 20.308594 36.140625 20.300781 C 36.132812 20.089844 36.011719 19.898438 35.824219 19.804688 L 32.375 18.0625 L 31.859375 19.101562 L 34.375 20.367188 L 32.394531 21.566406 L 32.988281 22.5625 L 34.988281 21.351562 C 34.949219 22.527344 34.589844 23.664062 33.9375 24.644531 L 34.417969 24.96875 L 35.097656 24.96875 C 35.78125 23.808594 36.144531 22.488281 36.144531 21.132812 L 36.144531 21.019531 L 37.550781 21.96875 L 38.1875 21 L 36.460938 19.839844 " fill-opacity="1" fill-rule="nonzero"/><path fill="#b4e7f9" d="M 35.242188 6.96875 L 34.9375 3.207031 L 34.132812 3.207031 L 33.851562 6.96875 L 35.242188 6.96875 " fill-opacity="1" fill-rule="nonzero"/><path fill="#92d7f2" d="M 36.394531 6.96875 L 36.085938 3.207031 L 34.9375 3.207031 L 35.242188 6.96875 L 36.394531 6.96875 " fill-opacity="1" fill-rule="nonzero"/><path fill="#d8f2fa" d="M 33.851562 6.96875 L 34.132812 3.207031 L 32.695312 3.207031 L 32.414062 6.96875 L 33.851562 6.96875 " fill-opacity="1" fill-rule="nonzero"/><path fill="#d7771a" d="M 36.71875 3.484375 L 32.117188 3.484375 L 32.117188 2.21875 C 32.117188 1.632812 32.585938 1.160156 33.164062 1.160156 L 35.671875 1.160156 C 36.25 1.160156 36.71875 1.632812 36.71875 2.21875 L 36.71875 3.484375 " fill-opacity="1" fill-rule="nonzero"/><path fill="#fab82a" d="M 34.886719 1.160156 L 33.164062 1.160156 C 32.585938 1.160156 32.117188 1.632812 32.117188 2.21875 L 32.117188 3.484375 L 33.84375 3.484375 L 33.84375 2.21875 C 33.84375 1.632812 34.3125 1.160156 34.886719 1.160156 " fill-opacity="1" fill-rule="nonzero"/><path fill="#c9cba9" d="M 24.640625 10.453125 L 23.472656 12.414062 C 23.226562 12.832031 22.800781 13.089844 22.339844 13.128906 L 22.339844 15.496094 C 22.601562 15.402344 22.894531 15.382812 23.1875 15.457031 C 23.722656 15.589844 24.292969 15.410156 24.652344 14.984375 L 27.515625 11.613281 L 27.515625 10.453125 L 24.640625 10.453125 " fill-opacity="1" fill-rule="nonzero"/></svg>