<svg xmlns="http://www.w3.org/2000/svg" xmlns:xlink="http://www.w3.org/1999/xlink" width="60" height="40" preserveAspectRatio="xMidYMid meet" version="1.0" viewBox="0 0 45 30" zoomAndPan="magnify"><defs><clipPath id="beeee0aa38"><path d="M 0.726562 18 L 44 18 L 44 28 L 0.726562 28 Z M 0.726562 18" clip-rule="nonzero"/></clipPath><clipPath id="8fa475b51a"><path d="M 0.726562 2 L 41 2 L 41 29.03125 L 0.726562 29.03125 Z M 0.726562 2" clip-rule="nonzero"/></clipPath></defs><path fill="#fdbd94" fill-opacity="1" fill-rule="nonzero" d="M 28.550781 2.882812 C 28.550781 2.882812 27.652344 1.742188 28.765625 0.761719 C 29.625 0 30.953125 0.0507812 31.855469 0.566406 C 32.757812 1.082031 37.566406 3.613281 39.96875 7.984375 C 42.375 12.359375 44.261719 17.933594 42.929688 20.894531 C 42.359375 22.164062 40.929688 20.65625 40.460938 19.65625 C 39.835938 18.324219 40.226562 17.027344 39.882812 16.046875 C 39.28125 14.332031 36.0625 6.570312 28.550781 2.882812 Z M 28.550781 2.882812"/><g clip-path="url(#beeee0aa38)"><path fill="#db915d" fill-opacity="1" fill-rule="nonzero" d="M 1.027344 26.320312 C 1.027344 26.320312 0.769531 27.457031 0.917969 27.621094 C 1.066406 27.78125 1.128906 27.832031 1.476562 27.738281 C 1.820312 27.648438 3.636719 26.8125 3.972656 26.671875 C 4.3125 26.53125 6.921875 25.46875 7.738281 25.214844 C 8.554688 24.964844 17.175781 23.113281 18.949219 22.804688 C 20.722656 22.496094 31.023438 21.398438 33.136719 21.652344 C 35.246094 21.90625 40.707031 21.847656 40.707031 21.847656 C 40.707031 21.847656 42.777344 21.847656 42.902344 21.074219 C 43.03125 20.300781 43.253906 19.699219 42.226562 18.796875 C 41.199219 17.898438 39.835938 19.359375 39.988281 19.851562 C 40.144531 20.34375 40.566406 21.347656 40.371094 21.578125 C 40.171875 21.804688 39.171875 21.539062 38.992188 21.539062 C 38.808594 21.539062 34.839844 20.824219 33.445312 20.894531 C 32.050781 20.964844 26.015625 20.570312 25.324219 20.808594 C 24.632812 21.046875 19.371094 21.820312 15.148438 22.75 C 10.925781 23.675781 3.535156 24.84375 2.226562 25.914062 C 0.917969 26.980469 1.027344 26.320312 1.027344 26.320312 Z M 1.027344 26.320312"/></g><g clip-path="url(#8fa475b51a)"><path fill="#fbc941" fill-opacity="1" fill-rule="nonzero" d="M 1.210938 27.777344 C 1.210938 27.777344 1.210938 27.351562 0.980469 27.230469 C 0.753906 27.109375 1.027344 26.320312 1.027344 26.320312 C 1.027344 26.320312 1.453125 24.578125 3.320312 21.605469 C 5.1875 18.632812 7.84375 15.191406 9.695312 13.78125 C 11.546875 12.371094 15.066406 9.523438 16.113281 8.886719 C 17.160156 8.289062 18.664062 7.167969 22.503906 5.15625 C 26.195312 3.21875 28.195312 2.789062 28.636719 2.789062 C 29.078125 2.789062 30.988281 3.441406 32.023438 4.320312 C 33.054688 5.199219 35.4375 7.460938 36.136719 8.886719 C 36.832031 10.308594 37.378906 10.023438 38.335938 12.355469 C 39.292969 14.691406 40.566406 16.753906 40.460938 18.9375 C 40.355469 21.121094 40.371094 21.578125 40.371094 21.578125 L 40.171875 21.804688 C 40.171875 21.804688 36.316406 21.136719 34.023438 21.183594 C 31.734375 21.226562 30.277344 21.453125 28.847656 22.167969 C 27.421875 22.878906 25.28125 23.183594 24.917969 23.183594 C 24.554688 23.183594 22.351562 22.335938 21.535156 22.167969 C 20.714844 22 19.46875 21.5625 18.300781 22.335938 C 17.132812 23.109375 16.738281 22.894531 16.464844 23.015625 C 16.191406 23.136719 14.476562 23.789062 13.851562 24.882812 C 13.230469 25.972656 14.035156 26.640625 12.925781 27.746094 C 11.820312 28.855469 10.484375 28.097656 10.269531 27.382812 C 10.058594 26.671875 10.210938 25.046875 9.027344 24.867188 C 7.84375 24.683594 6.613281 24.941406 5.65625 25.519531 C 4.699219 26.09375 4.746094 25.777344 4.304688 26.199219 C 3.867188 26.625 3.609375 26.640625 3.5625 26.824219 C 3.515625 27.003906 3.078125 27.777344 3.0625 28.003906 C 3.046875 28.234375 2.804688 29.035156 2.136719 29.035156 C 1.46875 29.035156 1.332031 28.703125 1.253906 28.308594 C 1.179688 27.914062 1.210938 27.777344 1.210938 27.777344 Z M 1.210938 27.777344"/></g><path fill="#f6b002" fill-opacity="1" fill-rule="nonzero" d="M 27.738281 6.40625 C 25.71875 6.460938 24.996094 8.140625 23.902344 8.628906 C 23.667969 8.730469 19.878906 9.703125 20.257812 10.082031 C 20.308594 10.132812 20.371094 10.175781 20.4375 10.207031 C 18.257812 11.789062 14.113281 11.003906 12.367188 12.75 C 12.160156 12.957031 12.496094 13.824219 12.367188 14.085938 C 12.269531 14.28125 11.347656 14.765625 11.757812 15.175781 C 11.789062 15.207031 13.089844 15.84375 12.242188 16.027344 C 11.019531 16.289062 8.230469 16.273438 7.265625 17.238281 C 6.613281 17.890625 7.722656 19.253906 6.660156 19.785156 C 5.910156 20.160156 4.355469 22.570312 3.621094 23.304688 C 3.035156 23.890625 1.179688 24.753906 1.921875 25.125 C 3.527344 25.925781 12.433594 20.304688 13.09375 19.421875 C 13.640625 18.691406 16.636719 16.773438 17.585938 17.726562 C 19.160156 19.296875 14.636719 22.542969 14.671875 22.578125 C 14.890625 22.796875 16.945312 21.640625 17.101562 21.484375 C 17.710938 20.875 19.863281 21.152344 20.742188 20.273438 C 21.621094 19.394531 20.007812 18.617188 21.957031 17.96875 C 22.09375 17.921875 22.226562 17.90625 22.355469 17.914062 C 21.488281 17.464844 20.921875 16.570312 20.132812 16.175781 C 18.863281 15.542969 16.957031 15.664062 16.011719 14.71875 C 14.539062 13.246094 21.347656 13.765625 21.421875 13.691406 C 21.738281 13.375 21.109375 12.117188 21.421875 11.800781 C 21.742188 11.480469 22.53125 11.378906 22.796875 11.117188 C 23.097656 10.8125 22.496094 10.269531 22.367188 10.171875 C 25.128906 9.695312 23.292969 11.476562 23.65625 11.71875 C 23.75 11.78125 24.207031 11.753906 24.257812 11.800781 C 24.648438 12.195312 23.269531 13.101562 23.484375 13.175781 C 25.871094 13.96875 26.144531 13.488281 26.144531 16.089844 C 26.144531 16.320312 29.527344 15.566406 29.320312 16.175781 C 28.984375 17.1875 24.992188 18.246094 23.230469 18.148438 C 23.488281 18.242188 23.75 18.332031 24.023438 18.332031 C 28.835938 18.332031 24.859375 19.289062 26.574219 21 C 28.40625 22.828125 33.042969 18.375 34.34375 17.726562 C 34.601562 17.597656 33.695312 17.375 33.492188 17.238281 C 33.128906 16.996094 32.863281 15.820312 33.128906 15.421875 C 33.769531 14.464844 36.832031 13.75 35.800781 13.238281 C 35.585938 13.128906 35.316406 13.097656 35.035156 13.078125 C 35.351562 12.847656 35.890625 12.449219 35.800781 12.265625 C 35.667969 12 34.753906 11.945312 34.585938 11.78125 C 34.246094 11.441406 34.8125 10.171875 34.585938 9.71875 C 34.472656 9.492188 33.605469 9.34375 33.371094 9.113281 C 32.863281 8.601562 33.390625 7.308594 33.007812 6.929688 C 32.335938 6.257812 29.941406 7.035156 29 6.566406 C 28.527344 6.445312 28.109375 6.398438 27.738281 6.40625 Z M 27.738281 6.40625"/><path fill="#ffdd8a" fill-opacity="1" fill-rule="nonzero" d="M 33.445312 8.714844 C 32.824219 7.0625 31.152344 6.082031 30.09375 5.027344 C 28.941406 3.875 23.386719 5.121094 22.453125 6.054688 C 22.3125 6.199219 22.859375 7.179688 24.726562 7.476562 C 26.175781 7.710938 29.152344 7.125 28.550781 8.027344 C 27.863281 9.054688 25.210938 7.589844 24.515625 8.285156 C 24.066406 8.734375 25.773438 8.816406 25.199219 9.957031 C 24.535156 11.289062 22.113281 10.257812 20.820312 10.257812 C 20.167969 10.257812 19.324219 10.148438 18.761719 10.429688 C 18.679688 10.472656 18.414062 10.515625 18.503906 10.515625 C 18.734375 10.515625 19.410156 10.503906 19.191406 10.429688 C 18.804688 10.300781 17.617188 10.386719 17.300781 10.429688 C 15.121094 10.742188 14.1875 11.566406 13.007812 12.746094 C 12.863281 12.890625 14.769531 12.917969 15.070312 12.917969 C 16.230469 12.917969 19.792969 12.476562 19.363281 14.203125 C 18.96875 15.777344 14.820312 13.792969 13.597656 14.902344 C 12.101562 16.253906 10.730469 16.625 9.488281 17.121094 C 9.167969 17.25 6.695312 17.542969 6.996094 18.148438 C 7.390625 18.9375 15.675781 17.335938 16.5 16.71875 C 17.230469 16.171875 25.90625 15.527344 25.285156 14.289062 C 25.039062 13.792969 22.886719 14.464844 22.453125 14.03125 C 22.058594 13.636719 23.015625 12.535156 22.96875 12.488281 C 22.785156 12.304688 22.097656 12.609375 21.851562 12.488281 C 21.765625 12.445312 21.402344 11.667969 21.59375 11.632812 C 24.074219 11.136719 23.574219 12.960938 26.101562 12.960938 C 26.125 12.960938 32.328125 11.714844 32.070312 11.289062 C 31.394531 10.164062 26.585938 9.589844 27.347656 9.402344 C 30.234375 8.679688 27.660156 12.730469 28.722656 13.261719 C 29.914062 13.855469 30.4375 13.082031 30.4375 14.632812 C 30.4375 15.167969 27.742188 14.878906 27.390625 15.320312 C 26.875 15.964844 28.523438 16.714844 27.777344 16.777344 C 23.984375 17.09375 21.042969 16.867188 17.601562 17.25 C 14.890625 17.550781 12.574219 19.886719 9.917969 20.550781 C 8.75 20.84375 7.507812 21.023438 6.3125 21.324219 C 6.234375 21.34375 5.789062 21.859375 5.796875 21.867188 C 6.175781 22.535156 6.941406 21.667969 7.511719 21.667969 C 8.28125 21.667969 10.214844 21.386719 10.949219 21.753906 C 11.738281 22.148438 9.613281 24.691406 11.375 23.8125 C 14.8125 22.09375 12.925781 22.433594 13.953125 20.722656 C 14.285156 20.171875 17.082031 22.875 18.476562 21.492188 C 21.363281 18.625 22.863281 18.9375 23.742188 19.867188 C 24.449219 20.613281 24.355469 21.574219 26.402344 20.808594 C 26.910156 20.617188 27.40625 20.265625 27.863281 20.035156 C 30.617188 18.660156 25.386719 19.464844 26.230469 18.40625 C 26.410156 18.179688 27.269531 17.910156 27.519531 17.808594 C 27.722656 17.722656 29.875 17.386719 29.921875 17.292969 C 30.4375 16.261719 31.625 15.652344 32.929688 15.492188 C 34.605469 15.28125 33.207031 16.925781 33.785156 17.121094 C 34.003906 17.191406 34.746094 16.964844 34.902344 17.121094 C 35.613281 17.832031 33.746094 19.050781 35.675781 18.664062 C 36.472656 18.503906 38.101562 17.417969 37.566406 16.347656 C 37.21875 15.65625 35.425781 15.839844 34.902344 15.320312 C 34.574219 14.988281 35.136719 13.078125 34.816406 12.917969 C 34 12.511719 31.308594 13.445312 30.695312 12.832031 C 29.566406 11.703125 35.328125 11.757812 36.074219 11.011719 C 36.671875 10.417969 34.648438 9.402344 34.472656 9.402344 C 34.09375 9.402344 32.039062 9.175781 33.015625 8.199219 C 33.265625 7.949219 34.269531 8.300781 33.445312 8.714844 Z M 33.445312 8.714844"/><path fill="#af3902" fill-opacity="1" fill-rule="nonzero" d="M 12.171875 18.855469 C 11.96875 19.449219 11.925781 19.886719 12.140625 20.339844 C 12.316406 20.722656 12.898438 21.46875 14.265625 21.402344 C 15.507812 21.339844 17.21875 20.253906 16.953125 18.550781 C 16.625 16.488281 14.035156 16.808594 13.324219 17.429688 C 12.609375 18.050781 12.316406 18.421875 12.171875 18.855469 Z M 12.171875 18.855469"/><path fill="#e84c03" fill-opacity="1" fill-rule="nonzero" d="M 12.007812 18.585938 C 11.804688 19.179688 11.761719 19.613281 11.976562 20.070312 C 12.152344 20.449219 12.734375 21.199219 14.101562 21.132812 C 15.34375 21.070312 17.058594 19.984375 16.789062 18.28125 C 16.460938 16.214844 13.875 16.539062 13.160156 17.160156 C 12.445312 17.78125 12.152344 18.152344 12.007812 18.585938 Z M 12.007812 18.585938"/><path fill="#af3902" fill-opacity="1" fill-rule="nonzero" d="M 12.570312 18.640625 C 12.5625 18.945312 12.914062 18.710938 12.570312 18.640625 Z M 12.570312 18.640625"/><path fill="#af3902" fill-opacity="1" fill-rule="nonzero" d="M 14.414062 17.59375 C 14.214844 17.636719 14.421875 17.855469 14.515625 17.757812 C 14.59375 17.679688 14.535156 17.535156 14.414062 17.59375 Z M 14.414062 17.59375"/><path fill="#af3902" fill-opacity="1" fill-rule="nonzero" d="M 14.628906 19.210938 C 14.664062 19.128906 14.738281 19.132812 14.820312 19.132812 C 15.082031 19.132812 14.503906 19.839844 14.628906 19.210938 Z M 14.628906 19.210938"/><path fill="#af3902" fill-opacity="1" fill-rule="nonzero" d="M 13.53125 19.285156 C 13.863281 19.21875 13.480469 19.695312 13.480469 19.375 C 13.480469 19.292969 13.46875 19.316406 13.53125 19.285156 Z M 13.53125 19.285156"/><path fill="#af3902" fill-opacity="1" fill-rule="nonzero" d="M 16.007812 18.730469 C 15.921875 19.070312 16.265625 18.539062 16.007812 18.730469 Z M 16.007812 18.730469"/><path fill="#af3902" fill-opacity="1" fill-rule="nonzero" d="M 14.074219 20.546875 C 14.398438 20.34375 14.074219 20.949219 14.074219 20.546875 Z M 14.074219 20.546875"/><path fill="#af3902" fill-opacity="1" fill-rule="nonzero" d="M 13.289062 17.71875 C 13.300781 17.980469 13.507812 17.558594 13.289062 17.71875 Z M 13.289062 17.71875"/><path fill="#af3902" fill-opacity="1" fill-rule="nonzero" d="M 12.773438 19.992188 C 12.953125 19.492188 12.292969 20.230469 12.773438 19.992188 Z M 12.773438 19.992188"/><path fill="#af3902" fill-opacity="1" fill-rule="nonzero" d="M 15.691406 19.890625 C 15.628906 19.878906 15.640625 19.890625 15.640625 19.828125 C 15.640625 19.597656 15.941406 20.078125 15.691406 19.890625 Z M 15.691406 19.890625"/><path fill="#af3902" fill-opacity="1" fill-rule="nonzero" d="M 15.515625 17.632812 C 15.355469 17.488281 15.601562 17.292969 15.601562 17.582031 C 15.601562 17.648438 15.582031 17.632812 15.515625 17.632812 Z M 15.515625 17.632812"/><path fill="#af3902" fill-opacity="1" fill-rule="nonzero" d="M 24.195312 6.746094 C 24.03125 7.207031 23.996094 7.546875 24.171875 7.898438 C 24.316406 8.195312 24.792969 8.773438 25.921875 8.722656 C 26.945312 8.675781 28.351562 7.832031 28.128906 6.507812 C 27.863281 4.90625 25.734375 5.15625 25.144531 5.636719 C 24.558594 6.121094 24.316406 6.410156 24.195312 6.746094 Z M 24.195312 6.746094"/><path fill="#e84c03" fill-opacity="1" fill-rule="nonzero" d="M 24.0625 6.535156 C 23.898438 6.996094 23.863281 7.335938 24.039062 7.6875 C 24.183594 7.984375 24.660156 8.566406 25.785156 8.511719 C 26.808594 8.464844 28.21875 7.625 27.996094 6.300781 C 27.726562 4.695312 25.597656 4.945312 25.011719 5.429688 C 24.425781 5.910156 24.179688 6.199219 24.0625 6.535156 Z M 24.0625 6.535156"/><path fill="#af3902" fill-opacity="1" fill-rule="nonzero" d="M 24.527344 6.578125 C 24.519531 6.816406 24.808594 6.632812 24.527344 6.578125 Z M 24.527344 6.578125"/><path fill="#af3902" fill-opacity="1" fill-rule="nonzero" d="M 26.042969 5.765625 C 25.878906 5.800781 26.046875 5.96875 26.128906 5.894531 C 26.191406 5.832031 26.144531 5.71875 26.042969 5.765625 Z M 26.042969 5.765625"/><path fill="#af3902" fill-opacity="1" fill-rule="nonzero" d="M 26.222656 7.019531 C 26.25 6.960938 26.3125 6.960938 26.375 6.960938 C 26.59375 6.960938 26.117188 7.511719 26.222656 7.019531 Z M 26.222656 7.019531"/><path fill="#af3902" fill-opacity="1" fill-rule="nonzero" d="M 25.316406 7.082031 C 25.589844 7.027344 25.273438 7.398438 25.273438 7.148438 C 25.273438 7.085938 25.265625 7.105469 25.316406 7.082031 Z M 25.316406 7.082031"/><path fill="#af3902" fill-opacity="1" fill-rule="nonzero" d="M 27.355469 6.648438 C 27.285156 6.914062 27.566406 6.5 27.355469 6.648438 Z M 27.355469 6.648438"/><path fill="#af3902" fill-opacity="1" fill-rule="nonzero" d="M 25.761719 8.0625 C 26.027344 7.902344 25.761719 8.375 25.761719 8.0625 Z M 25.761719 8.0625"/><path fill="#af3902" fill-opacity="1" fill-rule="nonzero" d="M 25.117188 5.863281 C 25.128906 6.066406 25.296875 5.738281 25.117188 5.863281 Z M 25.117188 5.863281"/><path fill="#af3902" fill-opacity="1" fill-rule="nonzero" d="M 24.691406 7.628906 C 24.84375 7.238281 24.296875 7.816406 24.691406 7.628906 Z M 24.691406 7.628906"/><path fill="#af3902" fill-opacity="1" fill-rule="nonzero" d="M 27.09375 7.550781 C 27.042969 7.542969 27.054688 7.550781 27.054688 7.5 C 27.054688 7.320312 27.296875 7.695312 27.09375 7.550781 Z M 27.09375 7.550781"/><path fill="#af3902" fill-opacity="1" fill-rule="nonzero" d="M 26.949219 5.796875 C 26.820312 5.683594 27.023438 5.53125 27.023438 5.757812 C 27.023438 5.808594 27.003906 5.796875 26.949219 5.796875 Z M 26.949219 5.796875"/><path fill="#9eb31a" fill-opacity="1" fill-rule="nonzero" d="M 18.421875 18.769531 C 18.40625 17.394531 19.789062 17.535156 20.257812 17.855469 C 19.886719 18.152344 19.269531 19.480469 18.421875 18.769531 Z M 18.421875 18.769531"/><path fill="#497100" fill-opacity="1" fill-rule="nonzero" d="M 20.257812 17.855469 C 19.328125 17.921875 18.894531 18.328125 18.421875 18.769531 C 19.269531 19.480469 19.886719 18.152344 20.257812 17.855469 Z M 20.257812 17.855469"/><path fill="#9eb31a" fill-opacity="1" fill-rule="nonzero" d="M 21.886719 13.457031 C 20.015625 13.382812 20.300781 11.511719 20.769531 10.902344 C 21.152344 11.429688 22.910156 12.355469 21.886719 13.457031 Z M 21.886719 13.457031"/><path fill="#497100" fill-opacity="1" fill-rule="nonzero" d="M 20.769531 10.902344 C 20.796875 12.167969 21.320312 12.785156 21.886719 13.457031 C 22.910156 12.355469 21.152344 11.429688 20.769531 10.902344 Z M 20.769531 10.902344"/><path fill="#9eb31a" fill-opacity="1" fill-rule="nonzero" d="M 31.632812 11.21875 C 31.289062 9.871094 29.976562 10.367188 29.605469 10.800781 C 30.046875 10.996094 30.992188 12.132812 31.632812 11.21875 Z M 31.632812 11.21875"/><path fill="#497100" fill-opacity="1" fill-rule="nonzero" d="M 29.605469 10.800781 C 30.527344 10.625 31.058594 10.910156 31.632812 11.21875 C 30.992188 12.132812 30.046875 10.996094 29.605469 10.800781 Z M 29.605469 10.800781"/><path fill="#9eb31a" fill-opacity="1" fill-rule="nonzero" d="M 26.214844 9.359375 C 25.019531 9.304688 25.101562 10.511719 25.367188 10.925781 C 25.636719 10.609375 26.808594 10.113281 26.214844 9.359375 Z M 26.214844 9.359375"/><path fill="#497100" fill-opacity="1" fill-rule="nonzero" d="M 25.367188 10.925781 C 25.449219 10.121094 25.816406 9.753906 26.214844 9.359375 C 26.808594 10.113281 25.636719 10.609375 25.367188 10.925781 Z M 25.367188 10.925781"/><path fill="#9eb31a" fill-opacity="1" fill-rule="nonzero" d="M 36.695312 16.882812 C 36.226562 15.585938 37.582031 15.265625 38.128906 15.414062 C 37.875 15.820312 37.730469 17.273438 36.695312 16.882812 Z M 36.695312 16.882812"/><path fill="#497100" fill-opacity="1" fill-rule="nonzero" d="M 38.128906 15.414062 C 37.273438 15.78125 36.996094 16.308594 36.695312 16.882812 C 37.730469 17.273438 37.875 15.820312 38.128906 15.414062 Z M 38.128906 15.414062"/><path fill="#9eb31a" fill-opacity="1" fill-rule="nonzero" d="M 8.121094 17.167969 C 7.484375 16.164062 8.382812 15.367188 8.808594 15.300781 C 8.71875 15.761719 8.953125 17.136719 8.121094 17.167969 Z M 8.121094 17.167969"/><path fill="#497100" fill-opacity="1" fill-rule="nonzero" d="M 8.808594 15.300781 C 8.28125 15.953125 8.203125 16.535156 8.121094 17.167969 C 8.953125 17.136719 8.71875 15.761719 8.808594 15.300781 Z M 8.808594 15.300781"/><path fill="#c4e54a" fill-opacity="1" fill-rule="nonzero" d="M 6.933594 21.308594 C 6.828125 21.308594 6.789062 21.246094 6.675781 21.242188 C 6.601562 20.6875 6.878906 20.738281 7.183594 20.4375 C 7.554688 20.0625 7.363281 19.539062 8.136719 19.539062 C 8.144531 19.601562 8.148438 19.65625 8.148438 19.71875 C 7.441406 19.652344 7.796875 20.339844 7.582031 20.554688 C 7.421875 20.714844 7.191406 20.773438 7.042969 20.921875 C 6.949219 21.015625 6.988281 21.203125 6.933594 21.308594 Z M 6.933594 21.308594"/><path fill="#c4e54a" fill-opacity="1" fill-rule="nonzero" d="M 12.609375 14.242188 C 12.617188 14.132812 12.6875 14.101562 12.699219 13.988281 C 13.257812 13.957031 13.183594 14.230469 13.464844 14.554688 C 13.804688 14.957031 14.34375 14.804688 14.28125 15.578125 C 14.21875 15.578125 14.167969 15.578125 14.101562 15.574219 C 14.226562 14.875 13.511719 15.175781 13.3125 14.941406 C 13.167969 14.773438 13.125 14.539062 12.988281 14.378906 C 12.902344 14.277344 12.710938 14.300781 12.609375 14.242188 Z M 12.609375 14.242188"/><path fill="#c4e54a" fill-opacity="1" fill-rule="nonzero" d="M 24.347656 19.902344 C 24.296875 19.964844 24.238281 19.953125 24.179688 20.019531 C 23.8125 19.789062 23.980469 19.648438 23.949219 19.316406 C 23.914062 18.910156 23.503906 18.765625 23.890625 18.304688 C 23.929688 18.332031 23.964844 18.355469 24 18.386719 C 23.609375 18.773438 24.195312 18.902344 24.21875 19.140625 C 24.234375 19.3125 24.15625 19.480469 24.171875 19.644531 C 24.179688 19.746094 24.3125 19.816406 24.347656 19.902344 Z M 24.347656 19.902344"/><path fill="#c4e54a" fill-opacity="1" fill-rule="nonzero" d="M 18.199219 14.554688 C 18.136719 14.503906 18.148438 14.445312 18.082031 14.386719 C 18.316406 14.019531 18.453125 14.1875 18.785156 14.160156 C 19.195312 14.128906 19.34375 13.722656 19.804688 14.109375 C 19.773438 14.148438 19.75 14.183594 19.71875 14.222656 C 19.335938 13.828125 19.199219 14.414062 18.964844 14.433594 C 18.789062 14.445312 18.621094 14.367188 18.460938 14.378906 C 18.355469 14.390625 18.285156 14.519531 18.199219 14.554688 Z M 18.199219 14.554688"/><path fill="#c4e54a" fill-opacity="1" fill-rule="nonzero" d="M 30.59375 15.480469 C 31.035156 14.753906 31.535156 15.847656 31.996094 15.980469 C 32.246094 15.992188 32.761719 16.773438 32.355469 16.574219 C 31.953125 16.210938 31.238281 16.320312 31.058594 15.679688 C 30.949219 15.542969 30.773438 15.433594 30.59375 15.480469 Z M 30.59375 15.480469"/><path fill="#c4e54a" fill-opacity="1" fill-rule="nonzero" d="M 35.445312 13.722656 C 35.382812 13.777344 35.328125 13.761719 35.257812 13.816406 C 34.925781 13.539062 35.113281 13.421875 35.132812 13.089844 C 35.152344 12.679688 34.769531 12.480469 35.214844 12.074219 C 35.25 12.109375 35.28125 12.136719 35.316406 12.175781 C 34.875 12.503906 35.4375 12.714844 35.421875 12.949219 C 35.414062 13.125 35.3125 13.28125 35.304688 13.441406 C 35.300781 13.546875 35.417969 13.632812 35.445312 13.722656 Z M 35.445312 13.722656"/><path fill="#c4e54a" fill-opacity="1" fill-rule="nonzero" d="M 21.238281 10.050781 C 21.15625 10.042969 21.128906 9.992188 21.039062 9.984375 C 21.003906 9.550781 21.21875 9.601562 21.46875 9.378906 C 21.773438 9.105469 21.644531 8.695312 22.246094 8.726562 C 22.246094 8.773438 22.25 8.816406 22.246094 8.863281 C 21.703125 8.785156 21.949219 9.332031 21.773438 9.488281 C 21.640625 9.605469 21.460938 9.644531 21.339844 9.753906 C 21.261719 9.820312 21.285156 9.96875 21.238281 10.050781 Z M 21.238281 10.050781"/><path fill="#c4e54a" fill-opacity="1" fill-rule="nonzero" d="M 31.074219 6.984375 C 31.078125 7.066406 31.03125 7.101562 31.03125 7.1875 C 30.605469 7.273438 30.632812 7.054688 30.382812 6.832031 C 30.074219 6.5625 29.679688 6.734375 29.644531 6.132812 C 29.691406 6.128906 29.730469 6.121094 29.78125 6.117188 C 29.761719 6.667969 30.277344 6.363281 30.457031 6.519531 C 30.585938 6.636719 30.644531 6.808594 30.765625 6.917969 C 30.84375 6.984375 30.988281 6.949219 31.074219 6.984375 Z M 31.074219 6.984375"/><path fill="#c4e54a" fill-opacity="1" fill-rule="nonzero" d="M 34.5625 17.660156 C 34.40625 17.875 34.316406 18.097656 34.292969 18.320312 C 34.269531 18.546875 34.320312 18.710938 34.441406 18.8125 C 34.46875 18.832031 34.5 18.851562 34.535156 18.863281 C 34.453125 18.742188 34.429688 18.582031 34.46875 18.378906 C 34.503906 18.179688 34.589844 17.984375 34.726562 17.796875 C 34.859375 17.609375 35.015625 17.46875 35.1875 17.382812 C 35.363281 17.292969 35.511719 17.273438 35.644531 17.328125 C 35.621094 17.296875 35.597656 17.269531 35.570312 17.246094 C 35.449219 17.144531 35.289062 17.132812 35.089844 17.214844 C 34.894531 17.296875 34.71875 17.445312 34.5625 17.660156 Z M 34.5625 17.660156"/><path fill="#68a100" fill-opacity="1" fill-rule="nonzero" d="M 35.644531 17.328125 C 35.722656 17.449219 35.746094 17.609375 35.710938 17.8125 C 35.671875 18.011719 35.585938 18.207031 35.453125 18.394531 C 35.316406 18.585938 35.160156 18.722656 34.988281 18.8125 C 34.816406 18.898438 34.664062 18.917969 34.535156 18.863281 C 34.554688 18.894531 34.578125 18.921875 34.605469 18.945312 C 34.726562 19.046875 34.886719 19.058594 35.085938 18.976562 C 35.28125 18.894531 35.460938 18.746094 35.617188 18.53125 C 35.773438 18.316406 35.863281 18.09375 35.886719 17.871094 C 35.910156 17.644531 35.859375 17.480469 35.734375 17.378906 C 35.707031 17.359375 35.675781 17.339844 35.644531 17.328125 Z M 35.644531 17.328125"/><path fill="#c4e54a" fill-opacity="1" fill-rule="nonzero" d="M 3.910156 23.1875 C 3.753906 23.40625 3.664062 23.625 3.640625 23.847656 C 3.617188 24.074219 3.664062 24.238281 3.789062 24.339844 C 3.816406 24.363281 3.847656 24.378906 3.882812 24.394531 C 3.800781 24.269531 3.777344 24.109375 3.816406 23.910156 C 3.851562 23.707031 3.9375 23.511719 4.074219 23.324219 C 4.207031 23.136719 4.363281 22.996094 4.535156 22.910156 C 4.707031 22.820312 4.859375 22.800781 4.992188 22.855469 C 4.96875 22.824219 4.945312 22.796875 4.917969 22.773438 C 4.796875 22.671875 4.636719 22.660156 4.4375 22.742188 C 4.242188 22.824219 4.0625 22.972656 3.910156 23.1875 Z M 3.910156 23.1875"/><path fill="#68a100" fill-opacity="1" fill-rule="nonzero" d="M 4.992188 22.855469 C 5.070312 22.976562 5.09375 23.136719 5.058594 23.339844 C 5.019531 23.539062 4.933594 23.734375 4.800781 23.921875 C 4.664062 24.113281 4.507812 24.25 4.335938 24.339844 C 4.164062 24.425781 4.011719 24.445312 3.882812 24.394531 C 3.902344 24.425781 3.925781 24.453125 3.953125 24.472656 C 4.074219 24.574219 4.234375 24.585938 4.433594 24.503906 C 4.628906 24.421875 4.808594 24.273438 4.964844 24.058594 C 5.121094 23.84375 5.207031 23.621094 5.230469 23.398438 C 5.253906 23.171875 5.207031 23.007812 5.082031 22.910156 C 5.054688 22.886719 5.023438 22.867188 4.992188 22.855469 Z M 4.992188 22.855469"/><path fill="#c4e54a" fill-opacity="1" fill-rule="nonzero" d="M 16.113281 10.820312 C 15.9375 10.914062 15.804688 11.03125 15.714844 11.175781 C 15.625 11.320312 15.605469 11.449219 15.65625 11.554688 C 15.664062 11.582031 15.679688 11.601562 15.699219 11.625 C 15.683594 11.515625 15.722656 11.398438 15.8125 11.273438 C 15.902344 11.148438 16.027344 11.046875 16.179688 10.964844 C 16.332031 10.882812 16.484375 10.839844 16.628906 10.835938 C 16.773438 10.832031 16.882812 10.871094 16.953125 10.949219 C 16.949219 10.921875 16.945312 10.894531 16.933594 10.871094 C 16.882812 10.761719 16.777344 10.703125 16.617188 10.691406 C 16.457031 10.679688 16.289062 10.722656 16.113281 10.820312 Z M 16.113281 10.820312"/><path fill="#68a100" fill-opacity="1" fill-rule="nonzero" d="M 16.953125 10.949219 C 16.96875 11.058594 16.929688 11.171875 16.839844 11.296875 C 16.75 11.421875 16.628906 11.523438 16.472656 11.609375 C 16.320312 11.691406 16.171875 11.734375 16.023438 11.734375 C 15.878906 11.738281 15.769531 11.699219 15.699219 11.625 C 15.703125 11.652344 15.710938 11.675781 15.722656 11.703125 C 15.769531 11.8125 15.875 11.871094 16.035156 11.878906 C 16.195312 11.890625 16.363281 11.847656 16.539062 11.753906 C 16.714844 11.65625 16.847656 11.539062 16.9375 11.394531 C 17.027344 11.25 17.046875 11.125 17 11.015625 C 16.988281 10.992188 16.972656 10.96875 16.953125 10.949219 Z M 16.953125 10.949219"/><path fill="#fca66b" fill-opacity="1" fill-rule="nonzero" d="M 41.523438 18.511719 C 40.675781 18.492188 39.867188 19.46875 39.988281 19.851562 C 40.144531 20.34375 40.566406 21.347656 40.371094 21.578125 C 40.171875 21.804688 39.171875 21.539062 38.992188 21.539062 C 38.953125 21.539062 38.742188 21.582031 38.449219 21.535156 C 38.511719 21.671875 35.617188 21.695312 35.699219 21.820312 C 36.871094 21.828125 40.707031 21.847656 40.707031 21.847656 C 40.707031 21.847656 42.777344 21.847656 42.902344 21.074219 C 43.03125 20.300781 43.253906 19.699219 42.226562 18.796875 C 42.003906 18.601562 41.761719 18.515625 41.523438 18.511719 Z M 41.523438 18.511719"/><path fill="#fc6f06" fill-opacity="1" fill-rule="nonzero" d="M 40.484375 18.878906 C 38.453125 11.800781 34.140625 4.15625 28.550781 2.882812 L 28.363281 2.515625 C 34.328125 3.410156 39.121094 11.632812 40.484375 18.878906 Z M 40.484375 18.878906"/><path fill="#af3902" fill-opacity="1" fill-rule="nonzero" d="M 25.109375 14.855469 C 24.925781 15.402344 24.886719 15.800781 25.078125 16.21875 C 25.242188 16.566406 25.773438 17.253906 27.027344 17.191406 C 28.167969 17.136719 29.738281 16.140625 29.488281 14.578125 C 29.191406 12.6875 26.820312 12.980469 26.164062 13.550781 C 25.511719 14.121094 25.242188 14.460938 25.109375 14.855469 Z M 25.109375 14.855469"/><path fill="#e84c03" fill-opacity="1" fill-rule="nonzero" d="M 24.957031 14.609375 C 24.773438 15.15625 24.734375 15.554688 24.929688 15.972656 C 25.09375 16.320312 25.625 17.003906 26.878906 16.945312 C 28.019531 16.886719 29.585938 15.894531 29.339844 14.332031 C 29.039062 12.4375 26.667969 12.734375 26.015625 13.304688 C 25.359375 13.871094 25.089844 14.210938 24.957031 14.609375 Z M 24.957031 14.609375"/><path fill="#af3902" fill-opacity="1" fill-rule="nonzero" d="M 25.472656 14.664062 C 25.464844 14.941406 25.789062 14.726562 25.472656 14.664062 Z M 25.472656 14.664062"/><path fill="#af3902" fill-opacity="1" fill-rule="nonzero" d="M 27.164062 13.703125 C 26.980469 13.742188 27.167969 13.941406 27.257812 13.851562 C 27.328125 13.78125 27.277344 13.644531 27.164062 13.703125 Z M 27.164062 13.703125"/><path fill="#af3902" fill-opacity="1" fill-rule="nonzero" d="M 27.363281 15.183594 C 27.394531 15.109375 27.464844 15.113281 27.535156 15.113281 C 27.777344 15.113281 27.246094 15.761719 27.363281 15.183594 Z M 27.363281 15.183594"/><path fill="#af3902" fill-opacity="1" fill-rule="nonzero" d="M 26.355469 15.253906 C 26.660156 15.1875 26.308594 15.628906 26.308594 15.332031 C 26.308594 15.261719 26.296875 15.28125 26.355469 15.253906 Z M 26.355469 15.253906"/><path fill="#af3902" fill-opacity="1" fill-rule="nonzero" d="M 28.625 14.742188 C 28.546875 15.054688 28.859375 14.566406 28.625 14.742188 Z M 28.625 14.742188"/><path fill="#af3902" fill-opacity="1" fill-rule="nonzero" d="M 26.851562 16.410156 C 27.148438 16.222656 26.851562 16.777344 26.851562 16.410156 Z M 26.851562 16.410156"/><path fill="#af3902" fill-opacity="1" fill-rule="nonzero" d="M 26.132812 13.816406 C 26.144531 14.054688 26.332031 13.667969 26.132812 13.816406 Z M 26.132812 13.816406"/><path fill="#af3902" fill-opacity="1" fill-rule="nonzero" d="M 25.660156 15.902344 C 25.828125 15.441406 25.21875 16.121094 25.660156 15.902344 Z M 25.660156 15.902344"/><path fill="#af3902" fill-opacity="1" fill-rule="nonzero" d="M 28.335938 15.808594 C 28.277344 15.796875 28.289062 15.804688 28.289062 15.75 C 28.289062 15.535156 28.5625 15.976562 28.335938 15.808594 Z M 28.335938 15.808594"/><path fill="#af3902" fill-opacity="1" fill-rule="nonzero" d="M 28.171875 13.738281 C 28.027344 13.605469 28.253906 13.425781 28.253906 13.691406 C 28.253906 13.75 28.238281 13.738281 28.171875 13.738281 Z M 28.171875 13.738281"/><path fill="#fdd2b6" fill-opacity="1" fill-rule="nonzero" d="M 30.296875 0.183594 C 29.742188 0.203125 29.195312 0.378906 28.765625 0.761719 C 28.683594 0.828125 28.617188 0.902344 28.558594 0.972656 C 35.671875 2.316406 40.804688 8.621094 42.992188 15.550781 C 42.421875 13.082031 41.273438 10.359375 39.96875 7.984375 C 37.566406 3.613281 32.757812 1.082031 31.855469 0.566406 C 31.402344 0.308594 30.847656 0.167969 30.296875 0.183594 Z M 30.296875 0.183594"/></svg>