<svg xmlns="http://www.w3.org/2000/svg" xmlns:xlink="http://www.w3.org/1999/xlink" width="60" zoomAndPan="magnify" viewBox="0 0 45 30.000001" height="40" preserveAspectRatio="xMidYMid meet" version="1.0"><defs><clipPath id="a0f5343b2a"><path d="M 1 9 L 44 9 L 44 25.984375 L 1 25.984375 Z M 1 9 " clip-rule="nonzero"/></clipPath></defs><g clip-path="url(#a0f5343b2a)"><path fill="#fac907" d="M 3.902344 22.8125 C 3.867188 22.765625 3.847656 22.734375 3.847656 22.714844 C 3.546875 22.65625 3.324219 22.65625 3.183594 22.714844 C 3.035156 22.785156 2.957031 22.9375 2.957031 23.171875 C 2.957031 23.246094 2.992188 23.320312 3.054688 23.402344 C 3.101562 23.445312 3.238281 23.574219 3.464844 23.789062 C 3.535156 23.773438 3.625 23.738281 3.734375 23.675781 C 3.835938 23.628906 3.890625 23.601562 3.902344 23.601562 C 3.933594 23.632812 3.949219 23.488281 3.949219 23.171875 C 3.949219 22.984375 3.933594 22.867188 3.902344 22.8125 Z M 6.636719 24.15625 C 6.515625 24.195312 6.453125 24.308594 6.453125 24.496094 C 6.453125 24.691406 6.472656 24.792969 6.507812 24.804688 L 6.542969 24.808594 C 6.851562 24.808594 7.066406 24.792969 7.195312 24.757812 L 7.34375 24.527344 L 7.246094 24.214844 C 7.144531 24.175781 7.046875 24.144531 6.945312 24.125 L 6.808594 24.117188 C 6.753906 24.121094 6.695312 24.132812 6.636719 24.15625 Z M 31.9375 10.042969 L 30.007812 10.007812 C 29.195312 10.007812 27.378906 9.992188 24.550781 9.96875 C 21.730469 9.933594 20.28125 9.917969 20.199219 9.917969 L 10.304688 9.820312 C 6.316406 9.953125 3.832031 10.820312 2.84375 12.414062 C 2.660156 12.714844 2.519531 13.050781 2.421875 13.429688 C 2.378906 13.175781 2.160156 13 1.773438 12.898438 C 1.757812 12.894531 1.742188 12.890625 1.722656 12.890625 C 2.152344 10.789062 3.925781 9.660156 7.042969 9.5 C 7.550781 9.417969 8.089844 9.371094 8.660156 9.351562 C 9.800781 9.304688 10.90625 9.265625 11.980469 9.230469 C 13.0625 9.191406 14.214844 9.199219 15.445312 9.253906 C 16.613281 9.308594 17.71875 9.332031 18.765625 9.328125 C 19.832031 9.324219 20.9375 9.308594 22.074219 9.28125 C 23.257812 9.257812 24.363281 9.253906 25.402344 9.269531 C 26.394531 9.277344 27.453125 9.289062 28.578125 9.304688 L 28.585938 9.304688 C 29.628906 9.304688 30.683594 9.289062 31.753906 9.261719 Z M 33.628906 24.140625 C 33.589844 24.230469 33.570312 24.335938 33.570312 24.460938 C 33.570312 24.648438 33.578125 24.75 33.597656 24.757812 C 33.609375 24.761719 33.648438 24.78125 33.714844 24.808594 L 33.722656 24.863281 C 33.769531 24.894531 33.898438 24.90625 34.097656 24.90625 C 34.300781 24.90625 34.433594 24.859375 34.507812 24.765625 C 34.546875 24.714844 34.585938 24.636719 34.625 24.527344 C 34.625 24.386719 34.597656 24.265625 34.542969 24.15625 C 35.253906 24.15625 35.992188 24.121094 36.753906 24.058594 L 36.839844 24.058594 C 37.210938 24.027344 37.558594 23.976562 37.886719 23.910156 C 37.9375 23.886719 38 23.878906 38.078125 23.878906 L 38.089844 23.878906 C 40.578125 23.730469 41.828125 22.699219 41.84375 20.789062 L 41.84375 20.699219 C 41.859375 20.578125 41.867188 20.4375 41.867188 20.285156 C 41.855469 19.675781 41.859375 19.082031 41.882812 18.492188 C 41.992188 18.757812 42.21875 18.890625 42.570312 18.890625 C 42.667969 18.871094 42.757812 18.847656 42.839844 18.820312 C 42.824219 18.925781 42.8125 19.039062 42.800781 19.164062 C 42.78125 19.382812 42.765625 19.824219 42.757812 20.492188 C 42.746094 21.039062 42.714844 21.453125 42.664062 21.738281 C 42.535156 22.644531 41.652344 23.445312 40.015625 24.148438 C 38.125 24.953125 35.722656 25.355469 32.8125 25.355469 C 32.214844 25.355469 31.59375 25.25 30.941406 25.035156 C 30.292969 24.820312 29.667969 24.714844 29.0625 24.714844 C 28.425781 24.714844 27.96875 24.8125 27.695312 25.011719 C 27.5625 25.109375 27.46875 25.238281 27.417969 25.390625 L 26.875 25.390625 C 26.402344 25.382812 25.917969 25.378906 25.425781 25.378906 C 25.589844 25.292969 25.800781 25.1875 26.050781 25.0625 C 26.292969 24.933594 26.414062 24.796875 26.414062 24.648438 C 26.414062 24.417969 26.378906 24.230469 26.308594 24.085938 C 25.703125 24.085938 25.089844 24.089844 24.464844 24.09375 C 24.144531 24.25 23.824219 24.4375 23.507812 24.660156 C 23.148438 24.929688 22.972656 25.105469 22.972656 25.191406 C 22.972656 25.269531 22.980469 25.34375 23.003906 25.414062 C 23.050781 25.410156 23.109375 25.410156 23.167969 25.414062 C 22.195312 25.433594 21.234375 25.433594 20.277344 25.414062 C 19.167969 25.394531 18.035156 25.390625 16.878906 25.398438 C 15.710938 25.414062 14.589844 25.425781 13.511719 25.4375 C 12.394531 25.441406 11.285156 25.433594 10.183594 25.414062 C 9.0625 25.390625 7.949219 25.3125 6.847656 25.183594 L 6.734375 25.183594 C 6.574219 25.148438 6.410156 25.121094 6.25 25.09375 C 3.445312 24.773438 1.910156 23.535156 1.644531 21.386719 L 1.644531 21.378906 C 1.480469 20.8125 1.367188 20.222656 1.3125 19.605469 L 1.3125 19.554688 L 1.394531 19.554688 C 1.53125 19.554688 1.65625 19.5 1.765625 19.398438 C 1.835938 19.328125 1.953125 19.1875 2.113281 18.980469 C 1.917969 18.675781 1.714844 18.476562 1.507812 18.382812 C 1.429688 18.347656 1.34375 18.328125 1.261719 18.328125 C 1.261719 17.921875 1.277344 17.519531 1.3125 17.128906 L 1.3125 17.113281 C 1.402344 16.378906 1.445312 15.789062 1.433594 15.347656 C 1.414062 14.898438 1.378906 14.449219 1.328125 13.996094 L 1.328125 13.988281 C 1.324219 13.945312 1.324219 13.898438 1.335938 13.855469 L 1.335938 13.871094 C 1.410156 13.9375 1.53125 14.035156 1.691406 14.152344 C 1.769531 14.113281 1.925781 14.066406 2.152344 14.011719 C 2.226562 13.980469 2.285156 13.9375 2.332031 13.878906 C 2.296875 14.085938 2.277344 14.304688 2.273438 14.535156 C 2.261719 15.007812 2.28125 15.664062 2.332031 16.511719 C 2.332031 16.519531 2.300781 16.878906 2.234375 17.589844 C 2.183594 18.4375 2.222656 19.210938 2.355469 19.917969 C 2.625 21.480469 3.277344 22.496094 4.300781 22.96875 C 4.625 23.242188 5.035156 23.457031 5.53125 23.609375 C 5.839844 23.710938 6.1875 23.78125 6.574219 23.824219 L 6.589844 23.824219 C 6.625 23.824219 6.65625 23.828125 6.679688 23.832031 C 6.8125 23.863281 6.953125 23.886719 7.109375 23.902344 C 7.171875 23.90625 7.230469 23.914062 7.292969 23.929688 C 7.976562 24 8.671875 24.054688 9.382812 24.085938 C 9.371094 24.160156 9.367188 24.253906 9.367188 24.363281 C 9.367188 24.484375 9.402344 24.574219 9.472656 24.640625 C 9.523438 24.699219 9.691406 24.832031 9.972656 25.042969 C 10.074219 25.007812 10.183594 24.957031 10.304688 24.894531 C 10.40625 24.839844 10.46875 24.808594 10.5 24.808594 L 10.589844 24.214844 C 10.570312 24.183594 10.554688 24.15625 10.539062 24.125 C 11.519531 24.140625 12.5 24.144531 13.472656 24.140625 C 14.5625 24.140625 15.6875 24.125 16.855469 24.101562 C 18.035156 24.089844 19.1875 24.097656 20.3125 24.117188 C 21.410156 24.136719 22.503906 24.132812 23.597656 24.101562 C 24.734375 24.085938 25.835938 24.082031 26.902344 24.085938 C 27.957031 24.097656 29.082031 24.101562 30.277344 24.101562 C 31.480469 24.089844 32.597656 24.105469 33.628906 24.140625 Z M 43.050781 15.511719 C 43 15.335938 42.875 15.210938 42.664062 15.128906 C 42.5 15.128906 42.300781 15.304688 42.0625 15.652344 C 42.179688 15.761719 42.316406 15.847656 42.476562 15.914062 C 42.570312 15.914062 42.683594 15.863281 42.816406 15.765625 C 42.953125 15.667969 43.03125 15.585938 43.050781 15.511719 Z M 43.632812 14.027344 L 43.632812 14.210938 C 43.703125 14.664062 43.738281 15.117188 43.738281 15.5625 C 43.742188 16.105469 43.742188 16.632812 43.730469 17.144531 C 43.492188 17.28125 43.304688 17.488281 43.164062 17.761719 C 43.042969 17.597656 42.84375 17.515625 42.558594 17.515625 C 42.230469 17.515625 42.011719 17.621094 41.902344 17.828125 C 41.945312 17.117188 41.953125 16.367188 41.933594 15.578125 L 41.933594 15.226562 C 41.914062 14.929688 41.882812 14.621094 41.84375 14.300781 L 41.84375 13.953125 C 41.84375 13.816406 41.839844 13.6875 41.828125 13.558594 L 41.875 13.558594 C 42.066406 13.558594 42.191406 13.519531 42.25 13.445312 L 42.335938 13.324219 C 42.355469 13.265625 42.386719 13.214844 42.425781 13.175781 C 42.429688 13.171875 42.433594 13.078125 42.433594 12.894531 C 42.433594 12.1875 41.996094 11.597656 41.117188 11.125 C 40.707031 10.902344 40.203125 10.710938 39.617188 10.5625 C 40.367188 10.480469 41.128906 10.453125 41.898438 10.476562 C 42.824219 11.070312 43.378906 11.925781 43.566406 13.050781 C 43 13.402344 42.71875 13.652344 42.71875 13.796875 C 42.71875 13.996094 42.738281 14.089844 42.773438 14.085938 C 42.78125 14.082031 42.796875 14.054688 42.816406 14.003906 L 43.246094 14.152344 C 43.402344 14.105469 43.53125 14.0625 43.632812 14.027344 " fill-opacity="1" fill-rule="evenodd"/><path fill="#e19514" d="M 6.636719 24.15625 C 6.695312 24.132812 6.753906 24.121094 6.808594 24.117188 L 6.945312 24.125 C 7.046875 24.144531 7.144531 24.175781 7.246094 24.214844 L 7.34375 24.527344 L 7.195312 24.757812 C 7.066406 24.792969 6.851562 24.808594 6.542969 24.808594 L 6.507812 24.804688 C 6.472656 24.792969 6.453125 24.691406 6.453125 24.496094 C 6.453125 24.308594 6.515625 24.195312 6.636719 24.15625 Z M 3.902344 22.8125 C 3.933594 22.867188 3.949219 22.984375 3.949219 23.171875 C 3.949219 23.488281 3.933594 23.632812 3.902344 23.601562 C 3.890625 23.601562 3.835938 23.628906 3.734375 23.675781 C 3.625 23.738281 3.535156 23.773438 3.464844 23.789062 C 3.238281 23.574219 3.101562 23.445312 3.054688 23.402344 C 2.992188 23.320312 2.957031 23.246094 2.957031 23.171875 C 2.957031 22.9375 3.035156 22.785156 3.183594 22.714844 C 3.324219 22.65625 3.546875 22.65625 3.847656 22.714844 C 3.847656 22.734375 3.867188 22.765625 3.902344 22.8125 Z M 10.539062 24.125 C 10.550781 24.15625 10.570312 24.183594 10.589844 24.214844 L 10.5 24.808594 C 10.46875 24.808594 10.40625 24.839844 10.304688 24.894531 C 10.183594 24.957031 10.074219 25.007812 9.972656 25.042969 C 9.691406 24.832031 9.523438 24.699219 9.472656 24.640625 C 9.402344 24.574219 9.367188 24.484375 9.367188 24.363281 C 9.367188 24.253906 9.371094 24.160156 9.382812 24.085938 C 9.667969 24.101562 9.960938 24.113281 10.257812 24.117188 C 10.355469 24.117188 10.449219 24.121094 10.539062 24.125 Z M 8.09375 11.460938 C 8.078125 11.445312 8.066406 11.433594 8.0625 11.417969 L 10.671875 11.433594 L 8.183594 11.460938 Z M 4.300781 22.96875 C 3.277344 22.496094 2.625 21.480469 2.355469 19.917969 C 2.222656 19.214844 2.183594 18.4375 2.234375 17.589844 C 2.300781 16.878906 2.332031 16.519531 2.332031 16.511719 C 2.28125 15.664062 2.261719 15.007812 2.269531 14.535156 C 2.277344 14.304688 2.296875 14.085938 2.332031 13.878906 C 2.285156 13.9375 2.226562 13.980469 2.152344 14.011719 C 1.925781 14.066406 1.769531 14.113281 1.691406 14.152344 C 1.53125 14.035156 1.410156 13.941406 1.335938 13.871094 L 1.335938 13.855469 C 1.339844 13.832031 1.347656 13.804688 1.359375 13.78125 L 1.375 13.75 C 1.378906 13.738281 1.382812 13.726562 1.386719 13.722656 C 1.46875 13.53125 1.5625 13.347656 1.667969 13.160156 C 1.683594 13.066406 1.699219 12.976562 1.722656 12.894531 C 1.742188 12.894531 1.757812 12.894531 1.773438 12.902344 C 2.160156 13 2.378906 13.175781 2.421875 13.429688 C 2.519531 13.050781 2.660156 12.714844 2.84375 12.417969 C 3.832031 10.820312 6.316406 9.953125 10.304688 9.820312 L 20.199219 9.917969 C 20.28125 9.917969 21.730469 9.933594 24.550781 9.96875 C 27.378906 9.996094 29.195312 10.007812 30.007812 10.007812 L 31.9375 10.042969 L 32.054688 10.542969 C 30.878906 10.578125 29.71875 10.597656 28.578125 10.597656 L 28.566406 10.597656 C 27.4375 10.589844 26.371094 10.578125 25.371094 10.550781 C 24.375 10.542969 23.300781 10.554688 22.148438 10.589844 L 22.140625 10.589844 C 20.960938 10.597656 19.84375 10.613281 18.78125 10.632812 C 18.121094 10.632812 17.4375 10.625 16.726562 10.605469 C 16.691406 10.5625 16.648438 10.535156 16.59375 10.523438 L 7.238281 10.523438 C 7.167969 10.550781 7.101562 10.605469 7.042969 10.6875 C 7.015625 10.726562 6.996094 10.765625 6.984375 10.804688 C 4.851562 10.96875 3.671875 11.8125 3.441406 13.332031 L 3.441406 13.339844 C 3.421875 13.40625 3.394531 13.46875 3.367188 13.535156 L 3.367188 13.519531 C 3.304688 13.683594 3.234375 13.847656 3.148438 14.011719 C 3.183594 14.460938 3.210938 14.898438 3.230469 15.324219 C 3.234375 15.800781 3.195312 16.433594 3.109375 17.21875 C 3.039062 17.960938 3.039062 18.726562 3.109375 19.515625 C 3.160156 20.085938 3.261719 20.628906 3.410156 21.132812 C 3.417969 21.164062 3.425781 21.195312 3.441406 21.230469 L 3.441406 21.246094 C 3.460938 21.445312 3.5 21.632812 3.554688 21.8125 C 3.699219 22.269531 3.949219 22.65625 4.300781 22.96875 Z M 1.261719 18.332031 C 1.34375 18.332031 1.429688 18.347656 1.507812 18.382812 C 1.714844 18.476562 1.917969 18.675781 2.113281 18.980469 C 1.953125 19.1875 1.835938 19.328125 1.765625 19.398438 C 1.65625 19.5 1.53125 19.554688 1.394531 19.554688 L 1.3125 19.554688 C 1.277344 19.136719 1.261719 18.726562 1.261719 18.332031 Z M 43.632812 14.027344 C 43.53125 14.0625 43.402344 14.105469 43.246094 14.152344 L 42.816406 14.003906 C 42.796875 14.054688 42.78125 14.082031 42.773438 14.085938 C 42.738281 14.089844 42.71875 13.996094 42.71875 13.796875 C 42.71875 13.652344 43 13.402344 43.566406 13.050781 C 43.609375 13.339844 43.632812 13.640625 43.632812 13.953125 Z M 43.050781 15.511719 C 43.03125 15.585938 42.953125 15.667969 42.816406 15.765625 C 42.679688 15.863281 42.566406 15.914062 42.476562 15.914062 C 42.316406 15.847656 42.179688 15.761719 42.0625 15.652344 C 42.296875 15.304688 42.5 15.128906 42.664062 15.128906 C 42.871094 15.210938 43 15.335938 43.050781 15.511719 Z M 34.542969 24.15625 C 34.597656 24.265625 34.625 24.390625 34.625 24.527344 C 34.585938 24.636719 34.546875 24.714844 34.503906 24.765625 C 34.433594 24.859375 34.300781 24.90625 34.097656 24.90625 C 33.894531 24.90625 33.769531 24.894531 33.71875 24.863281 L 33.714844 24.8125 C 33.648438 24.78125 33.609375 24.765625 33.597656 24.757812 C 33.578125 24.75 33.570312 24.648438 33.570312 24.460938 C 33.570312 24.335938 33.589844 24.230469 33.628906 24.140625 L 33.636719 24.140625 C 33.933594 24.152344 34.234375 24.15625 34.542969 24.15625 Z M 27.417969 25.394531 C 27.46875 25.238281 27.5625 25.113281 27.695312 25.011719 C 27.96875 24.8125 28.421875 24.714844 29.0625 24.714844 C 29.667969 24.714844 30.292969 24.820312 30.941406 25.035156 C 31.589844 25.25 32.214844 25.355469 32.8125 25.355469 C 35.722656 25.355469 38.125 24.953125 40.015625 24.148438 C 41.652344 23.445312 42.535156 22.644531 42.664062 21.738281 C 42.714844 21.457031 42.746094 21.039062 42.757812 20.492188 C 42.765625 19.828125 42.78125 19.382812 42.800781 19.164062 C 42.8125 19.039062 42.824219 18.925781 42.839844 18.824219 C 42.757812 18.847656 42.667969 18.871094 42.566406 18.890625 C 42.21875 18.890625 41.992188 18.757812 41.882812 18.496094 L 41.894531 17.972656 L 41.894531 17.898438 C 41.894531 17.878906 41.898438 17.855469 41.902344 17.828125 C 42.011719 17.621094 42.226562 17.515625 42.558594 17.515625 C 42.84375 17.515625 43.042969 17.601562 43.164062 17.761719 C 43.304688 17.488281 43.492188 17.285156 43.730469 17.144531 C 43.714844 17.398438 43.703125 17.648438 43.691406 17.898438 C 43.6875 17.917969 43.683594 17.933594 43.683594 17.949219 C 43.664062 18.691406 43.664062 19.46875 43.683594 20.285156 C 43.683594 20.457031 43.667969 20.636719 43.632812 20.820312 C 43.601562 23.535156 41.816406 24.984375 38.273438 25.167969 C 37.847656 25.25 37.414062 25.308594 36.957031 25.347656 L 36.929688 25.347656 C 35.761719 25.441406 34.652344 25.472656 33.597656 25.4375 L 33.554688 25.4375 C 32.546875 25.410156 31.460938 25.394531 30.300781 25.394531 Z M 25.421875 25.378906 L 23.167969 25.414062 C 23.105469 25.410156 23.050781 25.410156 23 25.414062 C 22.980469 25.34375 22.96875 25.273438 22.96875 25.191406 C 22.96875 25.105469 23.148438 24.929688 23.507812 24.660156 C 23.824219 24.4375 24.144531 24.25 24.464844 24.09375 C 25.089844 24.089844 25.703125 24.085938 26.308594 24.085938 C 26.378906 24.230469 26.414062 24.417969 26.414062 24.648438 C 26.414062 24.796875 26.292969 24.9375 26.050781 25.0625 C 25.800781 25.1875 25.589844 25.292969 25.421875 25.378906 Z M 41.828125 13.558594 C 41.746094 12.691406 41.398438 12.027344 40.785156 11.558594 C 40.148438 11.117188 39.234375 10.867188 38.046875 10.804688 C 38.53125 10.707031 39.019531 10.628906 39.511719 10.574219 C 39.546875 10.570312 39.582031 10.566406 39.617188 10.5625 C 40.203125 10.714844 40.703125 10.902344 41.117188 11.125 C 41.992188 11.597656 42.433594 12.1875 42.433594 12.894531 C 42.433594 13.078125 42.429688 13.171875 42.421875 13.175781 C 42.382812 13.214844 42.355469 13.265625 42.332031 13.324219 L 42.25 13.445312 C 42.191406 13.519531 42.0625 13.558594 41.875 13.558594 L 41.828125 13.558594 " fill-opacity="1" fill-rule="evenodd"/></g><path fill="#a61c24" d="M 16.996094 20.832031 C 17.035156 20.855469 17.078125 20.878906 17.128906 20.902344 C 17.394531 21.011719 17.527344 21.152344 17.527344 21.320312 C 17.527344 21.574219 17.414062 21.699219 17.1875 21.699219 L 15.558594 21.699219 C 15.167969 21.710938 14.976562 21.582031 14.976562 21.320312 L 16.675781 21.320312 C 16.902344 21.320312 17.015625 21.191406 17.015625 20.941406 C 17.015625 20.902344 17.007812 20.867188 16.996094 20.832031 Z M 18.078125 15.820312 L 17.988281 16.09375 C 17.882812 16.417969 17.816406 16.664062 17.785156 16.835938 L 17.710938 16.835938 C 17.40625 16.835938 17.253906 16.765625 17.253906 16.621094 C 17.253906 16.464844 17.328125 16.160156 17.476562 15.710938 L 17.792969 14.75 Z M 21.566406 20.832031 C 21.574219 20.835938 21.574219 20.839844 21.582031 20.84375 L 21.9375 21 C 22.042969 21.070312 22.09375 21.175781 22.085938 21.320312 C 22.085938 21.574219 21.980469 21.699219 21.761719 21.699219 L 19.285156 21.699219 C 19.066406 21.699219 18.957031 21.574219 18.957031 21.320312 L 21.25 21.320312 C 21.46875 21.320312 21.574219 21.191406 21.574219 20.941406 C 21.574219 20.902344 21.574219 20.863281 21.566406 20.832031 Z M 8.28125 20.613281 C 8.230469 20.585938 8.175781 20.558594 8.105469 20.53125 C 7.851562 20.417969 7.714844 20.238281 7.707031 19.984375 L 7.683594 14.980469 C 7.695312 14.304688 7.773438 13.917969 7.917969 13.816406 L 8.304688 13.675781 C 8.433594 13.625 8.5 13.511719 8.5 13.332031 L 8.5 13.324219 L 8.679688 13.324219 C 8.902344 13.324219 9.011719 13.453125 9.011719 13.714844 C 9.011719 13.890625 8.949219 14.007812 8.816406 14.054688 L 8.429688 14.199219 C 8.285156 14.296875 8.207031 14.683594 8.199219 15.363281 L 8.21875 20.367188 C 8.222656 20.457031 8.242188 20.542969 8.28125 20.613281 Z M 18.707031 13.101562 C 19 13.152344 19.195312 13.335938 19.285156 13.652344 L 21.21875 20.238281 C 21.261719 20.378906 21.3125 20.496094 21.375 20.597656 L 21.066406 20.460938 C 20.914062 20.339844 20.792969 20.136719 20.707031 19.859375 L 18.773438 13.273438 C 18.753906 13.210938 18.734375 13.152344 18.707031 13.101562 Z M 9.886719 15.054688 C 10.019531 14.957031 10.179688 14.757812 10.363281 14.464844 C 10.640625 14.015625 10.867188 13.789062 11.042969 13.789062 C 11.167969 13.789062 11.261719 13.949219 11.328125 14.273438 C 11.195312 14.378906 11.046875 14.570312 10.878906 14.847656 C 10.597656 15.292969 10.375 15.519531 10.214844 15.519531 C 9.996094 15.519531 9.886719 15.378906 9.886719 15.09375 Z M 6.0625 21.320312 L 8.167969 21.320312 C 8.386719 21.320312 8.5 21.191406 8.5 20.941406 C 8.5 20.90625 8.496094 20.871094 8.484375 20.839844 C 8.523438 20.863281 8.570312 20.890625 8.621094 20.910156 C 8.886719 21.019531 9.019531 21.15625 9.011719 21.320312 C 9.011719 21.574219 8.902344 21.699219 8.679688 21.699219 L 6.386719 21.699219 C 6.167969 21.699219 6.0625 21.574219 6.0625 21.320312 Z M 13.464844 14.171875 C 13.289062 14.203125 13.203125 14.382812 13.203125 14.710938 L 13.203125 20.238281 C 13.203125 20.371094 13.21875 20.484375 13.25 20.578125 L 12.894531 20.449219 C 12.757812 20.332031 12.6875 20.136719 12.6875 19.859375 L 12.6875 14.332031 C 12.6875 13.96875 12.792969 13.789062 13.007812 13.789062 C 13.125 13.789062 13.277344 13.914062 13.464844 14.171875 Z M 14.359375 15.132812 C 14.546875 15.105469 14.636719 14.980469 14.636719 14.75 C 14.636719 14.332031 14.566406 13.792969 14.421875 13.132812 C 14.46875 13.113281 14.523438 13.101562 14.59375 13.101562 C 14.761719 13.101562 14.867188 13.203125 14.910156 13.398438 C 15.070312 14.109375 15.148438 14.6875 15.148438 15.128906 C 15.148438 15.394531 15.027344 15.523438 14.789062 15.519531 C 14.691406 15.519531 14.550781 15.390625 14.359375 15.132812 Z M 11.058594 21.320312 L 13.144531 21.320312 C 13.363281 21.320312 13.472656 21.191406 13.472656 20.941406 C 13.472656 20.910156 13.472656 20.878906 13.464844 20.851562 L 13.8125 20.976562 C 13.929688 21.046875 13.988281 21.160156 13.988281 21.320312 C 13.988281 21.574219 13.875 21.699219 13.65625 21.699219 L 11.40625 21.699219 C 11.179688 21.699219 11.0625 21.574219 11.058594 21.320312 Z M 18.703125 18.023438 C 18.605469 18.066406 18.507812 18.089844 18.410156 18.089844 C 18.347656 18.089844 18.238281 18.066406 18.085938 18.015625 C 17.941406 17.960938 17.824219 17.933594 17.738281 17.933594 C 17.578125 17.933594 17.464844 18.011719 17.390625 18.171875 C 16.949219 19.339844 16.726562 20.105469 16.726562 20.46875 C 16.726562 20.511719 16.734375 20.550781 16.75 20.589844 C 16.710938 20.566406 16.664062 20.542969 16.613281 20.523438 C 16.347656 20.398438 16.214844 20.253906 16.214844 20.089844 C 16.214844 19.726562 16.4375 18.960938 16.878906 17.792969 C 16.949219 17.632812 17.066406 17.554688 17.226562 17.554688 C 17.3125 17.554688 17.425781 17.582031 17.574219 17.636719 C 17.722656 17.6875 17.832031 17.710938 17.898438 17.710938 C 18.097656 17.710938 18.304688 17.609375 18.515625 17.414062 Z M 23.070312 21.320312 L 25.832031 21.320312 C 26.230469 21.320312 26.519531 21.300781 26.707031 21.261719 C 27.070312 21.179688 27.355469 20.953125 27.5625 20.582031 C 27.730469 20.257812 27.816406 19.890625 27.816406 19.476562 C 27.816406 19.421875 27.8125 19.367188 27.808594 19.316406 C 27.875 19.265625 27.933594 19.238281 27.984375 19.238281 C 28.214844 19.238281 28.332031 19.445312 28.332031 19.859375 C 28.332031 20.269531 28.246094 20.640625 28.074219 20.960938 C 27.867188 21.335938 27.582031 21.5625 27.21875 21.640625 C 27.035156 21.679688 26.742188 21.699219 26.34375 21.699219 L 23.410156 21.699219 C 23.183594 21.699219 23.070312 21.574219 23.070312 21.320312 Z M 36.25 15.820312 L 36.160156 16.09375 C 36.054688 16.417969 35.984375 16.664062 35.957031 16.835938 L 35.878906 16.835938 C 35.578125 16.835938 35.425781 16.765625 35.425781 16.621094 C 35.425781 16.464844 35.5 16.160156 35.644531 15.710938 L 35.960938 14.75 Z M 37.125 21.320312 L 39.425781 21.320312 C 39.644531 21.320312 39.753906 21.191406 39.753906 20.941406 C 39.753906 20.902344 39.75 20.867188 39.742188 20.835938 C 39.746094 20.839844 39.75 20.839844 39.753906 20.84375 L 40.105469 21 C 40.21875 21.070312 40.269531 21.175781 40.265625 21.320312 C 40.265625 21.574219 40.15625 21.699219 39.941406 21.699219 L 37.457031 21.699219 C 37.234375 21.699219 37.125 21.574219 37.125 21.320312 Z M 39.550781 20.601562 L 39.238281 20.460938 C 39.085938 20.339844 38.96875 20.136719 38.882812 19.859375 L 36.945312 13.273438 C 36.925781 13.210938 36.902344 13.152344 36.875 13.101562 C 37.167969 13.152344 37.363281 13.335938 37.457031 13.652344 L 39.398438 20.238281 C 39.441406 20.378906 39.492188 20.5 39.550781 20.601562 Z M 31.546875 20.613281 C 31.496094 20.585938 31.441406 20.558594 31.371094 20.53125 C 31.117188 20.417969 30.980469 20.238281 30.972656 19.984375 L 30.949219 14.980469 C 30.960938 14.304688 31.039062 13.917969 31.183594 13.816406 L 31.570312 13.675781 C 31.699219 13.625 31.765625 13.511719 31.765625 13.332031 L 31.765625 13.324219 L 31.945312 13.324219 C 32.167969 13.324219 32.277344 13.453125 32.277344 13.714844 C 32.277344 13.890625 32.214844 14.007812 32.082031 14.054688 L 31.699219 14.199219 C 31.550781 14.296875 31.472656 14.683594 31.464844 15.363281 L 31.488281 20.367188 C 31.488281 20.457031 31.507812 20.542969 31.546875 20.613281 Z M 25.507812 13.324219 L 25.6875 13.324219 C 25.910156 13.324219 26.019531 13.453125 26.019531 13.714844 C 26.019531 13.890625 25.957031 14 25.824219 14.042969 L 25.453125 14.199219 C 25.308594 14.316406 25.230469 14.675781 25.21875 15.277344 L 25.257812 16.449219 L 25.199219 19.007812 C 25.199219 19.722656 25.277344 20.242188 25.433594 20.558594 C 24.933594 20.554688 24.683594 19.910156 24.683594 18.628906 L 24.742188 16.070312 L 24.707031 14.898438 C 24.71875 14.296875 24.796875 13.9375 24.941406 13.816406 L 25.3125 13.660156 C 25.441406 13.621094 25.507812 13.511719 25.507812 13.332031 Z M 41.933594 15.226562 L 41.917969 15.226562 C 41.761719 15.226562 41.585938 14.988281 41.390625 14.511719 C 41.023438 13.644531 40.804688 13.148438 40.734375 13.011719 C 40.007812 11.644531 39.019531 11.171875 37.765625 11.585938 L 35.453125 11.566406 C 35.710938 11.46875 35.96875 11.375 36.226562 11.289062 C 36.828125 11.09375 37.433594 10.929688 38.046875 10.804688 C 39.234375 10.867188 40.148438 11.117188 40.785156 11.558594 C 41.402344 12.027344 41.746094 12.691406 41.828125 13.558594 C 41.839844 13.6875 41.84375 13.816406 41.84375 13.953125 L 41.84375 14.300781 C 41.882812 14.621094 41.914062 14.929688 41.933594 15.226562 Z M 32.289062 11.53125 L 31.167969 11.519531 C 28.8125 11.519531 27.171875 11.511719 26.246094 11.492188 C 24.761719 11.449219 23.726562 11.363281 23.144531 11.222656 L 17.308594 11.222656 C 17.230469 11.242188 16.808594 11.273438 16.054688 11.320312 C 15.804688 11.328125 15.589844 11.339844 15.414062 11.347656 C 15.0625 11.375 14.859375 11.390625 14.804688 11.402344 L 10.671875 11.429688 L 8.0625 11.414062 C 8.066406 11.429688 8.078125 11.445312 8.09375 11.460938 C 6.144531 11.386719 4.867188 12.304688 4.265625 14.21875 C 4.011719 15.011719 3.886719 16.246094 3.886719 17.925781 C 3.886719 19.914062 4.402344 21.753906 5.425781 23.445312 C 5.460938 23.5 5.496094 23.554688 5.53125 23.609375 C 5.035156 23.457031 4.625 23.242188 4.300781 22.96875 C 3.949219 22.65625 3.699219 22.269531 3.554688 21.8125 C 3.5 21.632812 3.460938 21.445312 3.441406 21.246094 L 3.441406 21.230469 C 3.425781 21.195312 3.417969 21.164062 3.410156 21.132812 C 3.261719 20.628906 3.160156 20.085938 3.109375 19.515625 C 3.039062 18.726562 3.039062 17.960938 3.109375 17.21875 C 3.195312 16.433594 3.234375 15.800781 3.230469 15.324219 C 3.210938 14.894531 3.183594 14.457031 3.148438 14.011719 C 3.234375 13.847656 3.304688 13.683594 3.367188 13.519531 L 3.367188 13.535156 C 3.394531 13.46875 3.421875 13.40625 3.441406 13.339844 L 3.441406 13.332031 C 3.671875 11.8125 4.851562 10.96875 6.980469 10.804688 C 6.996094 10.765625 7.015625 10.726562 7.042969 10.683594 C 7.101562 10.605469 7.167969 10.550781 7.238281 10.519531 L 16.59375 10.519531 C 16.648438 10.535156 16.691406 10.5625 16.726562 10.601562 C 17.4375 10.621094 18.121094 10.632812 18.78125 10.632812 C 19.84375 10.613281 20.960938 10.597656 22.140625 10.589844 L 22.148438 10.589844 C 23.300781 10.554688 24.375 10.542969 25.371094 10.550781 C 26.371094 10.574219 27.4375 10.589844 28.566406 10.597656 L 28.578125 10.597656 C 29.71875 10.597656 30.878906 10.578125 32.054688 10.542969 Z M 29.328125 21.320312 L 31.433594 21.320312 C 31.65625 21.320312 31.765625 21.191406 31.765625 20.941406 C 31.765625 20.90625 31.761719 20.871094 31.75 20.839844 C 31.789062 20.863281 31.835938 20.890625 31.886719 20.910156 C 32.152344 21.019531 32.285156 21.15625 32.277344 21.320312 C 32.277344 21.574219 32.167969 21.699219 31.945312 21.699219 L 29.652344 21.699219 C 29.433594 21.699219 29.328125 21.574219 29.328125 21.320312 Z M 34.921875 20.585938 C 34.882812 20.5625 34.839844 20.542969 34.792969 20.523438 C 34.519531 20.398438 34.382812 20.253906 34.382812 20.089844 C 34.382812 19.726562 34.609375 18.960938 35.058594 17.792969 C 35.121094 17.632812 35.238281 17.554688 35.402344 17.554688 C 35.484375 17.554688 35.597656 17.582031 35.742188 17.636719 C 35.894531 17.6875 36.003906 17.710938 36.066406 17.710938 C 36.273438 17.710938 36.480469 17.609375 36.6875 17.414062 L 36.871094 18.023438 C 36.777344 18.066406 36.679688 18.089844 36.582031 18.089844 C 36.515625 18.089844 36.40625 18.066406 36.257812 18.015625 C 36.109375 17.960938 36 17.933594 35.917969 17.933594 C 35.75 17.933594 35.636719 18.011719 35.570312 18.171875 C 35.121094 19.339844 34.898438 20.105469 34.898438 20.46875 C 34.898438 20.507812 34.90625 20.546875 34.921875 20.585938 Z M 35.167969 20.828125 C 35.207031 20.855469 35.253906 20.878906 35.304688 20.902344 C 35.566406 21.011719 35.699219 21.152344 35.699219 21.320312 C 35.699219 21.574219 35.585938 21.699219 35.359375 21.699219 L 33.726562 21.699219 C 33.34375 21.710938 33.152344 21.582031 33.148438 21.320312 L 34.847656 21.320312 C 35.070312 21.320312 35.183594 21.191406 35.183594 20.941406 C 35.183594 20.902344 35.179688 20.863281 35.167969 20.828125 " fill-opacity="1" fill-rule="evenodd"/><path fill="#ef3a54" d="M 18.078125 15.820312 L 18.351562 16.835938 L 17.785156 16.835938 C 17.816406 16.664062 17.882812 16.417969 17.988281 16.09375 Z M 18.707031 13.101562 C 18.574219 12.839844 18.347656 12.707031 18.019531 12.707031 C 17.660156 12.707031 17.421875 12.894531 17.300781 13.273438 L 15.285156 20.066406 C 15.210938 20.304688 15.042969 20.457031 14.789062 20.523438 C 14.570312 20.582031 14.464844 20.722656 14.464844 20.941406 C 14.464844 21.1875 14.636719 21.316406 14.976562 21.320312 C 14.976562 21.582031 15.167969 21.710938 15.558594 21.699219 L 17.1875 21.699219 C 17.414062 21.699219 17.527344 21.574219 17.527344 21.320312 C 17.527344 21.152344 17.394531 21.011719 17.128906 20.902344 C 17.078125 20.878906 17.035156 20.855469 16.996094 20.832031 C 16.960938 20.742188 16.878906 20.660156 16.75 20.589844 C 16.734375 20.550781 16.726562 20.511719 16.726562 20.46875 C 16.726562 20.105469 16.949219 19.339844 17.390625 18.171875 C 17.464844 18.011719 17.578125 17.933594 17.738281 17.933594 C 17.824219 17.933594 17.941406 17.960938 18.085938 18.015625 C 18.238281 18.066406 18.347656 18.089844 18.410156 18.089844 C 18.507812 18.089844 18.605469 18.066406 18.703125 18.023438 L 18.933594 18.777344 C 19.125 19.4375 19.21875 19.863281 19.21875 20.050781 C 19.21875 20.25 19.089844 20.40625 18.832031 20.523438 C 18.574219 20.632812 18.441406 20.769531 18.441406 20.941406 C 18.441406 21.191406 18.554688 21.320312 18.773438 21.320312 L 18.957031 21.320312 C 18.957031 21.574219 19.066406 21.699219 19.285156 21.699219 L 21.761719 21.699219 C 21.980469 21.699219 22.085938 21.574219 22.085938 21.320312 C 22.09375 21.175781 22.042969 21.070312 21.9375 21 L 21.582031 20.84375 C 21.574219 20.839844 21.574219 20.835938 21.566406 20.832031 C 21.546875 20.742188 21.5 20.667969 21.425781 20.621094 L 21.375 20.597656 C 21.3125 20.496094 21.261719 20.378906 21.21875 20.238281 L 19.285156 13.652344 C 19.195312 13.335938 19 13.152344 18.707031 13.101562 Z M 6.0625 21.320312 C 6.0625 21.574219 6.167969 21.699219 6.386719 21.699219 L 8.679688 21.699219 C 8.902344 21.699219 9.011719 21.574219 9.011719 21.320312 C 9.015625 21.15625 8.886719 21.019531 8.621094 20.910156 C 8.570312 20.890625 8.523438 20.863281 8.484375 20.839844 C 8.390625 20.777344 8.324219 20.703125 8.28125 20.613281 C 8.242188 20.542969 8.222656 20.457031 8.21875 20.367188 L 8.195312 15.363281 C 8.207031 14.683594 8.285156 14.296875 8.429688 14.199219 L 8.816406 14.054688 C 8.945312 14.007812 9.011719 13.890625 9.011719 13.714844 C 9.011719 13.453125 8.902344 13.324219 8.679688 13.324219 L 8.5 13.324219 C 8.496094 13.070312 8.386719 12.945312 8.167969 12.945312 L 5.871094 12.945312 C 5.65625 12.949219 5.546875 13.078125 5.546875 13.332031 C 5.546875 13.496094 5.671875 13.628906 5.917969 13.726562 C 5.976562 13.75 6.027344 13.773438 6.074219 13.804688 C 6.101562 13.890625 6.167969 13.96875 6.277344 14.035156 C 6.308594 14.101562 6.324219 14.183594 6.324219 14.273438 L 6.324219 19.859375 C 6.324219 20.148438 6.257812 20.339844 6.128906 20.433594 L 5.734375 20.621094 C 5.609375 20.683594 5.546875 20.789062 5.546875 20.941406 C 5.546875 21.191406 5.65625 21.320312 5.871094 21.320312 Z M 9.886719 15.054688 L 9.886719 15.09375 C 9.886719 15.378906 9.996094 15.519531 10.210938 15.519531 C 10.375 15.519531 10.59375 15.292969 10.878906 14.847656 C 11.046875 14.570312 11.195312 14.378906 11.328125 14.273438 C 11.332031 14.289062 11.332031 14.304688 11.335938 14.324219 C 11.347656 14.59375 11.347656 14.945312 11.335938 15.382812 L 11.335938 19.859375 C 11.335938 20.148438 11.265625 20.339844 11.125 20.433594 L 10.855469 20.539062 C 10.808594 20.550781 10.765625 20.570312 10.726562 20.597656 C 10.605469 20.667969 10.542969 20.78125 10.542969 20.941406 C 10.550781 21.191406 10.664062 21.320312 10.890625 21.320312 L 11.058594 21.320312 C 11.0625 21.574219 11.179688 21.699219 11.40625 21.699219 L 13.65625 21.699219 C 13.875 21.699219 13.988281 21.574219 13.988281 21.320312 C 13.988281 21.160156 13.929688 21.046875 13.8125 20.976562 L 13.464844 20.851562 C 13.449219 20.738281 13.394531 20.652344 13.300781 20.597656 L 13.246094 20.578125 C 13.21875 20.484375 13.203125 20.371094 13.203125 20.238281 L 13.203125 14.710938 C 13.203125 14.382812 13.289062 14.203125 13.460938 14.171875 C 13.523438 14.257812 13.585938 14.355469 13.65625 14.464844 C 13.941406 14.914062 14.148438 15.136719 14.273438 15.136719 C 14.304688 15.136719 14.335938 15.136719 14.359375 15.132812 C 14.550781 15.390625 14.691406 15.519531 14.789062 15.519531 C 15.027344 15.523438 15.148438 15.394531 15.148438 15.128906 C 15.148438 14.6875 15.070312 14.109375 14.90625 13.398438 C 14.867188 13.203125 14.761719 13.101562 14.589844 13.101562 C 14.523438 13.101562 14.46875 13.113281 14.421875 13.132812 C 14.414062 13.09375 14.402344 13.058594 14.394531 13.019531 C 14.355469 12.820312 14.25 12.722656 14.078125 12.722656 C 13.855469 12.726562 13.738281 12.820312 13.730469 13.003906 L 10.28125 13.003906 C 10.265625 12.816406 10.15625 12.722656 9.957031 12.722656 C 9.765625 12.722656 9.652344 12.824219 9.617188 13.027344 C 9.453125 13.832031 9.375 14.394531 9.375 14.710938 C 9.375 14.996094 9.484375 15.136719 9.699219 15.136719 C 9.753906 15.136719 9.816406 15.109375 9.886719 15.054688 Z M 36.25 15.820312 L 36.519531 16.835938 L 35.953125 16.835938 C 35.984375 16.664062 36.050781 16.417969 36.15625 16.09375 Z M 33.144531 21.320312 C 33.152344 21.582031 33.34375 21.710938 33.726562 21.699219 L 35.359375 21.699219 C 35.585938 21.699219 35.699219 21.574219 35.699219 21.320312 C 35.699219 21.152344 35.566406 21.011719 35.304688 20.902344 C 35.253906 20.878906 35.207031 20.855469 35.164062 20.828125 C 35.039062 20.753906 34.957031 20.671875 34.917969 20.585938 C 34.90625 20.546875 34.898438 20.507812 34.898438 20.46875 C 34.898438 20.105469 35.121094 19.339844 35.570312 18.171875 C 35.636719 18.011719 35.75 17.933594 35.917969 17.933594 C 35.996094 17.933594 36.109375 17.960938 36.257812 18.015625 C 36.40625 18.066406 36.515625 18.089844 36.582031 18.089844 C 36.679688 18.089844 36.773438 18.066406 36.871094 18.023438 L 37.101562 18.777344 C 37.292969 19.4375 37.386719 19.863281 37.386719 20.050781 C 37.386719 20.25 37.257812 20.40625 37.003906 20.523438 C 36.742188 20.632812 36.609375 20.769531 36.609375 20.941406 C 36.609375 21.191406 36.722656 21.320312 36.941406 21.320312 L 37.125 21.320312 C 37.125 21.574219 37.234375 21.699219 37.457031 21.699219 L 39.941406 21.699219 C 40.15625 21.699219 40.265625 21.574219 40.265625 21.320312 C 40.269531 21.175781 40.214844 21.070312 40.105469 21 L 39.75 20.84375 C 39.75 20.839844 39.746094 20.839844 39.742188 20.835938 C 39.726562 20.742188 39.675781 20.671875 39.59375 20.621094 L 39.550781 20.601562 C 39.492188 20.5 39.4375 20.378906 39.394531 20.238281 L 37.457031 13.652344 C 37.363281 13.335938 37.167969 13.152344 36.875 13.101562 C 36.746094 12.839844 36.515625 12.707031 36.1875 12.707031 C 35.832031 12.707031 35.59375 12.894531 35.480469 13.273438 L 33.453125 20.066406 C 33.386719 20.304688 33.222656 20.457031 32.964844 20.523438 C 32.742188 20.582031 32.632812 20.722656 32.632812 20.941406 C 32.636719 21.1875 32.808594 21.316406 33.144531 21.320312 Z M 23.066406 21.320312 C 23.066406 21.574219 23.179688 21.699219 23.40625 21.699219 L 26.34375 21.699219 C 26.742188 21.699219 27.035156 21.679688 27.21875 21.640625 C 27.582031 21.5625 27.867188 21.335938 28.074219 20.960938 C 28.246094 20.640625 28.328125 20.269531 28.328125 19.859375 C 28.328125 19.445312 28.214844 19.238281 27.980469 19.238281 C 27.933594 19.238281 27.875 19.265625 27.808594 19.316406 C 27.78125 19.011719 27.667969 18.859375 27.46875 18.859375 C 27.347656 18.859375 27.191406 19.007812 26.992188 19.296875 C 26.730469 19.6875 26.53125 19.960938 26.390625 20.121094 C 26.101562 20.414062 25.785156 20.558594 25.4375 20.558594 L 25.429688 20.558594 C 25.277344 20.242188 25.195312 19.722656 25.195312 19.007812 L 25.257812 16.449219 L 25.21875 15.277344 C 25.230469 14.675781 25.308594 14.316406 25.453125 14.199219 L 25.824219 14.042969 C 25.953125 14 26.019531 13.890625 26.019531 13.714844 C 26.019531 13.453125 25.910156 13.324219 25.6875 13.324219 L 25.507812 13.324219 C 25.503906 13.070312 25.394531 12.945312 25.171875 12.945312 L 22.894531 12.945312 C 22.667969 12.949219 22.554688 13.078125 22.554688 13.332031 C 22.554688 13.496094 22.679688 13.628906 22.925781 13.726562 C 22.984375 13.75 23.035156 13.773438 23.078125 13.800781 C 23.109375 13.890625 23.175781 13.96875 23.289062 14.039062 C 23.320312 14.105469 23.339844 14.183594 23.339844 14.273438 C 23.363281 14.675781 23.378906 15.308594 23.378906 16.167969 L 23.339844 19.859375 C 23.339844 20.136719 23.273438 20.332031 23.136719 20.449219 L 22.742188 20.597656 C 22.617188 20.640625 22.554688 20.753906 22.554688 20.941406 C 22.554688 21.191406 22.667969 21.320312 22.894531 21.320312 Z M 29.324219 21.320312 C 29.324219 21.574219 29.433594 21.699219 29.652344 21.699219 L 31.945312 21.699219 C 32.167969 21.699219 32.277344 21.574219 32.277344 21.320312 C 32.28125 21.15625 32.152344 21.019531 31.886719 20.910156 C 31.835938 20.890625 31.789062 20.863281 31.75 20.839844 C 31.660156 20.777344 31.589844 20.703125 31.546875 20.613281 C 31.507812 20.542969 31.488281 20.457031 31.484375 20.367188 L 31.460938 15.363281 C 31.472656 14.683594 31.550781 14.296875 31.695312 14.199219 L 32.082031 14.054688 C 32.214844 14.007812 32.277344 13.890625 32.277344 13.714844 C 32.277344 13.453125 32.167969 13.324219 31.945312 13.324219 L 31.765625 13.324219 C 31.761719 13.070312 31.652344 12.945312 31.433594 12.945312 L 29.136719 12.945312 C 28.921875 12.949219 28.8125 13.078125 28.8125 13.332031 C 28.8125 13.496094 28.9375 13.628906 29.183594 13.726562 C 29.242188 13.75 29.292969 13.773438 29.339844 13.804688 C 29.367188 13.890625 29.433594 13.96875 29.542969 14.035156 C 29.574219 14.101562 29.589844 14.183594 29.589844 14.273438 L 29.589844 19.859375 C 29.589844 20.148438 29.523438 20.339844 29.394531 20.433594 L 29.003906 20.621094 C 28.875 20.683594 28.8125 20.789062 28.8125 20.941406 C 28.8125 21.191406 28.921875 21.320312 29.136719 21.320312 Z M 32.289062 11.53125 L 32.488281 12.371094 C 32.503906 12.460938 32.550781 12.539062 32.625 12.601562 C 32.695312 12.660156 32.777344 12.695312 32.875 12.707031 C 32.964844 12.714844 33.050781 12.695312 33.128906 12.648438 C 33.890625 12.226562 34.664062 11.867188 35.453125 11.566406 L 37.765625 11.585938 C 39.019531 11.171875 40.007812 11.644531 40.730469 13.011719 C 40.804688 13.148438 41.023438 13.644531 41.390625 14.511719 C 41.585938 14.988281 41.761719 15.226562 41.917969 15.226562 L 41.933594 15.226562 L 41.933594 15.578125 C 41.953125 16.367188 41.941406 17.117188 41.902344 17.828125 C 41.898438 17.855469 41.894531 17.875 41.894531 17.898438 L 41.894531 17.972656 L 41.878906 18.492188 C 41.859375 19.082031 41.855469 19.675781 41.863281 20.285156 C 41.863281 20.4375 41.855469 20.578125 41.84375 20.699219 L 41.84375 20.789062 C 41.828125 22.699219 40.578125 23.730469 38.089844 23.878906 L 38.074219 23.878906 C 38 23.878906 37.9375 23.886719 37.886719 23.910156 C 37.558594 23.976562 37.210938 24.027344 36.835938 24.058594 L 36.753906 24.058594 C 35.988281 24.121094 35.253906 24.15625 34.542969 24.15625 C 34.234375 24.15625 33.933594 24.148438 33.636719 24.140625 L 33.628906 24.140625 C 32.597656 24.105469 31.480469 24.089844 30.277344 24.101562 C 29.078125 24.101562 27.953125 24.097656 26.902344 24.085938 C 25.835938 24.082031 24.734375 24.085938 23.597656 24.101562 C 22.503906 24.132812 21.410156 24.136719 20.3125 24.117188 C 19.183594 24.097656 18.03125 24.089844 16.855469 24.101562 C 15.6875 24.125 14.558594 24.140625 13.472656 24.140625 C 12.496094 24.144531 11.519531 24.140625 10.535156 24.125 C 10.445312 24.121094 10.351562 24.117188 10.257812 24.117188 C 9.960938 24.113281 9.667969 24.101562 9.382812 24.085938 C 8.671875 24.054688 7.976562 24 7.289062 23.929688 C 7.230469 23.914062 7.167969 23.90625 7.109375 23.902344 C 6.953125 23.886719 6.808594 23.863281 6.679688 23.832031 C 6.652344 23.828125 6.625 23.824219 6.589844 23.824219 L 6.574219 23.824219 C 6.1875 23.78125 5.839844 23.710938 5.53125 23.609375 C 5.496094 23.554688 5.460938 23.5 5.425781 23.445312 C 4.398438 21.753906 3.886719 19.914062 3.886719 17.925781 C 3.886719 16.246094 4.011719 15.011719 4.261719 14.21875 C 4.867188 12.304688 6.144531 11.386719 8.089844 11.460938 L 8.179688 11.460938 L 10.671875 11.429688 L 14.800781 11.402344 C 14.855469 11.390625 15.0625 11.375 15.414062 11.347656 C 15.589844 11.339844 15.804688 11.328125 16.054688 11.320312 C 16.808594 11.273438 17.226562 11.242188 17.308594 11.222656 L 23.144531 11.222656 C 23.726562 11.363281 24.761719 11.449219 26.246094 11.492188 C 27.171875 11.511719 28.8125 11.519531 31.167969 11.519531 L 32.289062 11.53125 " fill-opacity="1" fill-rule="evenodd"/><path fill="#ffffff" d="M 17.785156 16.835938 L 18.351562 16.835938 L 18.078125 15.820312 L 17.792969 14.75 L 17.476562 15.710938 C 17.328125 16.160156 17.253906 16.464844 17.253906 16.621094 C 17.253906 16.765625 17.40625 16.835938 17.710938 16.835938 Z M 6.0625 21.320312 L 5.871094 21.320312 C 5.65625 21.320312 5.546875 21.191406 5.546875 20.941406 C 5.546875 20.789062 5.609375 20.683594 5.738281 20.621094 L 6.128906 20.433594 C 6.261719 20.339844 6.324219 20.148438 6.324219 19.859375 L 6.324219 14.273438 C 6.324219 14.183594 6.308594 14.101562 6.277344 14.035156 C 6.167969 13.96875 6.101562 13.890625 6.074219 13.804688 C 6.027344 13.773438 5.976562 13.75 5.917969 13.726562 C 5.671875 13.628906 5.546875 13.496094 5.546875 13.332031 C 5.546875 13.078125 5.65625 12.949219 5.871094 12.945312 L 8.167969 12.945312 C 8.386719 12.945312 8.496094 13.070312 8.5 13.324219 L 8.5 13.332031 C 8.5 13.511719 8.433594 13.625 8.304688 13.675781 L 7.917969 13.816406 C 7.773438 13.917969 7.695312 14.304688 7.683594 14.980469 L 7.707031 19.984375 C 7.714844 20.238281 7.851562 20.417969 8.105469 20.53125 C 8.175781 20.558594 8.230469 20.585938 8.28125 20.613281 C 8.324219 20.703125 8.394531 20.777344 8.484375 20.839844 C 8.496094 20.871094 8.5 20.90625 8.5 20.941406 C 8.5 21.191406 8.390625 21.320312 8.167969 21.320312 Z M 18.703125 18.023438 L 18.515625 17.414062 C 18.304688 17.609375 18.097656 17.710938 17.898438 17.710938 C 17.832031 17.710938 17.722656 17.6875 17.574219 17.636719 C 17.425781 17.582031 17.3125 17.554688 17.226562 17.554688 C 17.066406 17.554688 16.949219 17.632812 16.878906 17.792969 C 16.4375 18.960938 16.214844 19.726562 16.214844 20.089844 C 16.214844 20.253906 16.347656 20.398438 16.613281 20.523438 C 16.664062 20.542969 16.710938 20.566406 16.75 20.589844 C 16.878906 20.660156 16.960938 20.742188 16.996094 20.832031 C 17.007812 20.867188 17.011719 20.902344 17.011719 20.941406 C 17.011719 21.191406 16.902344 21.320312 16.675781 21.320312 L 14.976562 21.320312 C 14.632812 21.316406 14.460938 21.1875 14.460938 20.941406 C 14.460938 20.722656 14.570312 20.582031 14.789062 20.523438 C 15.042969 20.457031 15.210938 20.304688 15.285156 20.066406 L 17.300781 13.273438 C 17.421875 12.894531 17.660156 12.707031 18.019531 12.707031 C 18.347656 12.707031 18.574219 12.839844 18.707031 13.101562 C 18.734375 13.152344 18.753906 13.210938 18.773438 13.273438 L 20.707031 19.859375 C 20.792969 20.136719 20.910156 20.339844 21.066406 20.460938 L 21.375 20.597656 L 21.421875 20.621094 C 21.5 20.667969 21.546875 20.742188 21.566406 20.832031 C 21.574219 20.863281 21.574219 20.902344 21.574219 20.941406 C 21.574219 21.191406 21.464844 21.320312 21.25 21.320312 L 18.773438 21.320312 C 18.550781 21.320312 18.441406 21.191406 18.441406 20.941406 C 18.441406 20.769531 18.570312 20.632812 18.832031 20.523438 C 19.089844 20.40625 19.21875 20.25 19.21875 20.050781 C 19.21875 19.863281 19.121094 19.4375 18.929688 18.777344 Z M 9.886719 15.054688 C 9.816406 15.109375 9.753906 15.136719 9.699219 15.136719 C 9.484375 15.136719 9.375 14.996094 9.375 14.710938 C 9.375 14.394531 9.453125 13.832031 9.617188 13.027344 C 9.652344 12.824219 9.765625 12.722656 9.957031 12.722656 C 10.15625 12.722656 10.265625 12.816406 10.28125 13.003906 L 13.730469 13.003906 C 13.738281 12.820312 13.855469 12.726562 14.078125 12.722656 C 14.25 12.722656 14.355469 12.820312 14.394531 13.019531 C 14.402344 13.058594 14.414062 13.09375 14.421875 13.132812 C 14.5625 13.792969 14.636719 14.332031 14.636719 14.75 C 14.636719 14.980469 14.542969 15.105469 14.359375 15.132812 C 14.335938 15.136719 14.304688 15.136719 14.273438 15.136719 C 14.148438 15.136719 13.941406 14.914062 13.65625 14.464844 C 13.585938 14.355469 13.523438 14.257812 13.460938 14.171875 C 13.277344 13.914062 13.121094 13.789062 13.003906 13.789062 C 12.792969 13.789062 12.6875 13.96875 12.6875 14.332031 L 12.6875 19.859375 C 12.6875 20.136719 12.757812 20.332031 12.894531 20.449219 L 13.246094 20.578125 L 13.300781 20.597656 C 13.394531 20.652344 13.449219 20.738281 13.464844 20.851562 C 13.472656 20.878906 13.472656 20.910156 13.472656 20.941406 C 13.472656 21.191406 13.363281 21.320312 13.140625 21.320312 L 10.890625 21.320312 C 10.664062 21.320312 10.550781 21.191406 10.542969 20.941406 C 10.542969 20.78125 10.605469 20.667969 10.726562 20.597656 C 10.765625 20.570312 10.808594 20.550781 10.855469 20.539062 L 11.125 20.433594 C 11.265625 20.339844 11.335938 20.148438 11.335938 19.859375 L 11.335938 15.382812 C 11.347656 14.945312 11.347656 14.59375 11.335938 14.324219 C 11.332031 14.304688 11.332031 14.289062 11.328125 14.273438 C 11.261719 13.949219 11.167969 13.789062 11.042969 13.789062 C 10.867188 13.789062 10.640625 14.015625 10.363281 14.464844 C 10.179688 14.757812 10.019531 14.957031 9.886719 15.054688 Z M 35.953125 16.835938 L 36.519531 16.835938 L 36.25 15.820312 L 35.960938 14.75 L 35.644531 15.710938 C 35.5 16.160156 35.425781 16.464844 35.425781 16.621094 C 35.425781 16.765625 35.578125 16.835938 35.878906 16.835938 Z M 36.871094 18.023438 L 36.6875 17.414062 C 36.480469 17.609375 36.273438 17.710938 36.066406 17.710938 C 36.003906 17.710938 35.894531 17.6875 35.742188 17.636719 C 35.597656 17.582031 35.484375 17.554688 35.402344 17.554688 C 35.238281 17.554688 35.121094 17.632812 35.054688 17.792969 C 34.609375 18.960938 34.382812 19.726562 34.382812 20.089844 C 34.382812 20.253906 34.519531 20.398438 34.792969 20.523438 C 34.839844 20.542969 34.882812 20.5625 34.917969 20.585938 C 34.957031 20.671875 35.039062 20.753906 35.164062 20.828125 C 35.175781 20.863281 35.183594 20.902344 35.183594 20.941406 C 35.183594 21.191406 35.070312 21.320312 34.84375 21.320312 L 33.144531 21.320312 C 32.808594 21.316406 32.636719 21.1875 32.632812 20.941406 C 32.632812 20.722656 32.742188 20.582031 32.964844 20.523438 C 33.222656 20.457031 33.386719 20.304688 33.453125 20.066406 L 35.480469 13.273438 C 35.59375 12.894531 35.832031 12.707031 36.1875 12.707031 C 36.515625 12.707031 36.746094 12.839844 36.875 13.101562 C 36.902344 13.152344 36.925781 13.210938 36.941406 13.273438 L 38.882812 19.859375 C 38.96875 20.136719 39.085938 20.339844 39.238281 20.460938 L 39.550781 20.601562 L 39.59375 20.621094 C 39.675781 20.671875 39.726562 20.742188 39.742188 20.835938 C 39.75 20.867188 39.753906 20.902344 39.75 20.941406 C 39.75 21.191406 39.640625 21.320312 39.425781 21.320312 L 36.941406 21.320312 C 36.722656 21.320312 36.609375 21.191406 36.609375 20.941406 C 36.609375 20.769531 36.742188 20.632812 37.003906 20.523438 C 37.257812 20.40625 37.386719 20.25 37.386719 20.050781 C 37.386719 19.863281 37.292969 19.4375 37.101562 18.777344 Z M 29.324219 21.320312 L 29.136719 21.320312 C 28.921875 21.320312 28.8125 21.191406 28.8125 20.941406 C 28.8125 20.789062 28.875 20.683594 29.003906 20.621094 L 29.394531 20.433594 C 29.523438 20.339844 29.589844 20.148438 29.589844 19.859375 L 29.589844 14.273438 C 29.589844 14.183594 29.574219 14.101562 29.542969 14.035156 C 29.433594 13.96875 29.367188 13.890625 29.339844 13.804688 C 29.292969 13.773438 29.242188 13.75 29.183594 13.726562 C 28.9375 13.628906 28.8125 13.496094 28.8125 13.332031 C 28.8125 13.078125 28.921875 12.949219 29.136719 12.945312 L 31.433594 12.945312 C 31.652344 12.945312 31.761719 13.070312 31.765625 13.324219 L 31.765625 13.332031 C 31.765625 13.511719 31.699219 13.625 31.570312 13.675781 L 31.183594 13.816406 C 31.039062 13.917969 30.960938 14.304688 30.949219 14.980469 L 30.972656 19.984375 C 30.980469 20.238281 31.113281 20.417969 31.371094 20.53125 C 31.4375 20.558594 31.496094 20.585938 31.546875 20.613281 C 31.589844 20.703125 31.660156 20.777344 31.75 20.839844 C 31.761719 20.871094 31.765625 20.90625 31.765625 20.941406 C 31.765625 21.191406 31.652344 21.320312 31.433594 21.320312 Z M 27.808594 19.316406 C 27.8125 19.367188 27.816406 19.421875 27.816406 19.476562 C 27.816406 19.890625 27.730469 20.257812 27.558594 20.582031 C 27.351562 20.953125 27.070312 21.179688 26.707031 21.261719 C 26.519531 21.300781 26.230469 21.320312 25.832031 21.320312 L 22.894531 21.320312 C 22.667969 21.320312 22.554688 21.191406 22.554688 20.941406 C 22.554688 20.753906 22.617188 20.640625 22.742188 20.597656 L 23.136719 20.449219 C 23.273438 20.332031 23.339844 20.136719 23.339844 19.859375 L 23.378906 16.167969 C 23.378906 15.308594 23.363281 14.675781 23.339844 14.273438 C 23.339844 14.183594 23.320312 14.105469 23.289062 14.039062 C 23.175781 13.96875 23.109375 13.890625 23.078125 13.800781 C 23.035156 13.773438 22.984375 13.75 22.925781 13.726562 C 22.679688 13.628906 22.554688 13.496094 22.554688 13.332031 C 22.554688 13.078125 22.667969 12.949219 22.894531 12.945312 L 25.171875 12.945312 C 25.394531 12.945312 25.503906 13.070312 25.507812 13.324219 L 25.507812 13.332031 C 25.507812 13.511719 25.441406 13.621094 25.308594 13.660156 L 24.941406 13.816406 C 24.792969 13.9375 24.714844 14.296875 24.707031 14.898438 L 24.742188 16.070312 L 24.683594 18.628906 C 24.683594 19.910156 24.933594 20.554688 25.429688 20.558594 L 25.4375 20.558594 C 25.785156 20.558594 26.101562 20.414062 26.390625 20.121094 C 26.53125 19.960938 26.730469 19.6875 26.992188 19.296875 C 27.191406 19.007812 27.347656 18.859375 27.46875 18.859375 C 27.667969 18.859375 27.78125 19.011719 27.808594 19.316406 Z M 34.503906 4.621094 C 35.539062 4.050781 36.585938 3.664062 37.636719 3.457031 L 39.449219 10.148438 C 39.074219 10.191406 38.699219 10.242188 38.328125 10.308594 C 37.707031 10.421875 37.09375 10.570312 36.488281 10.753906 C 36.351562 10.792969 36.214844 10.835938 36.082031 10.878906 L 34.503906 4.621094 " fill-opacity="1" fill-rule="evenodd"/><path fill="#2c9d3f" d="M 39.449219 10.148438 L 37.640625 3.457031 C 39.039062 3.195312 40.441406 3.257812 41.851562 3.644531 L 41.691406 7.007812 L 43.300781 10.140625 C 42.953125 10.105469 42.605469 10.078125 42.257812 10.058594 C 41.847656 10.039062 41.4375 10.03125 41.03125 10.039062 C 40.5 10.050781 39.972656 10.089844 39.449219 10.148438 " fill-opacity="1" fill-rule="evenodd"/><path fill="#ed1d23" d="M 34.507812 4.621094 L 36.085938 10.878906 C 35.5 11.070312 34.917969 11.296875 34.347656 11.554688 C 33.867188 11.769531 33.386719 12.011719 32.914062 12.273438 L 31.59375 6.679688 C 32.558594 5.839844 33.53125 5.152344 34.507812 4.621094 " fill-opacity="1" fill-rule="evenodd"/></svg>